<?xml version="1.0" encoding="utf-8"?>
<!-- Generator: Adobe Illustrator 16.0.0, SVG Export Plug-In . SVG Version: 6.00 Build 0)  -->
<!DOCTYPE svg PUBLIC "-//W3C//DTD SVG 1.1//EN" "http://www.w3.org/Graphics/SVG/1.1/DTD/svg11.dtd">
<svg version="1.1" id="Layer_2" xmlns="http://www.w3.org/2000/svg" xmlns:xlink="http://www.w3.org/1999/xlink" x="0px" y="0px"
	 width="24.224px" height="153.128px" viewBox="69.537 192.225 24.224 153.128"
	 enable-background="new 69.537 192.225 24.224 153.128" xml:space="preserve">
<g>
	<g id="XMLID_1_">
		<g>
			<path fill="#FFFFFF" d="M91.154,192.725v76.071c-0.201,0-0.442,0-0.697,0c-0.389,0-0.859,0-1.369,0c-0.509,0-1.073,0-1.677,0
				s-1.234,0-1.892,0c-0.631,0-1.288,0-1.958,0c-0.631,0-1.275,0-1.919,0c-0.644,0-1.275,0-1.919,0c-0.67,0-1.314,0-1.958,0
				c-0.658,0-1.288,0-1.878,0c-0.604,0-1.181,0-1.69,0c-0.51,0-0.967,0-1.369,0c-0.255,0-0.482,0-0.684,0v-76.071
				c0.014,0,0.014,0,0.027,0c0.04,0,0.067,0,0.107,0c0.133,0,0.281,0,0.429,0c0.604,0,1.208,0,1.811,0c0.792,0,1.583,0,2.375,0
				c1.583,0,3.166,0,4.749,0s3.167,0,4.763,0c0.791,0,1.583,0,2.375,0c0.604,0,1.208,0,1.811,0c0.135,0,0.282,0,0.43,0
				c0.027,0,0.067,0,0.094,0c0.013,0,0.027,0,0.027,0C91.154,192.725,91.154,192.725,91.154,192.725z"/>
			<path fill="#FFFFFF" d="M71.083,268.823c0.013-0.014,0.027-0.027,0.027-0.027s0.014,0,0.054,0c0.027,0,0.067,0,0.121,0
				c0.134,0,0.322,0,0.577,0c0.08,0,0.174,0,0.281,0c0.202,0,0.429,0,0.684,0c0.402,0,0.859,0,1.369,0c0.509,0,1.086,0,1.69,0
				c0.59,0,1.221,0,1.878,0c0.644,0,1.288,0,1.958,0c0.644,0,1.275,0,1.919,0c0.644,0,1.288,0,1.919,0c0.67,0,1.328,0,1.958,0
				c0.658,0,1.288,0,1.892,0s1.167,0,1.677,0c0.51,0,0.98,0,1.369,0c0.255,0,0.496,0,0.697,0c0.094,0,0.201,0,0.282,0
				c0.255,0,0.443,0,0.563,0c0.121,0,0.175,0,0.175,0c0.013,0,0.026,0.013,0.026,0.027c0.107,0.107,0.202,0.215,0.282,0.335
				c0.08,0.121,0.16,0.241,0.228,0.362c0.04,0.081,0.081,0.147,0.107,0.228c0.081,0.147,0.134,0.309,0.188,0.483
				c0.053,0.174,0.107,0.349,0.134,0.537c0.04,0.188,0.067,0.389,0.094,0.577c0.013,0.201,0.027,0.416,0.027,0.617
				c0,0.201-0.014,0.402-0.027,0.604c-0.027,0.201-0.054,0.389-0.094,0.59c-0.027,0.174-0.081,0.362-0.134,0.537
				c-0.054,0.161-0.107,0.322-0.188,0.483c-0.026,0.081-0.067,0.147-0.107,0.229c-0.068,0.121-0.148,0.241-0.228,0.362
				c-0.081,0.121-0.175,0.228-0.282,0.335c0,0-0.013,0.014-0.026,0.027c0,0-0.054,0-0.175,0c-0.121,0-0.309,0-0.563,0
				c-0.269,0-0.59,0-0.979,0c-0.389,0-0.859,0-1.369,0c-0.509,0-1.073,0-1.677,0s-1.234,0-1.892,0c-0.631,0-1.288,0-1.958,0
				c-0.631,0-1.275,0-1.919,0c-0.644,0-1.275,0-1.919,0c-0.67,0-1.314,0-1.958,0c-0.658,0-1.288,0-1.878,0c-0.604,0-1.181,0-1.69,0
				c-0.51,0-0.967,0-1.369,0c-0.389,0-0.71,0-0.965,0s-0.443,0-0.577,0c-0.054,0-0.094,0-0.121,0c-0.04,0-0.054,0-0.054,0
				c0-0.013-0.014-0.027-0.027-0.027c-0.094-0.107-0.188-0.215-0.282-0.335c-0.08-0.121-0.161-0.241-0.228-0.362
				c-0.04-0.081-0.067-0.148-0.107-0.229c-0.067-0.161-0.134-0.322-0.188-0.483c-0.053-0.174-0.094-0.362-0.134-0.537
				c-0.041-0.201-0.067-0.389-0.081-0.59c-0.026-0.201-0.026-0.402-0.026-0.604c0-0.202,0-0.416,0.026-0.617
				c0.014-0.188,0.041-0.389,0.081-0.577c0.04-0.188,0.081-0.362,0.134-0.537c0.054-0.174,0.121-0.335,0.188-0.483
				c0.04-0.081,0.067-0.147,0.107-0.228c0.067-0.121,0.148-0.242,0.228-0.362C70.896,269.038,70.99,268.93,71.083,268.823z"/>
			<path fill="#FFFFFF" d="M71.083,275.155c0.013,0,0.027-0.013,0.027-0.027c0,0,0.014,0,0.054,0c0.027,0,0.067,0,0.121,0
				c0.134,0,0.322,0,0.577,0s0.577,0,0.965,0c0.402,0,0.859,0,1.369,0c0.509,0,1.086,0,1.69,0c0.59,0,1.221,0,1.878,0
				c0.644,0,1.288,0,1.958,0c0.644,0,1.275,0,1.919,0c0.644,0,1.288,0,1.919,0c0.67,0,1.328,0,1.958,0c0.658,0,1.288,0,1.892,0
				s1.167,0,1.677,0c0.51,0,0.98,0,1.369,0c0.389,0,0.71,0,0.979,0c0.255,0,0.443,0,0.563,0c0.121,0,0.175,0,0.175,0
				c0.013,0.014,0.026,0.027,0.026,0.027c0.107,0.107,0.202,0.215,0.282,0.335c0.08,0.121,0.16,0.242,0.228,0.375
				c0.04,0.067,0.081,0.134,0.107,0.215c0.081,0.161,0.134,0.322,0.188,0.483c0.053,0.174,0.107,0.362,0.134,0.537
				c0.04,0.201,0.067,0.389,0.094,0.59c0.013,0.201,0.027,0.402,0.027,0.604c0,0.201-0.014,0.416-0.027,0.617
				c-0.027,0.188-0.054,0.389-0.094,0.577c-0.027,0.188-0.081,0.362-0.134,0.537c-0.054,0.174-0.107,0.335-0.188,0.497
				c-0.026,0.067-0.067,0.147-0.107,0.214c-0.068,0.121-0.148,0.255-0.228,0.362c-0.081,0.121-0.175,0.228-0.282,0.335
				c0,0.014-0.013,0.027-0.026,0.041c0,0-0.054,0-0.175,0c-0.121,0-0.309,0-0.563,0c-0.269,0-0.59,0-0.979,0
				c-0.389,0-0.859,0-1.369,0c-0.509,0-1.073,0-1.677,0s-1.234,0-1.892,0c-0.631,0-1.288,0-1.958,0c-0.631,0-1.275,0-1.919,0
				c-0.644,0-1.275,0-1.919,0c-0.67,0-1.314,0-1.958,0c-0.658,0-1.288,0-1.878,0c-0.604,0-1.181,0-1.69,0c-0.51,0-0.967,0-1.369,0
				c-0.389,0-0.71,0-0.965,0s-0.443,0-0.577,0c-0.054,0-0.094,0-0.121,0c-0.04,0-0.054,0-0.054,0c0-0.014-0.014-0.027-0.027-0.041
				c-0.094-0.107-0.188-0.214-0.282-0.335c-0.08-0.107-0.161-0.241-0.228-0.362c-0.013-0.027-0.013-0.054-0.027-0.067
				c-0.026-0.054-0.054-0.107-0.08-0.147c-0.067-0.161-0.134-0.322-0.188-0.497c-0.053-0.174-0.094-0.349-0.134-0.537
				c-0.041-0.188-0.067-0.389-0.081-0.577c-0.026-0.201-0.026-0.416-0.026-0.617c0-0.202,0-0.403,0.026-0.604
				c0.014-0.201,0.041-0.389,0.081-0.59c0.04-0.174,0.081-0.362,0.134-0.537c0.054-0.161,0.121-0.322,0.188-0.483
				c0.04-0.081,0.067-0.147,0.107-0.215c0.067-0.134,0.148-0.255,0.228-0.375C70.896,275.37,70.99,275.263,71.083,275.155z"/>
			<path fill="#FFFFFF" d="M71.083,281.501c0.013-0.014,0.027-0.027,0.027-0.027s0.014,0,0.054,0c0.027,0,0.067,0,0.121,0
				c0.134,0,0.322,0,0.577,0s0.577,0,0.965,0c0.402,0,0.859,0,1.369,0c0.509,0,1.086,0,1.69,0c0.59,0,1.221,0,1.878,0
				c0.644,0,1.288,0,1.958,0c0.644,0,1.275,0,1.919,0c0.644,0,1.288,0,1.919,0c0.67,0,1.328,0,1.958,0c0.658,0,1.288,0,1.892,0
				s1.167,0,1.677,0c0.51,0,0.98,0,1.369,0c0.389,0,0.71,0,0.979,0c0.255,0,0.443,0,0.563,0c0.121,0,0.175,0,0.175,0
				c0.013,0,0.026,0.013,0.026,0.027c0.107,0.107,0.202,0.214,0.282,0.335c0.08,0.107,0.16,0.242,0.228,0.362
				c0.04,0.067,0.081,0.148,0.107,0.228c0.081,0.148,0.134,0.309,0.188,0.483c0.053,0.174,0.107,0.349,0.134,0.537
				c0.04,0.188,0.067,0.389,0.094,0.577c0.013,0.201,0.027,0.416,0.027,0.617s-0.014,0.402-0.027,0.604
				c-0.027,0.202-0.054,0.389-0.094,0.59c-0.027,0.174-0.081,0.362-0.134,0.537c-0.054,0.161-0.107,0.322-0.188,0.483
				c-0.026,0.081-0.067,0.147-0.107,0.214c-0.068,0.134-0.148,0.255-0.228,0.376c-0.081,0.121-0.175,0.228-0.282,0.335
				c0,0-0.013,0.013-0.026,0.027c0,0-0.054,0-0.175,0c-0.121,0-0.309,0-0.563,0c-0.269,0-0.59,0-0.979,0c-0.389,0-0.859,0-1.369,0
				c-0.509,0-1.073,0-1.677,0s-1.234,0-1.892,0c-0.631,0-1.288,0-1.958,0c-0.631,0-1.275,0-1.919,0c-0.644,0-1.275,0-1.919,0
				c-0.67,0-1.314,0-1.958,0c-0.658,0-1.288,0-1.878,0c-0.604,0-1.181,0-1.69,0c-0.51,0-0.967,0-1.369,0c-0.389,0-0.71,0-0.965,0
				s-0.443,0-0.577,0c-0.054,0-0.094,0-0.121,0c-0.04,0-0.054,0-0.054,0c0-0.014-0.014-0.027-0.027-0.027
				c-0.094-0.107-0.188-0.215-0.282-0.335c-0.08-0.121-0.161-0.242-0.228-0.376c-0.013-0.013-0.013-0.04-0.027-0.067
				c-0.026-0.04-0.054-0.094-0.08-0.147c-0.067-0.161-0.134-0.322-0.188-0.483c-0.053-0.175-0.094-0.362-0.134-0.537
				c-0.041-0.202-0.067-0.389-0.081-0.59c-0.026-0.202-0.026-0.403-0.026-0.604s0-0.416,0.026-0.617
				c0.014-0.188,0.041-0.389,0.081-0.577c0.04-0.188,0.081-0.362,0.134-0.537c0.054-0.175,0.121-0.335,0.188-0.483
				c0.04-0.08,0.067-0.161,0.107-0.228c0.067-0.121,0.148-0.255,0.228-0.362C70.896,281.716,70.99,281.608,71.083,281.501z"/>
			<path fill="#FFFFFF" d="M70.574,293.415c-0.04-0.081-0.067-0.147-0.107-0.228c-0.067-0.148-0.134-0.309-0.188-0.483
				c-0.053-0.175-0.094-0.349-0.134-0.537c-0.041-0.188-0.067-0.389-0.081-0.577c-0.026-0.201-0.026-0.416-0.026-0.617
				s0-0.402,0.026-0.604c0.014-0.202,0.041-0.389,0.081-0.59c0.04-0.175,0.081-0.362,0.134-0.537
				c0.054-0.161,0.121-0.322,0.188-0.483c0.04-0.08,0.067-0.147,0.107-0.228c0.067-0.121,0.148-0.241,0.228-0.362
				c0.094-0.121,0.188-0.228,0.282-0.335c0.013-0.014,0.027-0.014,0.027-0.027c0,0,0.014,0,0.054,0c0.027,0,0.067,0,0.121,0
				c0.134,0,0.322,0,0.577,0s0.577,0,0.965,0c0.402,0,0.859,0,1.369,0c0.509,0,1.086,0,1.69,0c0.59,0,1.221,0,1.878,0
				c0.644,0,1.288,0,1.958,0c0.644,0,1.275,0,1.919,0c0.644,0,1.288,0,1.919,0c0.67,0,1.328,0,1.958,0c0.658,0,1.288,0,1.892,0
				s1.167,0,1.677,0c0.51,0,0.98,0,1.369,0c0.389,0,0.71,0,0.979,0c0.255,0,0.443,0,0.563,0c0.121,0,0.175,0,0.175,0
				c0.013,0.013,0.026,0.013,0.026,0.027c0.107,0.107,0.202,0.214,0.282,0.335c0.08,0.121,0.16,0.242,0.228,0.362
				c0.04,0.081,0.081,0.148,0.107,0.228c0.081,0.161,0.134,0.322,0.188,0.483c0.053,0.174,0.107,0.362,0.134,0.537
				c0.04,0.201,0.067,0.389,0.094,0.59c0.013,0.201,0.027,0.402,0.027,0.604s-0.014,0.416-0.027,0.617
				c-0.027,0.188-0.054,0.389-0.094,0.577c-0.027,0.188-0.081,0.362-0.134,0.537c-0.054,0.174-0.107,0.335-0.188,0.483
				c-0.026,0.08-0.067,0.147-0.107,0.228c-0.068,0.121-0.148,0.255-0.228,0.362c-0.081,0.121-0.175,0.228-0.282,0.335
				c0,0.013-0.013,0.027-0.026,0.027c0,0-0.054,0-0.175,0c-0.121,0-0.309,0-0.563,0c-0.269,0-0.59,0-0.979,0
				c-0.389,0-0.859,0-1.369,0c-0.509,0-1.073,0-1.677,0s-1.234,0-1.892,0c-0.631,0-1.288,0-1.958,0c-0.631,0-1.275,0-1.919,0
				c-0.644,0-1.275,0-1.919,0c-0.67,0-1.314,0-1.958,0c-0.658,0-1.288,0-1.878,0c-0.604,0-1.181,0-1.69,0c-0.51,0-0.967,0-1.369,0
				c-0.389,0-0.71,0-0.965,0s-0.443,0-0.577,0c-0.054,0-0.094,0-0.121,0c-0.04,0-0.054,0-0.054,0s-0.014-0.014-0.027-0.027
				c-0.094-0.107-0.188-0.215-0.282-0.335C70.722,293.67,70.641,293.536,70.574,293.415z"/>
			<path fill="#FFFFFF" d="M71.083,294.18c0.013-0.013,0.027-0.027,0.027-0.04c0,0,0.014,0,0.054,0c0.027,0,0.067,0,0.121,0
				c0.134,0,0.322,0,0.577,0s0.577,0,0.965,0c0.402,0,0.859,0,1.369,0c0.509,0,1.086,0,1.69,0c0.59,0,1.221,0,1.878,0
				c0.644,0,1.288,0,1.958,0c0.644,0,1.275,0,1.919,0c0.644,0,1.288,0,1.919,0c0.67,0,1.328,0,1.958,0c0.658,0,1.288,0,1.892,0
				s1.167,0,1.677,0c0.51,0,0.98,0,1.369,0c0.389,0,0.71,0,0.979,0c0.255,0,0.443,0,0.563,0c0.121,0,0.175,0,0.175,0
				c0.013,0.013,0.026,0.027,0.026,0.04c0.107,0.094,0.202,0.215,0.282,0.335c0.08,0.107,0.16,0.242,0.228,0.362
				c0.04,0.067,0.081,0.147,0.107,0.214c0.081,0.161,0.134,0.322,0.188,0.497c0.053,0.174,0.107,0.349,0.134,0.537
				c0.04,0.188,0.067,0.389,0.094,0.577c0.013,0.201,0.027,0.402,0.027,0.617c0,0.201-0.014,0.402-0.027,0.604
				c-0.027,0.201-0.054,0.389-0.094,0.577c-0.027,0.188-0.081,0.362-0.134,0.55c-0.054,0.161-0.107,0.322-0.188,0.483
				c-0.026,0.067-0.067,0.148-0.107,0.215c-0.068,0.134-0.148,0.255-0.228,0.375c-0.081,0.107-0.175,0.228-0.282,0.335
				c0,0-0.013,0.014-0.026,0.027c0,0-0.054,0-0.175,0c-0.121,0-0.309,0-0.563,0c-0.269,0-0.59,0-0.979,0c-0.389,0-0.859,0-1.369,0
				c-0.509,0-1.073,0-1.677,0s-1.234,0-1.892,0c-0.631,0-1.288,0-1.958,0c-0.631,0-1.275,0-1.919,0c-0.644,0-1.275,0-1.919,0
				c-0.67,0-1.314,0-1.958,0c-0.658,0-1.288,0-1.878,0c-0.604,0-1.181,0-1.69,0c-0.51,0-0.967,0-1.369,0c-0.389,0-0.71,0-0.965,0
				s-0.443,0-0.577,0c-0.054,0-0.094,0-0.121,0c-0.04,0-0.054,0-0.054,0c0-0.013-0.014-0.027-0.027-0.027
				c-0.094-0.107-0.188-0.228-0.282-0.335c-0.08-0.121-0.161-0.241-0.228-0.375c-0.04-0.067-0.067-0.147-0.107-0.215
				c-0.067-0.161-0.134-0.322-0.188-0.483c-0.053-0.188-0.094-0.362-0.134-0.55c-0.041-0.188-0.067-0.376-0.081-0.577
				c-0.026-0.201-0.026-0.402-0.026-0.604c0-0.215,0-0.416,0.026-0.617c0.014-0.188,0.041-0.389,0.081-0.577
				c0.04-0.188,0.081-0.362,0.134-0.537c0.054-0.174,0.121-0.335,0.188-0.497c0.04-0.067,0.067-0.147,0.107-0.214
				c0.067-0.121,0.148-0.255,0.228-0.362C70.896,294.395,70.99,294.273,71.083,294.18z"/>
			<path fill="#FFFFFF" d="M71.083,300.513c0.013-0.014,0.027-0.014,0.027-0.027c0,0,0.014,0,0.054,0c0.027,0,0.067,0,0.121,0
				c0.134,0,0.322,0,0.577,0s0.577,0,0.965,0c0.402,0,0.859,0,1.369,0c0.509,0,1.086,0,1.69,0c0.59,0,1.221,0,1.878,0
				c0.644,0,1.288,0,1.958,0c0.644,0,1.275,0,1.919,0c0.644,0,1.288,0,1.919,0c0.67,0,1.328,0,1.958,0c0.658,0,1.288,0,1.892,0
				s1.167,0,1.677,0c0.51,0,0.98,0,1.369,0c0.389,0,0.71,0,0.979,0c0.255,0,0.443,0,0.563,0c0.121,0,0.175,0,0.175,0
				c0.013,0.014,0.026,0.014,0.026,0.027c0.107,0.107,0.202,0.214,0.282,0.335c0.08,0.121,0.16,0.242,0.228,0.362
				c0.04,0.081,0.081,0.147,0.107,0.228c0.081,0.161,0.134,0.322,0.188,0.483c0.053,0.174,0.107,0.362,0.134,0.537
				c0.04,0.201,0.067,0.389,0.094,0.59c0.013,0.201,0.027,0.402,0.027,0.604c0,0.201-0.014,0.402-0.027,0.617
				c-0.027,0.188-0.054,0.389-0.094,0.577c-0.027,0.188-0.081,0.362-0.134,0.537c-0.054,0.161-0.107,0.335-0.188,0.483
				c-0.026,0.081-0.067,0.148-0.107,0.228c-0.068,0.121-0.148,0.242-0.228,0.362c-0.081,0.121-0.175,0.228-0.282,0.335
				c0,0.014-0.013,0.027-0.026,0.027c0,0-0.054,0-0.175,0c-0.121,0-0.309,0-0.563,0c-0.081,0-0.188,0-0.282,0
				c-0.201,0-0.442,0-0.697,0c-0.389,0-0.859,0-1.369,0c-0.509,0-1.073,0-1.677,0s-1.234,0-1.892,0c-0.631,0-1.288,0-1.958,0
				c-0.631,0-1.275,0-1.919,0c-0.644,0-1.275,0-1.919,0c-0.67,0-1.314,0-1.958,0c-0.658,0-1.288,0-1.878,0c-0.604,0-1.181,0-1.69,0
				c-0.51,0-0.967,0-1.369,0c-0.255,0-0.482,0-0.684,0c-0.107,0-0.201,0-0.281,0c-0.255,0-0.443,0-0.577,0c-0.054,0-0.094,0-0.121,0
				c-0.04,0-0.054,0-0.054,0s-0.014-0.013-0.027-0.027c-0.094-0.107-0.188-0.214-0.282-0.335c-0.08-0.121-0.161-0.241-0.228-0.362
				c-0.04-0.08-0.067-0.147-0.107-0.228c-0.067-0.147-0.134-0.322-0.188-0.483c-0.053-0.174-0.094-0.349-0.134-0.537
				c-0.041-0.188-0.067-0.389-0.081-0.577c-0.026-0.215-0.026-0.416-0.026-0.617c0-0.202,0-0.403,0.026-0.604
				c0.014-0.201,0.041-0.389,0.081-0.59c0.04-0.174,0.081-0.362,0.134-0.537c0.054-0.161,0.121-0.322,0.188-0.483
				c0.04-0.081,0.067-0.147,0.107-0.228c0.067-0.121,0.148-0.242,0.228-0.362C70.896,300.727,70.99,300.62,71.083,300.513z"/>
			<path fill="#FFFFFF" d="M71.083,306.858c0.013-0.014,0.027-0.027,0.027-0.041c0,0,0.014,0,0.054,0c0.027,0,0.067,0,0.121,0
				c0.134,0,0.322,0,0.577,0c0.08,0,0.174,0,0.281,0c0.202,0,0.429,0,0.684,0c0.402,0,0.859,0,1.369,0c0.509,0,1.086,0,1.69,0
				c0.59,0,1.221,0,1.878,0c0.644,0,1.288,0,1.958,0c0.644,0,1.275,0,1.919,0c0.644,0,1.288,0,1.919,0c0.67,0,1.328,0,1.958,0
				c0.658,0,1.288,0,1.892,0s1.167,0,1.677,0c0.51,0,0.98,0,1.369,0c0.255,0,0.496,0,0.697,0c0.094,0,0.201,0,0.282,0
				c0.255,0,0.443,0,0.563,0c0.121,0,0.175,0,0.175,0c0.013,0.014,0.026,0.027,0.026,0.041c0.107,0.094,0.202,0.214,0.282,0.322
				c0.08,0.121,0.16,0.242,0.228,0.375c0.04,0.067,0.081,0.148,0.107,0.215c0.081,0.161,0.134,0.322,0.188,0.483
				c0.053,0.188,0.107,0.362,0.134,0.55c0.04,0.188,0.067,0.375,0.094,0.577c0.013,0.201,0.027,0.403,0.027,0.604
				c0,0.214-0.014,0.416-0.027,0.617c-0.027,0.201-0.054,0.389-0.094,0.577c-0.027,0.188-0.081,0.362-0.134,0.55
				c-0.054,0.161-0.107,0.322-0.188,0.483c-0.026,0.067-0.067,0.147-0.107,0.214c-0.068,0.134-0.148,0.255-0.228,0.376
				c-0.081,0.107-0.175,0.228-0.282,0.322c0,0.014-0.013,0.027-0.026,0.041c0,0-0.054,0-0.175,0c-0.121,0-0.309,0-0.563,0
				c-0.269,0-0.59,0-0.979,0c-0.389,0-0.859,0-1.369,0c-0.509,0-1.073,0-1.677,0s-1.234,0-1.892,0c-0.631,0-1.288,0-1.958,0
				c-0.631,0-1.275,0-1.919,0c-0.644,0-1.275,0-1.919,0c-0.67,0-1.314,0-1.958,0c-0.658,0-1.288,0-1.878,0c-0.604,0-1.181,0-1.69,0
				c-0.51,0-0.967,0-1.369,0c-0.389,0-0.71,0-0.965,0s-0.443,0-0.577,0c-0.054,0-0.094,0-0.121,0c-0.04,0-0.054,0-0.054,0
				c0-0.014-0.014-0.027-0.027-0.041c-0.094-0.094-0.188-0.214-0.282-0.322c-0.08-0.121-0.161-0.242-0.228-0.376
				c-0.013-0.027-0.013-0.04-0.027-0.067c-0.026-0.054-0.054-0.107-0.08-0.147c-0.067-0.161-0.134-0.322-0.188-0.483
				c-0.053-0.188-0.094-0.362-0.134-0.55c-0.041-0.188-0.067-0.375-0.081-0.577c-0.026-0.202-0.026-0.403-0.026-0.617
				c0-0.201,0-0.403,0.026-0.604c0.014-0.201,0.041-0.389,0.081-0.577c0.04-0.188,0.081-0.362,0.134-0.55
				c0.054-0.161,0.121-0.322,0.188-0.483c0.04-0.067,0.067-0.147,0.107-0.215c0.067-0.134,0.148-0.255,0.228-0.375
				C70.896,307.073,70.99,306.952,71.083,306.858z"/>
			<path fill="#FFFFFF" d="M70.574,318.772c-0.04-0.081-0.067-0.147-0.107-0.228c-0.067-0.161-0.134-0.322-0.188-0.483
				c-0.053-0.175-0.094-0.362-0.134-0.537c-0.041-0.202-0.067-0.389-0.081-0.59c-0.026-0.202-0.026-0.403-0.026-0.604
				s0-0.402,0.026-0.617c0.014-0.188,0.041-0.389,0.081-0.577c0.04-0.174,0.081-0.362,0.134-0.537
				c0.054-0.161,0.121-0.335,0.188-0.483c0.04-0.081,0.067-0.148,0.107-0.229c0.067-0.121,0.148-0.241,0.228-0.362
				c0.094-0.121,0.188-0.229,0.282-0.335c0.013-0.014,0.027-0.014,0.027-0.027c0,0,0.014,0,0.054,0c0.027,0,0.067,0,0.121,0
				c0.134,0,0.322,0,0.577,0s0.577,0,0.965,0c0.402,0,0.859,0,1.369,0c0.509,0,1.086,0,1.69,0c0.59,0,1.221,0,1.878,0
				c0.644,0,1.288,0,1.958,0c0.644,0,1.275,0,1.919,0c0.644,0,1.288,0,1.919,0c0.67,0,1.328,0,1.958,0c0.658,0,1.288,0,1.892,0
				s1.167,0,1.677,0c0.51,0,0.98,0,1.369,0c0.389,0,0.71,0,0.979,0c0.255,0,0.443,0,0.563,0c0.121,0,0.175,0,0.175,0
				c0.013,0.013,0.026,0.013,0.026,0.027c0.107,0.107,0.202,0.214,0.282,0.335c0.08,0.121,0.16,0.241,0.228,0.362
				c0.04,0.081,0.081,0.148,0.107,0.229c0.081,0.147,0.134,0.322,0.188,0.483c0.053,0.174,0.107,0.362,0.134,0.537
				c0.04,0.188,0.067,0.389,0.094,0.577c0.013,0.215,0.027,0.416,0.027,0.617s-0.014,0.402-0.027,0.604
				c-0.027,0.201-0.054,0.389-0.094,0.59c-0.027,0.174-0.081,0.362-0.134,0.537c-0.054,0.161-0.107,0.322-0.188,0.483
				c-0.026,0.081-0.067,0.147-0.107,0.228c-0.068,0.121-0.148,0.242-0.228,0.362c-0.081,0.121-0.175,0.228-0.282,0.335
				c0,0.013-0.013,0.013-0.026,0.027c0,0-0.054,0-0.175,0c-0.121,0-0.309,0-0.563,0c-0.269,0-0.59,0-0.979,0
				c-0.389,0-0.859,0-1.369,0c-0.509,0-1.073,0-1.677,0s-1.234,0-1.892,0c-0.631,0-1.288,0-1.958,0c-0.631,0-1.275,0-1.919,0
				c-0.644,0-1.275,0-1.919,0c-0.67,0-1.314,0-1.958,0c-0.658,0-1.288,0-1.878,0c-0.604,0-1.181,0-1.69,0c-0.51,0-0.967,0-1.369,0
				c-0.255,0-0.482,0-0.684,0c-0.107,0-0.201,0-0.281,0c-0.255,0-0.443,0-0.577,0c-0.054,0-0.094,0-0.121,0c-0.04,0-0.054,0-0.054,0
				c0-0.014-0.014-0.014-0.027-0.027c-0.094-0.107-0.188-0.215-0.282-0.335C70.722,319.014,70.641,318.893,70.574,318.772z"/>
			<path fill="#FFFFFF" d="M71.11,319.497c0,0,0.014,0,0.054,0c0.027,0,0.067,0,0.121,0c0.134,0,0.322,0,0.577,0
				c0.08,0,0.174,0,0.281,0c0.202,0,0.429,0,0.684,0c0.402,0,0.859,0,1.369,0c0.509,0,1.086,0,1.69,0c0.59,0,1.221,0,1.878,0
				c0.644,0,1.288,0,1.958,0c0.644,0,1.275,0,1.919,0c0.644,0,1.288,0,1.919,0c0.67,0,1.328,0,1.958,0c0.658,0,1.288,0,1.892,0
				s1.167,0,1.677,0c0.51,0,0.98,0,1.369,0c0.389,0,0.71,0,0.979,0c0.255,0,0.443,0,0.563,0c0.121,0,0.175,0,0.175,0
				c0.013,0.013,0.026,0.027,0.026,0.027c0.107,0.107,0.202,0.228,0.282,0.335c0.08,0.121,0.16,0.241,0.228,0.375
				c0.04,0.067,0.081,0.147,0.107,0.215c0.081,0.161,0.134,0.322,0.188,0.483c0.053,0.188,0.107,0.362,0.134,0.55
				c0.04,0.188,0.067,0.376,0.094,0.577c0.013,0.201,0.027,0.402,0.027,0.604c0,0.215-0.014,0.416-0.027,0.617
				c-0.027,0.188-0.054,0.389-0.094,0.577c-0.027,0.188-0.081,0.362-0.134,0.537c-0.054,0.174-0.107,0.336-0.188,0.496
				c-0.026,0.067-0.067,0.148-0.107,0.215c-0.068,0.134-0.148,0.255-0.228,0.375c-0.081,0.108-0.175,0.228-0.282,0.322
				c0,0.013-0.013,0.027-0.026,0.04c0,0-0.054,0-0.175,0c-0.121,0-0.309,0-0.563,0c-0.269,0-0.59,0-0.979,0
				c-0.389,0-0.859,0-1.369,0c-0.509,0-1.073,0-1.677,0s-1.234,0-1.892,0c-0.631,0-1.288,0-1.958,0c-0.631,0-1.275,0-1.919,0
				c-0.644,0-1.275,0-1.919,0c-0.67,0-1.314,0-1.958,0c-0.658,0-1.288,0-1.878,0c-0.604,0-1.181,0-1.69,0c-0.51,0-0.967,0-1.369,0
				c-0.389,0-0.71,0-0.965,0s-0.443,0-0.577,0c-0.054,0-0.094,0-0.121,0c-0.04,0-0.054,0-0.054,0c0-0.013-0.014-0.027-0.027-0.04
				c-0.094-0.094-0.188-0.214-0.282-0.322c-0.08-0.121-0.161-0.241-0.228-0.375c-0.04-0.067-0.067-0.147-0.107-0.215
				c-0.067-0.16-0.134-0.322-0.188-0.496c-0.053-0.174-0.094-0.349-0.134-0.537c-0.041-0.188-0.067-0.389-0.081-0.577
				c-0.026-0.201-0.026-0.402-0.026-0.617c0-0.201,0-0.402,0.026-0.604c0.014-0.201,0.041-0.389,0.081-0.577
				c0.04-0.188,0.081-0.362,0.134-0.55c0.054-0.161,0.121-0.322,0.188-0.483c0.04-0.067,0.067-0.148,0.107-0.215
				c0.067-0.134,0.148-0.255,0.228-0.375c0.094-0.107,0.188-0.229,0.282-0.335C71.097,319.523,71.11,319.51,71.11,319.497z"/>
			<path fill="#FFFFFF" d="M70.574,331.45c-0.04-0.08-0.067-0.147-0.107-0.228c-0.067-0.161-0.134-0.322-0.188-0.483
				c-0.053-0.174-0.094-0.362-0.134-0.537c-0.041-0.201-0.067-0.389-0.081-0.59c-0.026-0.201-0.026-0.402-0.026-0.604
				s0-0.416,0.026-0.617c0.014-0.188,0.041-0.389,0.081-0.577c0.04-0.188,0.081-0.362,0.134-0.537
				c0.054-0.174,0.121-0.335,0.188-0.483c0.04-0.081,0.067-0.147,0.107-0.228c0.067-0.121,0.148-0.242,0.228-0.362
				c0.094-0.121,0.188-0.228,0.282-0.335c0.013-0.013,0.027-0.027,0.027-0.027s0.014,0,0.054,0c0.027,0,0.067,0,0.121,0
				c0.134,0,0.322,0,0.577,0s0.577,0,0.965,0c0.402,0,0.859,0,1.369,0c0.509,0,1.086,0,1.69,0c0.59,0,1.221,0,1.878,0
				c0.644,0,1.288,0,1.958,0c0.644,0,1.275,0,1.919,0c0.644,0,1.288,0,1.919,0c0.67,0,1.328,0,1.958,0c0.658,0,1.288,0,1.892,0
				s1.167,0,1.677,0c0.51,0,0.98,0,1.369,0c0.389,0,0.71,0,0.979,0c0.255,0,0.443,0,0.563,0c0.121,0,0.175,0,0.175,0
				c0.013,0,0.026,0.014,0.026,0.027c0.107,0.107,0.202,0.215,0.282,0.335c0.08,0.121,0.16,0.242,0.228,0.362
				c0.04,0.081,0.081,0.147,0.107,0.228c0.081,0.147,0.134,0.309,0.188,0.483c0.053,0.174,0.107,0.349,0.134,0.537
				c0.04,0.188,0.067,0.389,0.094,0.577c0.013,0.201,0.027,0.416,0.027,0.617s-0.014,0.402-0.027,0.604
				c-0.027,0.201-0.054,0.389-0.094,0.59c-0.027,0.174-0.081,0.362-0.134,0.537c-0.054,0.161-0.107,0.322-0.188,0.483
				c-0.026,0.081-0.067,0.148-0.107,0.228c-0.068,0.121-0.148,0.242-0.228,0.362c-0.081,0.121-0.175,0.228-0.282,0.335
				c0,0-0.013,0.014-0.026,0.027c0,0-0.054,0-0.175,0c-0.121,0-0.309,0-0.563,0c-0.269,0-0.59,0-0.979,0c-0.389,0-0.859,0-1.369,0
				c-0.509,0-1.073,0-1.677,0s-1.234,0-1.892,0c-0.631,0-1.288,0-1.958,0c-0.631,0-1.275,0-1.919,0c-0.644,0-1.275,0-1.919,0
				c-0.67,0-1.314,0-1.958,0c-0.658,0-1.288,0-1.878,0c-0.604,0-1.181,0-1.69,0c-0.51,0-0.967,0-1.369,0c-0.255,0-0.482,0-0.684,0
				c-0.107,0-0.201,0-0.281,0c-0.255,0-0.443,0-0.577,0c-0.054,0-0.094,0-0.121,0c-0.04,0-0.054,0-0.054,0
				c0-0.013-0.014-0.027-0.027-0.027c-0.094-0.107-0.188-0.214-0.282-0.335C70.722,331.692,70.641,331.571,70.574,331.45z"/>
			<path fill="#FFFFFF" d="M71.11,332.175c0,0,0.014,0,0.054,0c0.027,0,0.067,0,0.121,0c0.134,0,0.322,0,0.577,0
				c0.08,0,0.174,0,0.281,0c0.202,0,0.429,0,0.684,0c0.402,0,0.859,0,1.369,0c0.509,0,1.086,0,1.69,0c0.59,0,1.221,0,1.878,0
				c0.644,0,1.288,0,1.958,0c0.644,0,1.275,0,1.919,0c0.644,0,1.288,0,1.919,0c0.67,0,1.328,0,1.958,0c0.658,0,1.288,0,1.892,0
				s1.167,0,1.677,0c0.51,0,0.98,0,1.369,0c0.389,0,0.71,0,0.979,0c0.255,0,0.443,0,0.563,0c0.121,0,0.175,0,0.175,0
				c0.013,0.014,0.026,0.027,0.026,0.027c0.107,0.107,0.202,0.215,0.282,0.335c0.08,0.121,0.16,0.242,0.228,0.375
				c0.04,0.067,0.081,0.134,0.107,0.215c0.081,0.161,0.134,0.322,0.188,0.483c0.053,0.174,0.107,0.362,0.134,0.537
				c0.04,0.201,0.067,0.389,0.094,0.59c0.013,0.201,0.027,0.403,0.027,0.604c0,0.214-0.014,0.416-0.027,0.617
				c-0.027,0.188-0.054,0.389-0.094,0.577c-0.027,0.188-0.081,0.362-0.134,0.537c-0.054,0.174-0.107,0.335-0.188,0.483
				c-0.026,0.081-0.067,0.161-0.107,0.229c-0.068,0.121-0.148,0.255-0.228,0.362c-0.081,0.121-0.175,0.228-0.282,0.335
				c0,0.014-0.013,0.027-0.026,0.041c0,0-0.054,0-0.175,0c-0.121,0-0.309,0-0.563,0c-0.269,0-0.59,0-0.979,0
				c-0.389,0-0.859,0-1.369,0c-0.509,0-1.073,0-1.677,0s-1.234,0-1.892,0c-0.631,0-1.288,0-1.958,0c-0.631,0-1.275,0-1.919,0
				c-0.644,0-1.275,0-1.919,0c-0.67,0-1.314,0-1.958,0c-0.658,0-1.288,0-1.878,0c-0.604,0-1.181,0-1.69,0c-0.51,0-0.967,0-1.369,0
				c-0.389,0-0.71,0-0.965,0s-0.443,0-0.577,0c-0.054,0-0.094,0-0.121,0c-0.04,0-0.054,0-0.054,0c0-0.014-0.014-0.027-0.027-0.041
				c-0.094-0.107-0.188-0.214-0.282-0.335c-0.08-0.107-0.161-0.241-0.228-0.362c-0.04-0.067-0.067-0.148-0.107-0.229
				c-0.067-0.147-0.134-0.309-0.188-0.483c-0.053-0.174-0.094-0.349-0.134-0.537c-0.041-0.188-0.067-0.389-0.081-0.577
				c-0.026-0.201-0.026-0.403-0.026-0.617c0-0.201,0-0.403,0.026-0.604c0.014-0.201,0.041-0.389,0.081-0.59
				c0.04-0.174,0.081-0.362,0.134-0.537c0.054-0.161,0.121-0.322,0.188-0.483c0.04-0.081,0.067-0.147,0.107-0.215
				c0.067-0.134,0.148-0.255,0.228-0.375c0.094-0.121,0.188-0.228,0.282-0.335C71.097,332.202,71.11,332.188,71.11,332.175z"/>
			<path fill="#FFFFFF" d="M71.083,338.548c0.013-0.014,0.027-0.027,0.027-0.027s0.014,0,0.054,0c0.027,0,0.067,0,0.121,0
				c0.134,0,0.322,0,0.577,0s0.577,0,0.965,0c0.402,0,0.859,0,1.369,0c0.509,0,1.086,0,1.69,0c0.59,0,1.221,0,1.878,0
				c0.644,0,1.288,0,1.958,0c0.644,0,1.275,0,1.919,0c0.644,0,1.288,0,1.919,0c0.67,0,1.328,0,1.958,0c0.658,0,1.288,0,1.892,0
				s1.167,0,1.677,0c0.51,0,0.98,0,1.369,0c0.389,0,0.71,0,0.979,0c0.255,0,0.443,0,0.563,0c0.121,0,0.175,0,0.175,0
				c0.013,0,0.026,0.013,0.026,0.027c0.107,0.107,0.202,0.215,0.282,0.335c0.08,0.107,0.16,0.241,0.228,0.362
				c0.04,0.067,0.081,0.148,0.107,0.229c0.081,0.147,0.134,0.309,0.188,0.483c0.053,0.174,0.107,0.349,0.134,0.537
				c0.04,0.188,0.067,0.389,0.094,0.577c0.013,0.201,0.027,0.416,0.027,0.617s-0.014,0.403-0.027,0.604
				c-0.027,0.201-0.054,0.389-0.094,0.59c-0.027,0.174-0.081,0.362-0.134,0.537c-0.054,0.161-0.107,0.322-0.188,0.483
				c-0.026,0.081-0.067,0.147-0.107,0.215c-0.068,0.134-0.148,0.255-0.228,0.375c-0.081,0.121-0.175,0.228-0.282,0.335
				c0,0-0.013,0.013-0.026,0.027c0,0-0.054,0-0.175,0c-0.121,0-0.309,0-0.563,0c-0.269,0-0.59,0-0.979,0c-0.389,0-0.859,0-1.369,0
				c-0.509,0-1.073,0-1.677,0s-1.234,0-1.892,0c-0.631,0-1.288,0-1.958,0c-0.631,0-1.275,0-1.919,0c-0.644,0-1.275,0-1.919,0
				c-0.67,0-1.314,0-1.958,0c-0.658,0-1.288,0-1.878,0c-0.604,0-1.181,0-1.69,0c-0.51,0-0.967,0-1.369,0c-0.389,0-0.71,0-0.965,0
				s-0.443,0-0.577,0c-0.054,0-0.094,0-0.121,0c-0.04,0-0.054,0-0.054,0c0-0.014-0.014-0.027-0.027-0.027
				c-0.094-0.107-0.188-0.215-0.282-0.335c-0.08-0.12-0.161-0.242-0.228-0.375c-0.04-0.067-0.067-0.134-0.107-0.215
				c-0.067-0.161-0.134-0.322-0.188-0.483c-0.053-0.174-0.094-0.362-0.134-0.537c-0.041-0.201-0.067-0.389-0.081-0.59
				c-0.026-0.201-0.026-0.403-0.026-0.604s0-0.416,0.026-0.617c0.014-0.188,0.041-0.389,0.081-0.577
				c0.04-0.188,0.081-0.362,0.134-0.537c0.054-0.174,0.121-0.335,0.188-0.483c0.04-0.081,0.067-0.161,0.107-0.229
				c0.067-0.121,0.148-0.255,0.228-0.362C70.896,338.763,70.99,338.655,71.083,338.548z"/>
		</g>
		<g>
			<path fill="none" stroke="#000000" stroke-linecap="round" stroke-linejoin="round" d="M70.574,318.772
				c-0.04-0.081-0.067-0.147-0.107-0.228c-0.067-0.161-0.134-0.322-0.188-0.483c-0.053-0.175-0.094-0.362-0.134-0.537
				c-0.041-0.202-0.067-0.389-0.081-0.59c-0.026-0.202-0.026-0.403-0.026-0.604s0-0.402,0.026-0.617
				c0.014-0.188,0.041-0.389,0.081-0.577c0.04-0.174,0.081-0.362,0.134-0.537c0.054-0.161,0.121-0.335,0.188-0.483
				c0.04-0.081,0.067-0.148,0.107-0.229c0.067-0.121,0.148-0.241,0.228-0.362c0.094-0.121,0.188-0.229,0.282-0.335
				c0.013-0.014,0.027-0.014,0.027-0.027"/>
			<path fill="none" stroke="#000000" stroke-linecap="round" stroke-linejoin="round" d="M70.546,312.359
				c-0.026-0.054-0.054-0.107-0.08-0.147c-0.067-0.161-0.134-0.322-0.188-0.483c-0.053-0.188-0.094-0.362-0.134-0.55
				c-0.041-0.188-0.067-0.375-0.081-0.577c-0.026-0.202-0.026-0.403-0.026-0.617c0-0.201,0-0.403,0.026-0.604
				c0.014-0.201,0.041-0.389,0.081-0.577c0.04-0.188,0.081-0.362,0.134-0.55c0.054-0.161,0.121-0.322,0.188-0.483
				c0.04-0.067,0.067-0.147,0.107-0.215c0.067-0.134,0.148-0.255,0.228-0.375c0.094-0.107,0.188-0.228,0.282-0.322
				c0.013-0.014,0.027-0.027,0.027-0.041"/>
			<path fill="none" stroke="#000000" stroke-linecap="round" stroke-linejoin="round" d="M70.546,280.669
				c-0.026-0.054-0.054-0.107-0.08-0.147c-0.067-0.161-0.134-0.322-0.188-0.497c-0.053-0.174-0.094-0.349-0.134-0.537
				c-0.041-0.188-0.067-0.389-0.081-0.577c-0.026-0.201-0.026-0.416-0.026-0.617c0-0.202,0-0.403,0.026-0.604
				c0.014-0.201,0.041-0.389,0.081-0.59c0.04-0.174,0.081-0.362,0.134-0.537c0.054-0.161,0.121-0.322,0.188-0.483
				c0.04-0.081,0.067-0.147,0.107-0.215c0.067-0.134,0.148-0.255,0.228-0.375c0.094-0.121,0.188-0.228,0.282-0.335
				c0.013,0,0.027-0.013,0.027-0.027"/>
			<path fill="none" stroke="#000000" stroke-linecap="round" stroke-linejoin="round" d="M71.11,275.128c0,0,0.014,0,0.054,0
				c0.027,0,0.067,0,0.121,0c0.134,0,0.322,0,0.577,0s0.577,0,0.965,0c0.402,0,0.859,0,1.369,0c0.509,0,1.086,0,1.69,0
				c0.59,0,1.221,0,1.878,0c0.644,0,1.288,0,1.958,0c0.644,0,1.275,0,1.919,0c0.644,0,1.288,0,1.919,0c0.67,0,1.328,0,1.958,0
				c0.658,0,1.288,0,1.892,0s1.167,0,1.677,0c0.51,0,0.98,0,1.369,0c0.389,0,0.71,0,0.979,0c0.255,0,0.443,0,0.563,0
				c0.121,0,0.175,0,0.175,0"/>
			<path fill="none" stroke="#000000" stroke-linecap="round" stroke-linejoin="round" d="M71.11,281.475c0,0,0.014,0,0.054,0
				c0.027,0,0.067,0,0.121,0c0.134,0,0.322,0,0.577,0s0.577,0,0.965,0c0.402,0,0.859,0,1.369,0c0.509,0,1.086,0,1.69,0
				c0.59,0,1.221,0,1.878,0c0.644,0,1.288,0,1.958,0c0.644,0,1.275,0,1.919,0c0.644,0,1.288,0,1.919,0c0.67,0,1.328,0,1.958,0
				c0.658,0,1.288,0,1.892,0s1.167,0,1.677,0c0.51,0,0.98,0,1.369,0c0.389,0,0.71,0,0.979,0c0.255,0,0.443,0,0.563,0
				c0.121,0,0.175,0,0.175,0"/>
			<path fill="none" stroke="#000000" stroke-linecap="round" stroke-linejoin="round" d="M70.574,331.45
				c-0.04-0.08-0.067-0.147-0.107-0.228c-0.067-0.161-0.134-0.322-0.188-0.483c-0.053-0.174-0.094-0.362-0.134-0.537
				c-0.041-0.201-0.067-0.389-0.081-0.59c-0.026-0.201-0.026-0.402-0.026-0.604s0-0.416,0.026-0.617
				c0.014-0.188,0.041-0.389,0.081-0.577c0.04-0.188,0.081-0.362,0.134-0.537c0.054-0.174,0.121-0.335,0.188-0.483
				c0.04-0.081,0.067-0.147,0.107-0.228c0.067-0.121,0.148-0.242,0.228-0.362c0.094-0.121,0.188-0.228,0.282-0.335
				c0.013-0.013,0.027-0.027,0.027-0.027"/>
			<path fill="none" stroke="#000000" stroke-linecap="round" stroke-linejoin="round" d="M72.143,332.175c0.202,0,0.429,0,0.684,0
				c0.402,0,0.859,0,1.369,0c0.509,0,1.086,0,1.69,0c0.59,0,1.221,0,1.878,0c0.644,0,1.288,0,1.958,0c0.644,0,1.275,0,1.919,0
				c0.644,0,1.288,0,1.919,0c0.67,0,1.328,0,1.958,0c0.658,0,1.288,0,1.892,0s1.167,0,1.677,0c0.51,0,0.98,0,1.369,0
				c0.389,0,0.71,0,0.979,0c0.255,0,0.443,0,0.563,0c0.121,0,0.175,0,0.175,0"/>
			<path fill="none" stroke="#000000" stroke-linecap="round" stroke-linejoin="round" d="M72.143,319.497c0.202,0,0.429,0,0.684,0
				c0.402,0,0.859,0,1.369,0c0.509,0,1.086,0,1.69,0c0.59,0,1.221,0,1.878,0c0.644,0,1.288,0,1.958,0c0.644,0,1.275,0,1.919,0
				c0.644,0,1.288,0,1.919,0c0.67,0,1.328,0,1.958,0c0.658,0,1.288,0,1.892,0s1.167,0,1.677,0c0.51,0,0.98,0,1.369,0
				c0.389,0,0.71,0,0.979,0c0.255,0,0.443,0,0.563,0c0.121,0,0.175,0,0.175,0"/>
			<path fill="none" stroke="#000000" stroke-linecap="round" stroke-linejoin="round" d="M71.11,325.842c0,0,0.014,0,0.054,0
				c0.027,0,0.067,0,0.121,0c0.134,0,0.322,0,0.577,0s0.577,0,0.965,0c0.402,0,0.859,0,1.369,0c0.509,0,1.086,0,1.69,0
				c0.59,0,1.221,0,1.878,0c0.644,0,1.288,0,1.958,0c0.644,0,1.275,0,1.919,0c0.644,0,1.288,0,1.919,0c0.67,0,1.328,0,1.958,0
				c0.658,0,1.288,0,1.892,0s1.167,0,1.677,0c0.51,0,0.98,0,1.369,0c0.389,0,0.71,0,0.979,0c0.255,0,0.443,0,0.563,0
				c0.121,0,0.175,0,0.175,0"/>
			<path fill="none" stroke="#000000" stroke-linecap="round" stroke-linejoin="round" d="M70.574,293.415
				c-0.04-0.081-0.067-0.147-0.107-0.228c-0.067-0.148-0.134-0.309-0.188-0.483c-0.053-0.175-0.094-0.349-0.134-0.537
				c-0.041-0.188-0.067-0.389-0.081-0.577c-0.026-0.201-0.026-0.416-0.026-0.617s0-0.402,0.026-0.604
				c0.014-0.202,0.041-0.389,0.081-0.59c0.04-0.175,0.081-0.362,0.134-0.537c0.054-0.161,0.121-0.322,0.188-0.483
				c0.04-0.08,0.067-0.147,0.107-0.228c0.067-0.121,0.148-0.241,0.228-0.362c0.094-0.121,0.188-0.228,0.282-0.335
				c0.013-0.014,0.027-0.014,0.027-0.027"/>
			<path fill="none" stroke="#000000" stroke-linecap="round" stroke-linejoin="round" d="M70.546,287.002
				c-0.026-0.04-0.054-0.094-0.08-0.147c-0.067-0.161-0.134-0.322-0.188-0.483c-0.053-0.175-0.094-0.362-0.134-0.537
				c-0.041-0.202-0.067-0.389-0.081-0.59c-0.026-0.202-0.026-0.403-0.026-0.604s0-0.416,0.026-0.617
				c0.014-0.188,0.041-0.389,0.081-0.577c0.04-0.188,0.081-0.362,0.134-0.537c0.054-0.175,0.121-0.335,0.188-0.483
				c0.04-0.08,0.067-0.161,0.107-0.228c0.067-0.121,0.148-0.255,0.228-0.362c0.094-0.121,0.188-0.228,0.282-0.335
				c0.013-0.014,0.027-0.027,0.027-0.027"/>
			<path fill="none" stroke="#000000" stroke-linecap="round" stroke-linejoin="round" d="M71.11,294.14c0,0,0.014,0,0.054,0
				c0.027,0,0.067,0,0.121,0c0.134,0,0.322,0,0.577,0s0.577,0,0.965,0c0.402,0,0.859,0,1.369,0c0.509,0,1.086,0,1.69,0
				c0.59,0,1.221,0,1.878,0c0.644,0,1.288,0,1.958,0c0.644,0,1.275,0,1.919,0c0.644,0,1.288,0,1.919,0c0.67,0,1.328,0,1.958,0
				c0.658,0,1.288,0,1.892,0s1.167,0,1.677,0c0.51,0,0.98,0,1.369,0c0.389,0,0.71,0,0.979,0c0.255,0,0.443,0,0.563,0
				c0.121,0,0.175,0,0.175,0"/>
			<path fill="none" stroke="#000000" stroke-linecap="round" stroke-linejoin="round" d="M71.11,287.807c0,0,0.014,0,0.054,0
				c0.027,0,0.067,0,0.121,0c0.134,0,0.322,0,0.577,0s0.577,0,0.965,0c0.402,0,0.859,0,1.369,0c0.509,0,1.086,0,1.69,0
				c0.59,0,1.221,0,1.878,0c0.644,0,1.288,0,1.958,0c0.644,0,1.275,0,1.919,0c0.644,0,1.288,0,1.919,0c0.67,0,1.328,0,1.958,0
				c0.658,0,1.288,0,1.892,0s1.167,0,1.677,0c0.51,0,0.98,0,1.369,0c0.389,0,0.71,0,0.979,0c0.255,0,0.443,0,0.563,0
				c0.121,0,0.175,0,0.175,0"/>
			<path fill="none" stroke="#000000" stroke-linecap="round" stroke-linejoin="round" d="M71.11,300.485c0,0,0.014,0,0.054,0
				c0.027,0,0.067,0,0.121,0c0.134,0,0.322,0,0.577,0s0.577,0,0.965,0c0.402,0,0.859,0,1.369,0c0.509,0,1.086,0,1.69,0
				c0.59,0,1.221,0,1.878,0c0.644,0,1.288,0,1.958,0c0.644,0,1.275,0,1.919,0c0.644,0,1.288,0,1.919,0c0.67,0,1.328,0,1.958,0
				c0.658,0,1.288,0,1.892,0s1.167,0,1.677,0c0.51,0,0.98,0,1.369,0c0.389,0,0.71,0,0.979,0c0.255,0,0.443,0,0.563,0
				c0.121,0,0.175,0,0.175,0"/>
			<path fill="none" stroke="#000000" stroke-linecap="round" stroke-linejoin="round" d="M70.546,331.37
				c0.014,0.027,0.014,0.054,0.027,0.08c0.067,0.121,0.148,0.242,0.228,0.362c0.094,0.121,0.188,0.228,0.282,0.335
				c0.013,0,0.027,0.014,0.027,0.027"/>
			
				<line fill="none" stroke="#000000" stroke-linecap="round" stroke-linejoin="round" x1="72.143" y1="268.796" x2="72.143" y2="192.725"/>
			<path fill="none" stroke="#000000" stroke-linecap="round" stroke-linejoin="round" d="M70.546,280.669
				c0.014,0.013,0.014,0.04,0.027,0.067c0.067,0.121,0.148,0.255,0.228,0.362c0.094,0.121,0.188,0.228,0.282,0.335
				c0.013,0.014,0.027,0.027,0.027,0.041"/>
			<path fill="none" stroke="#000000" stroke-linecap="round" stroke-linejoin="round" d="M70.546,287.002
				c0.014,0.027,0.014,0.054,0.027,0.067c0.067,0.134,0.148,0.255,0.228,0.376c0.094,0.121,0.188,0.228,0.282,0.335
				c0.013,0,0.027,0.013,0.027,0.027"/>
			<path fill="none" stroke="#000000" stroke-linecap="round" stroke-linejoin="round" d="M70.546,293.334
				c0.014,0.027,0.014,0.054,0.027,0.081c0.067,0.121,0.148,0.255,0.228,0.362c0.094,0.121,0.188,0.228,0.282,0.335
				c0.013,0.013,0.027,0.027,0.027,0.027"/>
			<path fill="none" stroke="#000000" stroke-linecap="round" stroke-linejoin="round" d="M91.154,268.796c-0.201,0-0.442,0-0.697,0
				c-0.389,0-0.859,0-1.369,0c-0.509,0-1.073,0-1.677,0s-1.234,0-1.892,0c-0.631,0-1.288,0-1.958,0c-0.631,0-1.275,0-1.919,0
				c-0.644,0-1.275,0-1.919,0c-0.67,0-1.314,0-1.958,0c-0.658,0-1.288,0-1.878,0c-0.604,0-1.181,0-1.69,0c-0.51,0-0.967,0-1.369,0
				c-0.255,0-0.482,0-0.684,0"/>
			<path fill="none" stroke="#000000" stroke-linecap="round" stroke-linejoin="round" d="M72.143,268.796c-0.107,0-0.201,0-0.281,0
				c-0.255,0-0.443,0-0.577,0c-0.054,0-0.094,0-0.121,0c-0.04,0-0.054,0-0.054,0"/>
			<path fill="none" stroke="#000000" stroke-linecap="round" stroke-linejoin="round" d="M72.143,306.818c0.202,0,0.429,0,0.684,0
				c0.402,0,0.859,0,1.369,0c0.509,0,1.086,0,1.69,0c0.59,0,1.221,0,1.878,0c0.644,0,1.288,0,1.958,0c0.644,0,1.275,0,1.919,0
				c0.644,0,1.288,0,1.919,0c0.67,0,1.328,0,1.958,0c0.658,0,1.288,0,1.892,0s1.167,0,1.677,0c0.51,0,0.98,0,1.369,0
				c0.255,0,0.496,0,0.697,0"/>
			<path fill="none" stroke="#000000" stroke-linecap="round" stroke-linejoin="round" d="M71.11,313.164c0,0,0.014,0,0.054,0
				c0.027,0,0.067,0,0.121,0c0.134,0,0.322,0,0.577,0s0.577,0,0.965,0c0.402,0,0.859,0,1.369,0c0.509,0,1.086,0,1.69,0
				c0.59,0,1.221,0,1.878,0c0.644,0,1.288,0,1.958,0c0.644,0,1.275,0,1.919,0c0.644,0,1.288,0,1.919,0c0.67,0,1.328,0,1.958,0
				c0.658,0,1.288,0,1.892,0s1.167,0,1.677,0c0.51,0,0.98,0,1.369,0c0.389,0,0.71,0,0.979,0c0.255,0,0.443,0,0.563,0
				c0.121,0,0.175,0,0.175,0"/>
			<path fill="none" stroke="#000000" stroke-linecap="round" stroke-linejoin="round" d="M70.546,318.691
				c0.014,0.027,0.014,0.054,0.027,0.081c0.067,0.121,0.148,0.242,0.228,0.362c0.094,0.121,0.188,0.228,0.282,0.335
				c0.013,0.013,0.027,0.013,0.027,0.027"/>
			<path fill="none" stroke="#000000" stroke-linecap="round" stroke-linejoin="round" d="M91.154,306.818c0.094,0,0.201,0,0.282,0
				c0.255,0,0.443,0,0.563,0c0.121,0,0.175,0,0.175,0"/>
			<path fill="none" stroke="#000000" stroke-linecap="round" stroke-linejoin="round" d="M70.546,312.359
				c0.014,0.027,0.014,0.04,0.027,0.067c0.067,0.134,0.148,0.255,0.228,0.376c0.094,0.107,0.188,0.228,0.282,0.322
				c0.013,0.014,0.027,0.027,0.027,0.041"/>
			<path fill="none" stroke="#000000" stroke-linecap="round" stroke-linejoin="round" d="M92.174,313.164
				c0.013,0.013,0.026,0.013,0.026,0.027c0.107,0.107,0.202,0.214,0.282,0.335c0.08,0.121,0.16,0.241,0.228,0.362
				c0.04,0.081,0.081,0.148,0.107,0.229c0.081,0.147,0.134,0.322,0.188,0.483c0.053,0.174,0.107,0.362,0.134,0.537
				c0.04,0.188,0.067,0.389,0.094,0.577c0.013,0.215,0.027,0.416,0.027,0.617s-0.014,0.402-0.027,0.604
				c-0.027,0.201-0.054,0.389-0.094,0.59c-0.027,0.174-0.081,0.362-0.134,0.537c-0.054,0.161-0.107,0.322-0.188,0.483
				c-0.026,0.081-0.067,0.147-0.107,0.228c-0.068,0.121-0.148,0.242-0.228,0.362c-0.081,0.121-0.175,0.228-0.282,0.335
				c0,0.013-0.013,0.013-0.026,0.027"/>
			<path fill="none" stroke="#000000" stroke-linecap="round" stroke-linejoin="round" d="M92.174,306.818
				c0.013,0.014,0.026,0.027,0.026,0.041c0.107,0.094,0.202,0.214,0.282,0.322c0.08,0.121,0.16,0.242,0.228,0.375
				c0.04,0.067,0.081,0.148,0.107,0.215c0.081,0.161,0.134,0.322,0.188,0.483c0.053,0.188,0.107,0.362,0.134,0.55
				c0.04,0.188,0.067,0.375,0.094,0.577c0.013,0.201,0.027,0.403,0.027,0.604c0,0.214-0.014,0.416-0.027,0.617
				c-0.027,0.201-0.054,0.389-0.094,0.577c-0.027,0.188-0.081,0.362-0.134,0.55c-0.054,0.161-0.107,0.322-0.188,0.483
				c-0.026,0.067-0.067,0.147-0.107,0.214c-0.068,0.134-0.148,0.255-0.228,0.376c-0.081,0.107-0.175,0.228-0.282,0.322
				c0,0.014-0.013,0.027-0.026,0.041"/>
			<path fill="none" stroke="#000000" stroke-linecap="round" stroke-linejoin="round" d="M71.11,319.497c0,0,0.014,0,0.054,0
				c0.027,0,0.067,0,0.121,0c0.134,0,0.322,0,0.577,0c0.08,0,0.174,0,0.281,0"/>
			<path fill="none" stroke="#000000" stroke-linecap="round" stroke-linejoin="round" d="M71.11,306.818c0,0,0.014,0,0.054,0
				c0.027,0,0.067,0,0.121,0c0.134,0,0.322,0,0.577,0c0.08,0,0.174,0,0.281,0"/>
			<path fill="none" stroke="#000000" stroke-linecap="round" stroke-linejoin="round" d="M71.11,344.854c0,0,0.014,0,0.054,0
				c0.027,0,0.067,0,0.121,0c0.134,0,0.322,0,0.577,0s0.577,0,0.965,0c0.402,0,0.859,0,1.369,0c0.509,0,1.086,0,1.69,0
				c0.59,0,1.221,0,1.878,0c0.644,0,1.288,0,1.958,0c0.644,0,1.275,0,1.919,0c0.644,0,1.288,0,1.919,0c0.67,0,1.328,0,1.958,0
				c0.658,0,1.288,0,1.892,0s1.167,0,1.677,0c0.51,0,0.98,0,1.369,0c0.389,0,0.71,0,0.979,0c0.255,0,0.443,0,0.563,0
				c0.121,0,0.175,0,0.175,0"/>
			<path fill="none" stroke="#000000" stroke-linecap="round" stroke-linejoin="round" d="M71.11,338.521c0,0,0.014,0,0.054,0
				c0.027,0,0.067,0,0.121,0c0.134,0,0.322,0,0.577,0s0.577,0,0.965,0c0.402,0,0.859,0,1.369,0c0.509,0,1.086,0,1.69,0
				c0.59,0,1.221,0,1.878,0c0.644,0,1.288,0,1.958,0c0.644,0,1.275,0,1.919,0c0.644,0,1.288,0,1.919,0c0.67,0,1.328,0,1.958,0
				c0.658,0,1.288,0,1.892,0s1.167,0,1.677,0c0.51,0,0.98,0,1.369,0c0.389,0,0.71,0,0.979,0c0.255,0,0.443,0,0.563,0
				c0.121,0,0.175,0,0.175,0"/>
			<path fill="none" stroke="#000000" stroke-linecap="round" stroke-linejoin="round" d="M72.143,192.725c0.014,0,0.014,0,0.027,0
				c0.04,0,0.067,0,0.107,0c0.133,0,0.281,0,0.429,0c0.604,0,1.208,0,1.811,0c0.792,0,1.583,0,2.375,0c1.583,0,3.166,0,4.749,0
				s3.167,0,4.763,0c0.791,0,1.583,0,2.375,0c0.604,0,1.208,0,1.811,0c0.135,0,0.282,0,0.43,0c0.027,0,0.067,0,0.094,0
				c0.013,0,0.027,0,0.027,0c0.013,0,0.013,0,0.013,0"/>
			
				<line fill="none" stroke="#000000" stroke-linecap="round" stroke-linejoin="round" x1="91.154" y1="192.725" x2="91.154" y2="268.796"/>
			<path fill="none" stroke="#000000" stroke-linecap="round" stroke-linejoin="round" d="M92.174,338.521
				c0.013,0,0.026,0.013,0.026,0.027c0.107,0.107,0.202,0.215,0.282,0.335c0.08,0.107,0.16,0.241,0.228,0.362
				c0.04,0.067,0.081,0.148,0.107,0.229c0.081,0.147,0.134,0.309,0.188,0.483c0.053,0.174,0.107,0.349,0.134,0.537
				c0.04,0.188,0.067,0.389,0.094,0.577c0.013,0.201,0.027,0.416,0.027,0.617s-0.014,0.403-0.027,0.604
				c-0.027,0.201-0.054,0.389-0.094,0.59c-0.027,0.174-0.081,0.362-0.134,0.537c-0.054,0.161-0.107,0.322-0.188,0.483
				c-0.026,0.081-0.067,0.147-0.107,0.215c-0.068,0.134-0.148,0.255-0.228,0.375c-0.081,0.121-0.175,0.228-0.282,0.335
				c0,0-0.013,0.013-0.026,0.027"/>
			<path fill="none" stroke="#000000" stroke-linecap="round" stroke-linejoin="round" d="M71.11,344.854
				c0-0.014-0.014-0.027-0.027-0.027c-0.094-0.107-0.188-0.215-0.282-0.335c-0.08-0.12-0.161-0.242-0.228-0.375
				c-0.04-0.067-0.067-0.134-0.107-0.215c-0.067-0.161-0.134-0.322-0.188-0.483c-0.053-0.174-0.094-0.362-0.134-0.537
				c-0.041-0.201-0.067-0.389-0.081-0.59c-0.026-0.201-0.026-0.403-0.026-0.604s0-0.416,0.026-0.617
				c0.014-0.188,0.041-0.389,0.081-0.577c0.04-0.188,0.081-0.362,0.134-0.537c0.054-0.174,0.121-0.335,0.188-0.483
				c0.04-0.081,0.067-0.161,0.107-0.229c0.067-0.121,0.148-0.255,0.228-0.362c0.094-0.121,0.188-0.228,0.282-0.335
				c0.013-0.014,0.027-0.027,0.027-0.027"/>
			<path fill="none" stroke="#000000" stroke-linecap="round" stroke-linejoin="round" d="M92.174,332.175
				c0.013,0.014,0.026,0.027,0.026,0.027c0.107,0.107,0.202,0.215,0.282,0.335c0.08,0.121,0.16,0.242,0.228,0.375
				c0.04,0.067,0.081,0.134,0.107,0.215c0.081,0.161,0.134,0.322,0.188,0.483c0.053,0.174,0.107,0.362,0.134,0.537
				c0.04,0.201,0.067,0.389,0.094,0.59c0.013,0.201,0.027,0.403,0.027,0.604c0,0.214-0.014,0.416-0.027,0.617
				c-0.027,0.188-0.054,0.389-0.094,0.577c-0.027,0.188-0.081,0.362-0.134,0.537c-0.054,0.174-0.107,0.335-0.188,0.483
				c-0.026,0.081-0.067,0.161-0.107,0.229c-0.068,0.121-0.148,0.255-0.228,0.362c-0.081,0.121-0.175,0.228-0.282,0.335
				c0,0.014-0.013,0.027-0.026,0.041"/>
			<path fill="none" stroke="#000000" stroke-linecap="round" stroke-linejoin="round" d="M71.11,338.521
				c0-0.014-0.014-0.027-0.027-0.041c-0.094-0.107-0.188-0.214-0.282-0.335c-0.08-0.107-0.161-0.241-0.228-0.362
				c-0.04-0.067-0.067-0.148-0.107-0.229c-0.067-0.147-0.134-0.309-0.188-0.483c-0.053-0.174-0.094-0.349-0.134-0.537
				c-0.041-0.188-0.067-0.389-0.081-0.577c-0.026-0.201-0.026-0.403-0.026-0.617c0-0.201,0-0.403,0.026-0.604
				c0.014-0.201,0.041-0.389,0.081-0.59c0.04-0.174,0.081-0.362,0.134-0.537c0.054-0.161,0.121-0.322,0.188-0.483
				c0.04-0.081,0.067-0.147,0.107-0.215c0.067-0.134,0.148-0.255,0.228-0.375c0.094-0.121,0.188-0.228,0.282-0.335
				c0.013,0,0.027-0.013,0.027-0.027"/>
			<path fill="none" stroke="#000000" stroke-linecap="round" stroke-linejoin="round" d="M71.11,332.175c0,0,0.014,0,0.054,0
				c0.027,0,0.067,0,0.121,0c0.134,0,0.322,0,0.577,0c0.08,0,0.174,0,0.281,0"/>
			<path fill="none" stroke="#000000" stroke-linecap="round" stroke-linejoin="round" d="M92.174,268.796
				c0.013,0,0.026,0.013,0.026,0.027c0.107,0.107,0.202,0.215,0.282,0.335c0.08,0.121,0.16,0.241,0.228,0.362
				c0.04,0.081,0.081,0.147,0.107,0.228c0.081,0.147,0.134,0.309,0.188,0.483c0.053,0.174,0.107,0.349,0.134,0.537
				c0.04,0.188,0.067,0.389,0.094,0.577c0.013,0.201,0.027,0.416,0.027,0.617c0,0.201-0.014,0.402-0.027,0.604
				c-0.027,0.201-0.054,0.389-0.094,0.59c-0.027,0.174-0.081,0.362-0.134,0.537c-0.054,0.161-0.107,0.322-0.188,0.483
				c-0.026,0.081-0.067,0.147-0.107,0.229c-0.068,0.121-0.148,0.241-0.228,0.362c-0.081,0.121-0.175,0.228-0.282,0.335
				c0,0-0.013,0.014-0.026,0.027"/>
			<path fill="none" stroke="#000000" stroke-linecap="round" stroke-linejoin="round" d="M71.11,275.128
				c0-0.013-0.014-0.027-0.027-0.027c-0.094-0.107-0.188-0.215-0.282-0.335c-0.08-0.121-0.161-0.241-0.228-0.362
				c-0.04-0.081-0.067-0.148-0.107-0.229c-0.067-0.161-0.134-0.322-0.188-0.483c-0.053-0.174-0.094-0.362-0.134-0.537
				c-0.041-0.201-0.067-0.389-0.081-0.59c-0.026-0.201-0.026-0.402-0.026-0.604c0-0.202,0-0.416,0.026-0.617
				c0.014-0.188,0.041-0.389,0.081-0.577c0.04-0.188,0.081-0.362,0.134-0.537c0.054-0.174,0.121-0.335,0.188-0.483
				c0.04-0.081,0.067-0.147,0.107-0.228c0.067-0.121,0.148-0.242,0.228-0.362c0.094-0.121,0.188-0.228,0.282-0.335
				c0.013-0.014,0.027-0.027,0.027-0.027"/>
			<path fill="none" stroke="#000000" stroke-linecap="round" stroke-linejoin="round" d="M92.174,275.128
				c0.013,0.014,0.026,0.027,0.026,0.027c0.107,0.107,0.202,0.215,0.282,0.335c0.08,0.121,0.16,0.242,0.228,0.375
				c0.04,0.067,0.081,0.134,0.107,0.215c0.081,0.161,0.134,0.322,0.188,0.483c0.053,0.174,0.107,0.362,0.134,0.537
				c0.04,0.201,0.067,0.389,0.094,0.59c0.013,0.201,0.027,0.402,0.027,0.604c0,0.201-0.014,0.416-0.027,0.617
				c-0.027,0.188-0.054,0.389-0.094,0.577c-0.027,0.188-0.081,0.362-0.134,0.537c-0.054,0.174-0.107,0.335-0.188,0.497
				c-0.026,0.067-0.067,0.147-0.107,0.214c-0.068,0.121-0.148,0.255-0.228,0.362c-0.081,0.121-0.175,0.228-0.282,0.335
				c0,0.014-0.013,0.027-0.026,0.041"/>
			<path fill="none" stroke="#000000" stroke-linecap="round" stroke-linejoin="round" d="M92.174,268.796c0,0-0.054,0-0.175,0
				c-0.121,0-0.309,0-0.563,0c-0.081,0-0.188,0-0.282,0"/>
			<path fill="none" stroke="#000000" stroke-linecap="round" stroke-linejoin="round" d="M92.174,325.842
				c0.013,0,0.026,0.014,0.026,0.027c0.107,0.107,0.202,0.215,0.282,0.335c0.08,0.121,0.16,0.242,0.228,0.362
				c0.04,0.081,0.081,0.147,0.107,0.228c0.081,0.147,0.134,0.309,0.188,0.483c0.053,0.174,0.107,0.349,0.134,0.537
				c0.04,0.188,0.067,0.389,0.094,0.577c0.013,0.201,0.027,0.416,0.027,0.617s-0.014,0.402-0.027,0.604
				c-0.027,0.201-0.054,0.389-0.094,0.59c-0.027,0.174-0.081,0.362-0.134,0.537c-0.054,0.161-0.107,0.322-0.188,0.483
				c-0.026,0.081-0.067,0.148-0.107,0.228c-0.068,0.121-0.148,0.242-0.228,0.362c-0.081,0.121-0.175,0.228-0.282,0.335
				c0,0-0.013,0.014-0.026,0.027"/>
			<path fill="none" stroke="#000000" stroke-linecap="round" stroke-linejoin="round" d="M92.174,319.497
				c0.013,0.013,0.026,0.027,0.026,0.027c0.107,0.107,0.202,0.228,0.282,0.335c0.08,0.121,0.16,0.241,0.228,0.375
				c0.04,0.067,0.081,0.147,0.107,0.215c0.081,0.161,0.134,0.322,0.188,0.483c0.053,0.188,0.107,0.362,0.134,0.55
				c0.04,0.188,0.067,0.376,0.094,0.577c0.013,0.201,0.027,0.402,0.027,0.604c0,0.215-0.014,0.416-0.027,0.617
				c-0.027,0.188-0.054,0.389-0.094,0.577c-0.027,0.188-0.081,0.362-0.134,0.537c-0.054,0.174-0.107,0.336-0.188,0.496
				c-0.026,0.067-0.067,0.148-0.107,0.215c-0.068,0.134-0.148,0.255-0.228,0.375c-0.081,0.108-0.175,0.228-0.282,0.322
				c0,0.013-0.013,0.027-0.026,0.04"/>
			<path fill="none" stroke="#000000" stroke-linecap="round" stroke-linejoin="round" d="M71.11,325.842
				c0-0.013-0.014-0.027-0.027-0.04c-0.094-0.094-0.188-0.214-0.282-0.322c-0.08-0.121-0.161-0.241-0.228-0.375
				c-0.04-0.067-0.067-0.147-0.107-0.215c-0.067-0.16-0.134-0.322-0.188-0.496c-0.053-0.174-0.094-0.349-0.134-0.537
				c-0.041-0.188-0.067-0.389-0.081-0.577c-0.026-0.201-0.026-0.402-0.026-0.617c0-0.201,0-0.402,0.026-0.604
				c0.014-0.201,0.041-0.389,0.081-0.577c0.04-0.188,0.081-0.362,0.134-0.55c0.054-0.161,0.121-0.322,0.188-0.483
				c0.04-0.067,0.067-0.148,0.107-0.215c0.067-0.134,0.148-0.255,0.228-0.375c0.094-0.107,0.188-0.229,0.282-0.335
				c0.013,0,0.027-0.014,0.027-0.027"/>
			<path fill="none" stroke="#000000" stroke-linecap="round" stroke-linejoin="round" d="M92.174,287.807
				c0.013,0.013,0.026,0.013,0.026,0.027c0.107,0.107,0.202,0.214,0.282,0.335c0.08,0.121,0.16,0.242,0.228,0.362
				c0.04,0.081,0.081,0.148,0.107,0.228c0.081,0.161,0.134,0.322,0.188,0.483c0.053,0.174,0.107,0.362,0.134,0.537
				c0.04,0.201,0.067,0.389,0.094,0.59c0.013,0.201,0.027,0.402,0.027,0.604s-0.014,0.416-0.027,0.617
				c-0.027,0.188-0.054,0.389-0.094,0.577c-0.027,0.188-0.081,0.362-0.134,0.537c-0.054,0.174-0.107,0.335-0.188,0.483
				c-0.026,0.08-0.067,0.147-0.107,0.228c-0.068,0.121-0.148,0.255-0.228,0.362c-0.081,0.121-0.175,0.228-0.282,0.335
				c0,0.013-0.013,0.027-0.026,0.027"/>
			<path fill="none" stroke="#000000" stroke-linecap="round" stroke-linejoin="round" d="M92.174,281.475
				c0.013,0,0.026,0.013,0.026,0.027c0.107,0.107,0.202,0.214,0.282,0.335c0.08,0.107,0.16,0.242,0.228,0.362
				c0.04,0.067,0.081,0.148,0.107,0.228c0.081,0.148,0.134,0.309,0.188,0.483c0.053,0.174,0.107,0.349,0.134,0.537
				c0.04,0.188,0.067,0.389,0.094,0.577c0.013,0.201,0.027,0.416,0.027,0.617s-0.014,0.402-0.027,0.604
				c-0.027,0.202-0.054,0.389-0.094,0.59c-0.027,0.174-0.081,0.362-0.134,0.537c-0.054,0.161-0.107,0.322-0.188,0.483
				c-0.026,0.081-0.067,0.147-0.107,0.214c-0.068,0.134-0.148,0.255-0.228,0.376c-0.081,0.121-0.175,0.228-0.282,0.335
				c0,0-0.013,0.013-0.026,0.027"/>
			<path fill="none" stroke="#000000" stroke-linecap="round" stroke-linejoin="round" d="M92.174,300.485
				c0.013,0.014,0.026,0.014,0.026,0.027c0.107,0.107,0.202,0.214,0.282,0.335c0.08,0.121,0.16,0.242,0.228,0.362
				c0.04,0.081,0.081,0.147,0.107,0.228c0.081,0.161,0.134,0.322,0.188,0.483c0.053,0.174,0.107,0.362,0.134,0.537
				c0.04,0.201,0.067,0.389,0.094,0.59c0.013,0.201,0.027,0.402,0.027,0.604c0,0.201-0.014,0.402-0.027,0.617
				c-0.027,0.188-0.054,0.389-0.094,0.577c-0.027,0.188-0.081,0.362-0.134,0.537c-0.054,0.161-0.107,0.335-0.188,0.483
				c-0.026,0.081-0.067,0.148-0.107,0.228c-0.068,0.121-0.148,0.242-0.228,0.362c-0.081,0.121-0.175,0.228-0.282,0.335
				c0,0.014-0.013,0.027-0.026,0.027"/>
			<path fill="none" stroke="#000000" stroke-linecap="round" stroke-linejoin="round" d="M71.11,306.818
				c0,0-0.014-0.013-0.027-0.027c-0.094-0.107-0.188-0.214-0.282-0.335c-0.08-0.121-0.161-0.241-0.228-0.362
				c-0.04-0.08-0.067-0.147-0.107-0.228c-0.067-0.147-0.134-0.322-0.188-0.483c-0.053-0.174-0.094-0.349-0.134-0.537
				c-0.041-0.188-0.067-0.389-0.081-0.577c-0.026-0.215-0.026-0.416-0.026-0.617c0-0.202,0-0.403,0.026-0.604
				c0.014-0.201,0.041-0.389,0.081-0.59c0.04-0.174,0.081-0.362,0.134-0.537c0.054-0.161,0.121-0.322,0.188-0.483
				c0.04-0.081,0.067-0.147,0.107-0.228c0.067-0.121,0.148-0.242,0.228-0.362c0.094-0.121,0.188-0.228,0.282-0.335
				c0.013-0.014,0.027-0.014,0.027-0.027"/>
			<path fill="none" stroke="#000000" stroke-linecap="round" stroke-linejoin="round" d="M92.174,294.14
				c0.013,0.013,0.026,0.027,0.026,0.04c0.107,0.094,0.202,0.215,0.282,0.335c0.08,0.107,0.16,0.242,0.228,0.362
				c0.04,0.067,0.081,0.147,0.107,0.214c0.081,0.161,0.134,0.322,0.188,0.497c0.053,0.174,0.107,0.349,0.134,0.537
				c0.04,0.188,0.067,0.389,0.094,0.577c0.013,0.201,0.027,0.402,0.027,0.617c0,0.201-0.014,0.402-0.027,0.604
				c-0.027,0.201-0.054,0.389-0.094,0.577c-0.027,0.188-0.081,0.362-0.134,0.55c-0.054,0.161-0.107,0.322-0.188,0.483
				c-0.026,0.067-0.067,0.148-0.107,0.215c-0.068,0.134-0.148,0.255-0.228,0.375c-0.081,0.107-0.175,0.228-0.282,0.335
				c0,0-0.013,0.014-0.026,0.027"/>
			<path fill="none" stroke="#000000" stroke-linecap="round" stroke-linejoin="round" d="M71.11,300.485
				c0-0.013-0.014-0.027-0.027-0.027c-0.094-0.107-0.188-0.228-0.282-0.335c-0.08-0.121-0.161-0.241-0.228-0.375
				c-0.04-0.067-0.067-0.147-0.107-0.215c-0.067-0.161-0.134-0.322-0.188-0.483c-0.053-0.188-0.094-0.362-0.134-0.55
				c-0.041-0.188-0.067-0.376-0.081-0.577c-0.026-0.201-0.026-0.402-0.026-0.604c0-0.215,0-0.416,0.026-0.617
				c0.014-0.188,0.041-0.389,0.081-0.577c0.04-0.188,0.081-0.362,0.134-0.537c0.054-0.174,0.121-0.335,0.188-0.497
				c0.04-0.067,0.067-0.147,0.107-0.214c0.067-0.121,0.148-0.255,0.228-0.362c0.094-0.121,0.188-0.242,0.282-0.335
				c0.013-0.013,0.027-0.027,0.027-0.04"/>
		</g>
	</g>
</g>
</svg>
