<?xml version="1.0" encoding="utf-8"?>
<!-- Generator: Adobe Illustrator 16.0.0, SVG Export Plug-In . SVG Version: 6.00 Build 0)  -->
<!DOCTYPE svg PUBLIC "-//W3C//DTD SVG 1.1//EN" "http://www.w3.org/Graphics/SVG/1.1/DTD/svg11.dtd">
<svg version="1.1" id="Layer_2" xmlns="http://www.w3.org/2000/svg" xmlns:xlink="http://www.w3.org/1999/xlink" x="0px" y="0px"
	 width="117.069px" height="142.964px" viewBox="377.224 501.965 117.069 142.964"
	 enable-background="new 377.224 501.965 117.069 142.964" xml:space="preserve">
<g>
	<g id="XMLID_1_">
		<g>
			<polygon fill="#FFFFFF" points="489.424,547.028 489.504,585.619 485.734,585.619 485.734,547.028 			"/>
			<polygon fill="#FFFFFF" points="489.424,591.449 489.424,640.148 474.984,640.148 474.614,635.938 484.325,635.938 
				484.325,597.729 465.234,597.729 465.234,591.449 			"/>
			<rect x="481.974" y="547.028" fill="#FFFFFF" width="3.76" height="38.591"/>
			<rect x="388.484" y="599.028" fill="#FFFFFF" width="94.551" height="35.61"/>
			<rect x="478.213" y="547.028" fill="#FFFFFF" width="3.761" height="38.591"/>
			<rect x="474.444" y="547.028" fill="#FFFFFF" width="3.77" height="38.591"/>
			<polygon fill="#FFFFFF" points="475.094,528.349 475.134,520.259 477.563,524.339 			"/>
			<path fill="#FFFFFF" d="M475.634,517.539c1.259,2.05,1.929,4.399,1.929,6.8L475.634,517.539z"/>
			<path fill="#FFFFFF" d="M475.634,531.148l1.929-6.81C477.563,526.749,476.893,529.108,475.634,531.148z"/>
			<polygon fill="#FFFFFF" points="475.634,517.539 477.563,524.339 475.134,520.259 			"/>
			<polygon fill="#FFFFFF" points="477.563,524.339 475.634,531.148 475.094,528.349 			"/>
			<polygon fill="#FFFFFF" points="475.634,517.539 475.134,520.259 471.094,513.869 			"/>
			<polygon fill="#FFFFFF" points="475.094,528.349 475.634,531.148 471.094,534.818 			"/>
			<polygon fill="#FFFFFF" points="471.094,513.869 475.134,520.259 468.614,517.869 			"/>
			<polygon fill="#FFFFFF" points="475.134,520.259 475.094,528.349 471.424,524.339 			"/>
			<polygon fill="#FFFFFF" points="475.134,520.259 471.424,524.339 468.614,517.869 			"/>
			<polygon fill="#FFFFFF" points="471.424,524.339 475.094,528.349 468.614,530.818 			"/>
			<polygon fill="#FFFFFF" points="475.094,528.349 471.094,534.818 468.614,530.818 			"/>
			<path fill="#FFFFFF" d="M475.094,641.449l0.28,3.229c-0.65,0-1.29,0-1.94,0l-0.52-3.229l-0.21-1.301l-0.681-4.21h2.59l0.37,4.21
				L475.094,641.449z"/>
			<rect x="470.665" y="547.028" fill="#FFFFFF" width="3.779" height="38.591"/>
			<path fill="#FFFFFF" d="M472.915,641.449l0.52,3.229c-6.01,0-12.02,0-18.03,0c-3.511,0-7.029,0-10.55,0c-0.439,0-0.88,0-1.319,0
				c-0.11,0-0.222,0-0.33,0c-0.03,0-0.051,0-0.08,0c-0.011,0-0.03,0-0.04,0s-0.021,0-0.03,0c-0.011,0-0.011,0-0.011,0
				c0-0.05,0-0.11,0-0.16c0-0.22,0-0.439,0-0.67c0-0.87,0-1.75,0-2.63c0-1.76,0-3.52,0-5.28h3.15v5.511H472.915z"/>
			<polygon fill="#FFFFFF" points="472.024,635.938 472.705,640.148 465.234,640.148 465.234,635.938 			"/>
			<polygon fill="#FFFFFF" points="468.614,517.869 471.424,524.339 464.614,524.339 			"/>
			<polygon fill="#FFFFFF" points="471.424,524.339 468.614,530.818 464.614,524.339 			"/>
			<polygon fill="#FFFFFF" points="471.094,513.869 468.614,517.869 464.614,513.329 			"/>
			<polygon fill="#FFFFFF" points="468.614,530.818 471.094,534.818 464.614,535.358 			"/>
			<rect x="466.904" y="547.028" fill="#FFFFFF" width="3.761" height="38.591"/>
			<polygon fill="#FFFFFF" points="464.614,513.329 468.614,517.869 460.614,517.869 			"/>
			<polygon fill="#FFFFFF" points="468.614,517.869 464.614,524.339 460.614,517.869 			"/>
			<polygon fill="#FFFFFF" points="464.614,524.339 468.614,530.818 460.614,530.818 			"/>
			<polygon fill="#FFFFFF" points="468.614,530.818 464.614,535.358 460.614,530.818 			"/>
			<rect x="463.144" y="547.028" fill="#FFFFFF" width="3.76" height="38.591"/>
			<path fill="#FFFFFF" d="M464.614,537.299l6.48-2.48l4.54-3.67C473.274,534.969,469.104,537.299,464.614,537.299z"/>
			<path fill="#FFFFFF" d="M464.614,511.389c4.49,0,8.66,2.33,11.021,6.15l-4.54-3.67L464.614,511.389z"/>
			<polygon fill="#FFFFFF" points="464.614,511.389 471.094,513.869 464.614,513.329 			"/>
			<polygon fill="#FFFFFF" points="471.094,534.818 464.614,537.299 464.614,535.358 			"/>
			<rect x="447.495" y="635.938" fill="#FFFFFF" width="17.739" height="4.21"/>
			<path fill="#FFFFFF" d="M465.234,591.449v6.279h-16.659c0.289-0.39,0.329-0.91,0.1-1.35c-0.211-0.42-0.66-0.7-1.15-0.7
				c-0.48,0-0.93,0.28-1.149,0.7c-0.221,0.439-0.181,0.96,0.1,1.35h-5.42v-6.279H465.234z"/>
			<polygon fill="#FFFFFF" points="458.134,513.869 464.614,511.389 464.614,513.329 			"/>
			<polygon fill="#FFFFFF" points="464.614,513.329 460.614,517.869 458.134,513.869 			"/>
			<polygon fill="#FFFFFF" points="460.614,517.869 464.614,524.339 457.804,524.339 			"/>
			<polygon fill="#FFFFFF" points="464.614,524.339 460.614,530.818 457.804,524.339 			"/>
			<polygon fill="#FFFFFF" points="460.614,530.818 464.614,535.358 458.134,534.818 			"/>
			<polygon fill="#FFFFFF" points="464.614,535.358 464.614,537.299 458.134,534.818 			"/>
			<rect x="459.375" y="547.028" fill="#FFFFFF" width="3.77" height="38.591"/>
			<polygon fill="#FFFFFF" points="458.134,513.869 460.614,517.869 454.134,520.349 			"/>
			<polygon fill="#FFFFFF" points="460.614,517.869 457.804,524.339 454.134,520.349 			"/>
			<polygon fill="#FFFFFF" points="457.804,524.339 460.614,530.818 454.134,528.349 			"/>
			<polygon fill="#FFFFFF" points="460.614,530.818 458.134,534.818 454.134,528.349 			"/>
			<rect x="455.604" y="547.028" fill="#FFFFFF" width="3.771" height="38.591"/>
			<polygon fill="#FFFFFF" points="458.134,513.869 454.134,520.349 453.594,517.539 			"/>
			<polygon fill="#FFFFFF" points="454.134,528.349 458.134,534.818 453.594,531.148 			"/>
			<path fill="#FFFFFF" d="M458.134,513.869l-4.54,3.67c2.36-3.82,6.53-6.15,11.02-6.15L458.134,513.869z"/>
			<path fill="#FFFFFF" d="M458.134,534.818l6.479,2.48c-4.489,0-8.659-2.33-11.02-6.15L458.134,534.818z"/>
			<polygon fill="#FFFFFF" points="454.134,520.349 457.804,524.339 454.134,528.349 			"/>
			<rect x="451.834" y="547.028" fill="#FFFFFF" width="3.77" height="38.591"/>
			<polygon fill="#FFFFFF" points="454.134,520.349 454.134,528.349 451.665,524.339 			"/>
			<polygon fill="#FFFFFF" points="451.665,524.339 453.594,517.539 454.134,520.349 			"/>
			<polygon fill="#FFFFFF" points="453.594,531.148 451.665,524.339 454.134,528.349 			"/>
			<path fill="#FFFFFF" d="M451.665,524.339c0-2.36,0.64-4.72,1.93-6.8L451.665,524.339z"/>
			<path fill="#FFFFFF" d="M451.665,524.339l1.93,6.81C452.304,529.059,451.665,526.699,451.665,524.339z"/>
			<rect x="448.075" y="547.028" fill="#FFFFFF" width="3.76" height="38.591"/>
			<path fill="#FFFFFF" d="M453.594,531.148c2.36,3.82,6.53,6.15,11.02,6.15c4.49,0,8.66-2.33,11.021-6.15
				c1.259-2.04,1.929-4.399,1.929-6.81c0-2.4-0.67-4.75-1.929-6.8c-2.36-3.82-6.53-6.15-11.021-6.15c-4.489,0-8.659,2.33-11.02,6.15
				c-1.29,2.08-1.93,4.439-1.93,6.8S452.304,529.059,453.594,531.148z M454.543,514.269c1.371-1.38,3.02-2.46,4.82-3.17
				c1.68-0.66,3.449-1,5.25-1s3.57,0.34,5.24,1c1.811,0.71,3.459,1.79,4.84,3.17c1.369,1.38,2.45,3.021,3.16,4.83
				c0.66,1.67,1,3.45,1,5.24c0,1.8-0.34,3.58-1,5.25c-0.71,1.81-1.791,3.45-3.17,4.83c-1.371,1.38-3.02,2.46-4.83,3.18
				c-1.67,0.65-3.439,0.99-5.24,0.99s-3.57-0.34-5.25-0.99c-1.801-0.729-3.449-1.8-4.82-3.18c-1.379-1.38-2.459-3.021-3.169-4.83
				c-0.661-1.67-1-3.45-1-5.25c0-1.79,0.339-3.57,1-5.24C452.084,517.289,453.165,515.648,454.543,514.269z"/>
			<rect x="444.304" y="547.028" fill="#FFFFFF" width="3.771" height="38.591"/>
			<polygon fill="#FFFFFF" points="447.495,640.148 465.234,640.148 472.705,640.148 472.915,641.449 446.194,641.449 
				446.194,635.938 447.495,635.938 			"/>
			<path fill="#FFFFFF" d="M447.684,597.229c0,0.17,0,0.34,0,0.5h-0.32c0-0.16,0-0.33,0-0.5c0-0.09,0-0.17,0-0.26
				c0-0.08,0.07-0.15,0.16-0.15s0.16,0.07,0.16,0.15C447.694,597.059,447.684,597.139,447.684,597.229z"/>
			<path fill="#FFFFFF" d="M447.684,597.729c0-0.16,0-0.33,0-0.5c0-0.09,0.01-0.17,0-0.26c0-0.08-0.07-0.15-0.16-0.15
				s-0.16,0.07-0.16,0.15c0,0.09,0,0.17,0,0.26c0,0.17,0,0.34,0,0.5h-0.89c-0.28-0.39-0.32-0.91-0.1-1.35
				c0.22-0.42,0.669-0.7,1.149-0.7c0.49,0,0.939,0.28,1.15,0.7c0.229,0.439,0.189,0.96-0.1,1.35H447.684z"/>
			<rect x="440.543" y="547.028" fill="#FFFFFF" width="3.761" height="38.591"/>
			<path fill="#FFFFFF" d="M443.054,502.219c0.009,0,0.03,0,0.04,0c0.03,0,0.06,0,0.09,0c1.771,0,3.55,0,5.32,0
				c3.559,0,7.109,0,10.66,0c0.109,0,0.22,0,0.33,0c0.02,0,0.06,0,0.08,0c0.029,0,0.06,0,0.079,0c0.06,0,0.101,0.01,0.15,0.01
				c0.21,0.021,0.409,0.04,0.62,0.061c0.41,0.04,0.82,0.08,1.229,0.14c0.83,0.11,1.659,0.25,2.48,0.41
				c1.71,0.34,3.37,0.79,5.02,1.37c6.81,2.37,12.78,6.68,17.19,12.38c2.18,2.82,3.95,5.939,5.24,9.26
				c1.229,3.13,2.02,6.41,2.37,9.76c0.009,0.2,0.029,0.41,0.05,0.61c0.01,0.1,0.02,0.2,0.03,0.3c0,0.021,0.009,0.141,0.009,0.16
				c0,0.05,0,0.1,0,0.16c0,0.439,0,0.88,0,1.32c0,0.88,0,1.76,0,2.64c0,1.77,0,3.53,0,5.29c0,3.53,0,7.05,0,10.57
				c0,7.05,0,14.09,0,21.149c0,14.061,0,28.13,0,42.2c0,7.04,0,14.07,0,21.1c0,0.891,0,1.761,0,2.641c0,0.22,0,0.439,0,0.66
				c0,0.06,0,0.109,0,0.159c0,0.03,0,0.061,0,0.091c0,0,0,0.01,0,0.02c-0.009,0-0.009,0-0.02,0c-0.01,0-0.029,0-0.04,0
				c-0.109,0-0.22,0-0.33,0c-0.44,0-0.88,0-1.319,0c-1.76,0-3.521,0-5.271,0c-3.52,0-7.039,0-10.559,0c-0.38,0-0.75,0-1.13,0
				l-0.28-3.229h15.63v-51.29h-50.97v7.569h-6.15c-1.6-3.13-3.2-6.26-4.8-9.39c-0.1-0.2-0.2-0.39-0.3-0.58
				c-0.01-0.021-0.01-0.03-0.021-0.04c-0.01-0.01-0.01-0.02-0.01-0.02c0-0.011,0-0.011,0-0.011c0-0.01,0-0.01,0-0.01
				c0-0.03,0-0.06,0-0.08c0-0.06,0-0.11,0-0.17c0-0.11,0-0.22,0-0.33c0-0.439,0-0.88,0-1.32c0-0.88,0-1.75,0-2.64
				c0-1.76,0-3.51,0-5.27c0-3.521,0-7.03,0-10.561c0-1.75,0-3.51,0-5.27c0-0.88,0-1.761,0-2.641c0-0.05,0-0.109,0-0.17
				c0,0,0,0,0-0.01s0-0.01,0-0.01v-0.01c0.01-0.011,0.021-0.03,0.021-0.04c0.02-0.021,0.029-0.051,0.04-0.07
				c0.05-0.101,0.1-0.2,0.149-0.3c0.101-0.19,0.2-0.391,0.3-0.58c0.2-0.391,0.4-0.79,0.601-1.181c3.2-6.27,6.399-12.52,9.609-18.79
				c0.801-1.56,1.601-3.13,2.4-4.699c0.4-0.78,0.799-1.561,1.21-2.34c0.04-0.101,0.089-0.2,0.14-0.301
				c0.03-0.04,0.051-0.1,0.08-0.14c0.011-0.021,0.011-0.03,0.011-0.04c0,0,0-0.01,0.009-0.01c0,0,0,0,0-0.01
				c0-0.011,0-0.011,0-0.021c0-0.03,0-0.05,0-0.08c0-0.22,0-0.439,0-0.66c0-0.439,0-0.88,0-1.319c0-3.521,0-7.03,0-10.551
				c0-3.55,0-7.1,0-10.659c0-0.891,0-1.771,0-2.66c0-0.45,0-0.891,0-1.33c0-0.23,0-0.45,0-0.67c0-0.11,0-0.23,0-0.33
				c0-0.061,0-0.11,0-0.17c0-0.011,0-0.011,0-0.021s0-0.01,0-0.01C443.054,502.219,443.054,502.219,443.054,502.219z
				 M490.804,586.919l-0.08-41.181h-51.729l-7.281,14.24v26.94H490.804z M478.854,524.339c0-1.79-0.34-3.57-1-5.24
				c-0.71-1.81-1.791-3.45-3.16-4.83c-1.381-1.38-3.029-2.46-4.84-3.17c-1.67-0.66-3.439-1-5.24-1s-3.57,0.34-5.25,1
				c-1.801,0.71-3.449,1.79-4.82,3.17c-1.379,1.38-2.459,3.021-3.169,4.83c-0.661,1.67-1,3.45-1,5.24c0,1.8,0.339,3.58,1,5.25
				c0.71,1.81,1.79,3.45,3.169,4.83c1.371,1.38,3.02,2.45,4.82,3.18c1.68,0.65,3.449,0.99,5.25,0.99s3.57-0.34,5.24-0.99
				c1.811-0.72,3.459-1.8,4.83-3.18c1.379-1.38,2.46-3.021,3.17-4.83C478.514,527.919,478.854,526.139,478.854,524.339z"/>
			<path fill="#FFFFFF" d="M443.043,644.519c0,0.05,0,0.11,0,0.16c-14.989,0-29.969,0-44.959,0l0.52-3.229h41.2v-5.511h3.239
				c0,1.761,0,3.521,0,5.28c0,0.88,0,1.76,0,2.63C443.043,644.079,443.043,644.299,443.043,644.519z"/>
			<polygon fill="#FFFFFF" points="439.754,590.159 490.724,590.159 490.724,641.449 475.094,641.449 474.984,640.148 
				489.424,640.148 489.424,591.449 465.234,591.449 441.054,591.449 441.054,597.729 439.754,597.729 			"/>
			<polygon fill="#FFFFFF" points="440.543,547.028 440.543,585.619 436.774,585.619 436.774,552.938 436.774,552.929 
				439.794,547.028 			"/>
			<polygon fill="#FFFFFF" points="439.804,641.449 398.604,641.449 398.813,640.148 438.504,640.148 438.504,635.938 
				439.804,635.938 			"/>
			<polygon fill="#FFFFFF" points="438.504,635.938 438.504,640.148 398.813,640.148 399.495,635.938 			"/>
			<rect x="415.604" y="506.749" fill="#FFFFFF" width="22.9" height="22.87"/>
			<polygon fill="#FFFFFF" points="438.504,529.619 427.054,552.019 415.604,529.619 			"/>
			<polygon fill="#FFFFFF" points="436.774,552.938 436.774,585.619 433.014,585.619 433.014,560.299 			"/>
			<path fill="#FFFFFF" d="M439.794,547.028l-3.021,5.9v0.01l-3.76,7.36v25.32h3.76h3.77h3.761h3.771h3.76h3.77h3.771h3.77h3.76
				h3.761h3.779h3.77h3.761h3.76h3.771l-0.08-38.591h-3.69h-3.76h-3.761h-3.77h-3.779h-3.761h-3.76h-3.77h-3.771h-3.77h-3.76h-3.771
				h-3.761H439.794z M438.995,545.738h51.729l0.08,41.181h-59.091v-26.94L438.995,545.738z"/>
			<path fill="#FFFFFF" d="M423.944,565.858v27.801h-41.939v-27.801H423.944z M409.125,580.009c0-0.68-0.53-1.25-1.21-1.29
				c-0.681-0.05-1.28,0.45-1.36,1.13c-1.28,0-2.56,0-3.83,0c-0.86,0-1.71,0-2.56,0c-0.25,0-0.5,0-0.761,0
				c-0.091-0.68-0.68-1.18-1.369-1.13c-0.681,0.04-1.21,0.61-1.21,1.29c0,0.69,0.529,1.25,1.21,1.29
				c0.689,0.05,1.278-0.45,1.369-1.13c1.271,0,2.551,0,3.82,0c0.86,0,1.71,0,2.561,0c0.259,0,0.51,0,0.77,0
				c0.08,0.68,0.68,1.18,1.36,1.13C408.594,581.259,409.125,580.699,409.125,580.009z"/>
			<path fill="#FFFFFF" d="M423.944,558.738v7.12h-41.939v-27.779h31.37L423.944,558.738z M409.125,551.729
				c0-0.689-0.53-1.25-1.21-1.29c-0.681-0.05-1.28,0.45-1.36,1.12c-0.26,0-0.511,0-0.77,0c-0.851,0-1.7,0-2.561,0
				c-1.27,0-2.55,0-3.82,0c-0.091-0.67-0.68-1.17-1.369-1.12c-0.681,0.04-1.21,0.601-1.21,1.29c0,0.681,0.529,1.25,1.21,1.29
				c0.689,0.04,1.278-0.45,1.369-1.13c0.261,0,0.511,0,0.761,0c0.85,0,1.699,0,2.56,0c1.271,0,2.55,0,3.83,0
				c0.08,0.68,0.68,1.17,1.36,1.13C408.594,552.979,409.125,552.409,409.125,551.729z"/>
			<path fill="#FFFFFF" d="M427.054,552.019l11.45-22.399v-22.87h-22.9v22.87L427.054,552.019z M439.804,529.929l-12.75,24.94
				l-12.75-24.94v-24.47h25.5V529.929z"/>
			<path fill="#FFFFFF" d="M410.665,505.589c-8.471,1.01-16.261,5.149-21.82,11.63c-2.76,3.21-4.9,6.9-6.301,10.89
				c-0.33,0.94-0.619,1.88-0.859,2.851c-0.121,0.47-0.229,0.939-0.34,1.42c-0.04,0.24-0.1,0.47-0.14,0.71
				c-0.021,0.11-0.04,0.229-0.061,0.35c-0.01,0.03-0.01,0.061-0.02,0.09c0,0,0,0,0,0.011c0.01,0,0.02,0,0.029,0
				c0.011,0,0.03,0,0.051,0c0.069,0,0.14,0,0.21,0c2.239,0,4.489,0,6.729,0c4.22,0,8.431,0,12.66,0c2.1,0,4.22,0,6.32,0
				c1.06,0,2.109,0,3.17,0c0.06,0,0.13,0,0.189,0c0.04,0,0.07,0,0.101,0c0.02,0,0.029,0,0.05,0c0.01,0,0.02,0,0.02,0
				c0.011,0,0.011,0,0.011,0c0-0.011,0-0.011,0-0.011c0-0.13,0-0.26,0-0.399c0-0.26,0-0.521,0-0.79c0-0.53,0-1.061,0-1.58
				C410.665,522.369,410.665,513.979,410.665,505.589z M380.713,594.949h44.521v-36.53l-11.069-21.641h-33.451V594.949z
				 M387.194,597.729v0.46h-6.48v43.261h15.711l-0.28,3.229c-5.85,0-11.689,0-17.54,0c-0.34,0-0.68,0-1.01,0c-0.02,0-0.051,0-0.06,0
				c-0.021,0-0.03,0-0.04,0c0,0-0.011,0-0.021,0v-0.01c0-0.04,0-0.08,0-0.12c0-0.09,0-0.17,0-0.26c0-0.16,0-0.33,0-0.5
				c0-0.67,0-1.34,0-2.011c0-1.35,0-2.689,0-4.029c0-2.69,0-5.37,0-8.061c0-5.37,0-10.739,0-16.109c0-10.74,0-21.48,0-32.221
				c0-10.75,0-21.479,0-32.229c0-2.7,0-5.41,0-8.12c0-1.35,0-2.71,0-4.06c0-0.091,0-0.171,0-0.261c0-0.01,0-0.04,0-0.06
				c0-0.021,0.01-0.03,0.01-0.05c0-0.04,0.011-0.08,0.011-0.12c0.01-0.16,0.029-0.311,0.04-0.471c0.028-0.31,0.06-0.619,0.1-0.93
				c0.07-0.64,0.16-1.27,0.27-1.89c0.909-5.36,2.98-10.45,6.06-14.92c3.15-4.57,7.271-8.37,12.08-11.141
				c4.531-2.62,9.57-4.26,14.791-4.8c0.3-0.03,0.609-0.06,0.93-0.08c0.03,0,0.07-0.01,0.11-0.01c0.019,0,0.04,0,0.06,0
				c0.021,0,0.04,0,0.061,0c0.09,0,0.17,0,0.26,0c0.17,0,0.33,0,0.5,0c0.68,0,1.35,0,2.02,0c1.351,0,2.689,0,4.039,0
				c2.691,0,5.392,0,8.08,0c5.381,0,10.761,0,16.15,0c0,0,0,0,0,0.01s0,0.01,0,0.021c0,0.06,0,0.109,0,0.17c0,0.1,0,0.22,0,0.33
				c0,0.22,0,0.439,0,0.67c0,0.439,0,0.88,0,1.33c0,0.89,0,1.77,0,2.66c0,3.56,0,7.109,0,10.659c0,3.521,0,7.03,0,10.551
				c0,0.439,0,0.88,0,1.319c0,0.221,0,0.44,0,0.66c0,0.03,0,0.05,0,0.08c0,0.01,0,0.01,0,0.021c0,0.01,0,0.01,0,0.01
				c-0.009,0-0.009,0.01-0.009,0.01c0,0.01,0,0.02-0.011,0.04c-0.029,0.04-0.05,0.1-0.08,0.14c-0.051,0.101-0.1,0.2-0.14,0.301
				c-0.411,0.779-0.81,1.56-1.21,2.34c-0.8,1.569-1.6,3.14-2.4,4.699c-3.21,6.271-6.409,12.521-9.609,18.79
				c-0.2,0.391-0.4,0.79-0.601,1.181c-0.1,0.189-0.199,0.39-0.3,0.58c-0.05,0.1-0.1,0.199-0.149,0.3
				c-0.011,0.02-0.021,0.05-0.04,0.07c0,0.01-0.011,0.029-0.021,0.04v0.01c0,0,0,0,0,0.01s0,0.01,0,0.01c0,0.061,0,0.12,0,0.17
				c0,0.88,0,1.761,0,2.641c0,1.76,0,3.52,0,5.27c0,3.53,0,7.04,0,10.561c0,1.76,0,3.51,0,5.27c0,0.89,0,1.76,0,2.64
				c0,0.44,0,0.881,0,1.32c0,0.11,0,0.22,0,0.33c0,0.06,0,0.11,0,0.17c0,0.021,0,0.05,0,0.08c0,0,0,0,0,0.01c0,0,0,0,0,0.011
				c0,0,0,0.01,0.01,0.02c0.011,0.01,0.011,0.02,0.021,0.04c0.1,0.19,0.2,0.38,0.3,0.58c1.6,3.13,3.2,6.26,4.8,9.39H387.194z
				 M439.804,529.929v-24.47h-25.5v24.47l12.75,24.94L439.804,529.929z"/>
			<path fill="#FFFFFF" d="M406.554,551.559c0.08-0.67,0.68-1.17,1.36-1.12c0.68,0.04,1.21,0.601,1.21,1.29
				c0,0.681-0.53,1.25-1.21,1.29c-0.681,0.04-1.28-0.45-1.36-1.13c0.43,0,0.85,0,1.28,0c0.12,0,0.189-0.12,0.149-0.22
				c-0.021-0.05-0.069-0.09-0.12-0.101c-0.029-0.01-0.06-0.01-0.079-0.01c-0.03,0-0.061,0-0.091,0c-0.199,0-0.42,0-0.631,0
				C406.893,551.559,406.724,551.559,406.554,551.559z"/>
			<path fill="#FFFFFF" d="M407.915,581.299c-0.681,0.05-1.28-0.45-1.36-1.13c0.17,0,0.339,0,0.509,0c0.211,0,0.432,0,0.631,0
				c0.03,0,0.061,0,0.091,0c0.02,0,0.05,0,0.079,0c0.051-0.01,0.1-0.05,0.12-0.101c0.04-0.109-0.029-0.22-0.149-0.22
				c-0.431,0-0.851,0-1.28,0c0.08-0.68,0.68-1.18,1.36-1.13c0.68,0.04,1.21,0.61,1.21,1.29
				C409.125,580.699,408.594,581.259,407.915,581.299z"/>
			<path fill="#FFFFFF" d="M398.604,641.449l-0.52,3.229c-0.65,0-1.29,0-1.94,0l0.28-3.229l0.11-1.301l0.369-4.21h2.591l-0.682,4.21
				L398.604,641.449z"/>
			<path fill="#FFFFFF" d="M398.125,551.559c0.419,0,0.85,0,1.279,0c1.271,0,2.551,0,3.82,0c0.86,0,1.71,0,2.561,0
				c0.259,0,0.51,0,0.77,0c0.17,0,0.339,0,0.509,0c0.211,0,0.432,0,0.631,0c0.03,0,0.061,0,0.091,0c0.02,0,0.05,0,0.079,0.01
				c0.051,0.011,0.1,0.051,0.12,0.101c0.04,0.1-0.029,0.22-0.149,0.22c-0.431,0-0.851,0-1.28,0c-1.28,0-2.56,0-3.83,0
				c-0.86,0-1.71,0-2.56,0c-0.25,0-0.5,0-0.761,0c-0.17,0-0.35,0-0.52,0c-0.21,0-0.421,0-0.64,0c-0.021,0-0.051,0-0.07,0
				c-0.03,0-0.061,0-0.08,0c-0.06-0.01-0.1-0.05-0.131-0.1C397.924,551.679,398.004,551.559,398.125,551.559z"/>
			<path fill="#FFFFFF" d="M399.404,580.169c-0.43,0-0.86,0-1.279,0c-0.12,0-0.2-0.12-0.161-0.22
				c0.031-0.061,0.071-0.091,0.131-0.101c0.02-0.01,0.05,0,0.08,0c0.02,0,0.05,0,0.07,0c0.219,0,0.43,0,0.64,0c0.17,0,0.35,0,0.52,0
				c0.261,0,0.511,0,0.761,0c0.85,0,1.699,0,2.56,0c1.271,0,2.55,0,3.83,0c0.43,0,0.85,0,1.28,0c0.12,0,0.189,0.11,0.149,0.22
				c-0.021,0.051-0.069,0.091-0.12,0.101c-0.029,0-0.06,0-0.079,0c-0.03,0-0.061,0-0.091,0c-0.199,0-0.42,0-0.631,0
				c-0.17,0-0.339,0-0.509,0c-0.26,0-0.511,0-0.77,0c-0.851,0-1.7,0-2.561,0C401.955,580.169,400.674,580.169,399.404,580.169z"/>
			<path fill="#FFFFFF" d="M398.094,551.889c0.02,0,0.05,0,0.08,0c0.02,0,0.05,0,0.07,0c0.219,0,0.43,0,0.64,0c0.17,0,0.35,0,0.52,0
				c-0.091,0.68-0.68,1.17-1.369,1.13c-0.681-0.04-1.21-0.609-1.21-1.29c0-0.689,0.529-1.25,1.21-1.29
				c0.689-0.05,1.278,0.45,1.369,1.12c-0.43,0-0.86,0-1.279,0c-0.12,0-0.2,0.12-0.161,0.23
				C397.995,551.839,398.035,551.879,398.094,551.889z"/>
			<path fill="#FFFFFF" d="M398.174,579.849c-0.03,0-0.061-0.01-0.08,0c-0.06,0.01-0.1,0.04-0.131,0.101
				c-0.039,0.1,0.041,0.22,0.161,0.22c0.419,0,0.85,0,1.279,0c-0.091,0.68-0.68,1.18-1.369,1.13c-0.681-0.04-1.21-0.6-1.21-1.29
				c0-0.68,0.529-1.25,1.21-1.29c0.689-0.05,1.278,0.45,1.369,1.13c-0.17,0-0.35,0-0.52,0c-0.21,0-0.421,0-0.64,0
				C398.224,579.849,398.194,579.849,398.174,579.849z"/>
			<polygon fill="#FFFFFF" points="396.904,635.938 396.535,640.148 382.004,640.148 382.004,599.488 387.194,599.488 
				387.194,635.938 			"/>
			<path fill="#FFFFFF" d="M388.484,634.639h94.551v-35.61h-94.551V634.639z M396.904,635.938h-9.71v-36.45v-1.3v-0.46h46.41h6.15
				h1.3h5.42h0.89h0.32h0.891h16.659h19.091v38.21h-9.711h-2.59h-6.79h-17.739h-1.301h-3.15h-3.239h-1.3h-39.01H396.904z"/>
			<path fill="#FFFFFF" d="M383.274,530.059c0.25-0.84,0.53-1.66,0.851-2.479c1.359-3.53,3.339-6.801,5.819-9.66
				c5.02-5.771,11.891-9.601,19.42-10.83c0,7.55,0,15.12,0,22.68c0,0.47,0,0.94,0,1.42c0,0.23,0,0.471,0,0.71
				c0,0.051,0,0.12,0,0.181c0,0.029,0,0.05,0,0.08c0,0.02,0,0.04,0,0.05c0,0,0,0.01,0,0.02v0.01v0.011c-0.109,0-0.229,0-0.35,0
				c-0.939,0-1.89,0-2.84,0c-1.89,0-3.781,0-5.67,0c-3.78,0-7.561,0-11.34,0c-2.03,0-4.07,0-6.102,0c-0.068,0-0.129,0-0.188,0
				c-0.03,0-0.07,0-0.101,0c-0.01,0-0.04,0-0.05,0h-0.011h-0.009c0,0,0-0.011,0-0.021c0.029-0.1,0.05-0.2,0.069-0.31
				c0.051-0.21,0.101-0.41,0.15-0.62C383.035,530.879,383.144,530.469,383.274,530.059z"/>
			<path fill="#FFFFFF" d="M382.004,593.659h41.939v-27.801v-7.12l-10.569-20.659h-31.37v27.779V593.659z M425.234,594.949h-44.521
				v-58.171h33.451l11.069,21.641V594.949z"/>
			<polygon fill="#FFFFFF" points="380.713,598.188 387.194,598.188 387.194,599.488 382.004,599.488 382.004,640.148 
				396.535,640.148 396.424,641.449 380.713,641.449 			"/>
			<path fill="#FFFFFF" d="M383.063,532.249c2.031,0,4.071,0,6.102,0c3.779,0,7.56,0,11.34,0c1.889,0,3.78,0,5.67,0
				c0.95,0,1.9,0,2.84,0c0.12,0,0.24,0,0.35,0v-0.011v-0.01c0-0.01,0-0.02,0-0.02c0-0.01,0-0.03,0-0.05c0-0.03,0-0.051,0-0.08
				c0-0.061,0-0.13,0-0.181c0-0.239,0-0.479,0-0.71c0-0.479,0-0.95,0-1.42c0-7.56,0-15.13,0-22.68
				c-7.529,1.229-14.4,5.06-19.42,10.83c-2.48,2.859-4.46,6.13-5.819,9.66c-0.32,0.819-0.601,1.64-0.851,2.479
				c-0.13,0.41-0.239,0.82-0.35,1.24c-0.05,0.21-0.1,0.41-0.15,0.62c-0.02,0.109-0.04,0.21-0.069,0.31c0,0.01,0,0.021,0,0.021h0.009
				h0.011c0.01,0,0.04,0,0.05,0c0.03,0,0.07,0,0.101,0C382.934,532.249,382.995,532.249,383.063,532.249z M381.344,532.379
				c0.11-0.48,0.219-0.95,0.34-1.42c0.24-0.971,0.529-1.91,0.859-2.851c1.4-3.989,3.541-7.68,6.301-10.89
				c5.56-6.48,13.35-10.62,21.82-11.63c0,8.39,0,16.78,0,25.17c0,0.52,0,1.05,0,1.58c0,0.27,0,0.53,0,0.79c0,0.14,0,0.27,0,0.399
				c0,0,0,0,0,0.011c0,0,0,0-0.011,0c0,0-0.01,0-0.02,0c-0.021,0-0.03,0-0.05,0c-0.03,0-0.061,0-0.101,0c-0.06,0-0.13,0-0.189,0
				c-1.061,0-2.11,0-3.17,0c-2.101,0-4.221,0-6.32,0c-4.229,0-8.44,0-12.66,0c-2.24,0-4.49,0-6.729,0c-0.07,0-0.141,0-0.21,0
				c-0.021,0-0.04,0-0.051,0c-0.01,0-0.02,0-0.029,0c0-0.011,0-0.011,0-0.011c0.01-0.029,0.01-0.06,0.02-0.09
				c0.021-0.12,0.04-0.239,0.061-0.35C381.245,532.849,381.304,532.619,381.344,532.379z"/>
		</g>
		<g>
			<polyline fill="none" stroke="#000000" stroke-width="0.5" stroke-linecap="round" stroke-linejoin="round" points="
				475.634,531.148 475.094,528.349 471.424,524.339 468.614,517.869 464.614,513.329 460.614,517.869 458.134,513.869 
				454.134,520.349 460.614,517.869 464.614,524.339 468.614,517.869 460.614,517.869 457.804,524.339 			"/>
			
				<line fill="none" stroke="#000000" stroke-width="0.5" stroke-linecap="round" stroke-linejoin="round" x1="464.614" y1="511.389" x2="471.094" y2="513.869"/>
			<polyline fill="none" stroke="#000000" stroke-width="0.5" stroke-linecap="round" stroke-linejoin="round" points="
				471.424,524.339 475.134,520.259 475.094,528.349 477.563,524.339 475.134,520.259 475.634,517.539 477.563,524.339 
				475.634,531.148 			"/>
			
				<line fill="none" stroke="#000000" stroke-width="0.5" stroke-linecap="round" stroke-linejoin="round" x1="453.594" y1="517.539" x2="451.665" y2="524.339"/>
			<polyline fill="none" stroke="#000000" stroke-width="0.5" stroke-linecap="round" stroke-linejoin="round" points="
				451.665,524.339 453.594,531.148 454.134,528.349 457.804,524.339 460.614,530.818 454.134,528.349 458.134,534.818 
				460.614,530.818 464.614,535.358 468.614,530.818 475.094,528.349 471.094,534.818 468.614,530.818 471.424,524.339 
				464.614,524.339 460.614,530.818 468.614,530.818 464.614,524.339 457.804,524.339 454.134,520.349 454.134,528.349 
				451.665,524.339 454.134,520.349 453.594,517.539 458.134,513.869 464.614,513.329 464.614,511.389 			"/>
			<polyline fill="none" stroke="#000000" stroke-width="0.5" stroke-linecap="round" stroke-linejoin="round" points="
				475.634,517.539 471.094,513.869 475.134,520.259 468.614,517.869 471.094,513.869 464.614,513.329 			"/>
			<polyline fill="none" stroke="#000000" stroke-width="0.5" stroke-linecap="round" stroke-linejoin="round" points="
				464.614,537.299 458.134,534.818 453.594,531.148 			"/>
			
				<line fill="none" stroke="#000000" stroke-width="0.5" stroke-linecap="round" stroke-linejoin="round" x1="458.134" y1="534.818" x2="464.614" y2="535.358"/>
			
				<line fill="none" stroke="#000000" stroke-width="0.5" stroke-linecap="round" stroke-linejoin="round" x1="475.634" y1="531.148" x2="471.094" y2="534.818"/>
			<polygon fill="none" stroke="#000000" stroke-width="0.5" stroke-linecap="round" stroke-linejoin="round" points="
				464.614,537.299 471.094,534.818 464.614,535.358 			"/>
			
				<line fill="none" stroke="#000000" stroke-width="0.5" stroke-linecap="round" stroke-linejoin="round" x1="464.614" y1="511.389" x2="458.134" y2="513.869"/>
			<path fill="none" stroke="#000000" stroke-width="0.5" stroke-linecap="round" stroke-linejoin="round" d="M406.554,579.849
				c0.08-0.68,0.68-1.18,1.36-1.13c0.68,0.04,1.21,0.61,1.21,1.29c0,0.69-0.53,1.25-1.21,1.29c-0.681,0.05-1.28-0.45-1.36-1.13"/>
			<path fill="none" stroke="#000000" stroke-width="0.5" stroke-linecap="round" stroke-linejoin="round" d="M399.404,580.169
				c-0.091,0.68-0.68,1.18-1.369,1.13c-0.681-0.04-1.21-0.6-1.21-1.29c0-0.68,0.529-1.25,1.21-1.29
				c0.689-0.05,1.278,0.45,1.369,1.13"/>
			<path fill="none" stroke="#000000" stroke-width="0.5" stroke-linecap="round" stroke-linejoin="round" d="M406.554,579.849
				c0.43,0,0.85,0,1.28,0c0.12,0,0.189,0.11,0.149,0.22c-0.021,0.051-0.069,0.091-0.12,0.101c-0.029,0-0.06,0-0.079,0
				c-0.03,0-0.061,0-0.091,0c-0.199,0-0.42,0-0.631,0c-0.17,0-0.339,0-0.509,0c-0.26,0-0.511,0-0.77,0c-0.851,0-1.7,0-2.561,0
				c-1.27,0-2.55,0-3.82,0c-0.43,0-0.86,0-1.279,0c-0.12,0-0.2-0.12-0.161-0.22c0.031-0.061,0.071-0.091,0.131-0.101
				c0.02-0.01,0.05,0,0.08,0c0.02,0,0.05,0,0.07,0c0.219,0,0.43,0,0.64,0c0.17,0,0.35,0,0.52,0c0.261,0,0.511,0,0.761,0
				c0.85,0,1.699,0,2.56,0C403.995,579.849,405.274,579.849,406.554,579.849z"/>
			<path fill="none" stroke="#000000" stroke-width="0.5" stroke-linecap="round" stroke-linejoin="round" d="M406.554,551.889
				c0.43,0,0.85,0,1.28,0c0.12,0,0.189-0.12,0.149-0.22c-0.021-0.05-0.069-0.09-0.12-0.101c-0.029-0.01-0.06-0.01-0.079-0.01
				c-0.03,0-0.061,0-0.091,0c-0.199,0-0.42,0-0.631,0c-0.17,0-0.339,0-0.509,0c-0.26,0-0.511,0-0.77,0c-0.851,0-1.7,0-2.561,0
				c-1.27,0-2.55,0-3.82,0c-0.43,0-0.86,0-1.279,0c-0.12,0-0.2,0.12-0.161,0.23c0.031,0.05,0.071,0.09,0.131,0.1
				c0.02,0,0.05,0,0.08,0c0.02,0,0.05,0,0.07,0c0.219,0,0.43,0,0.64,0c0.17,0,0.35,0,0.52,0c0.261,0,0.511,0,0.761,0
				c0.85,0,1.699,0,2.56,0C403.995,551.889,405.274,551.889,406.554,551.889z"/>
			<path fill="none" stroke="#000000" stroke-width="0.5" stroke-linecap="round" stroke-linejoin="round" d="M399.404,551.559
				c-0.091-0.67-0.68-1.17-1.369-1.12c-0.681,0.04-1.21,0.601-1.21,1.29c0,0.681,0.529,1.25,1.21,1.29
				c0.689,0.04,1.278-0.45,1.369-1.13"/>
			<path fill="none" stroke="#000000" stroke-width="0.5" stroke-linecap="round" stroke-linejoin="round" d="M406.554,551.889
				c0.08,0.68,0.68,1.17,1.36,1.13c0.68-0.04,1.21-0.609,1.21-1.29c0-0.689-0.53-1.25-1.21-1.29c-0.681-0.05-1.28,0.45-1.36,1.12"/>
			
				<line fill="none" stroke="#000000" stroke-width="0.5" stroke-linecap="round" stroke-linejoin="round" x1="382.004" y1="565.858" x2="423.944" y2="565.858"/>
			<polygon fill="none" stroke="#000000" stroke-width="0.5" stroke-linecap="round" stroke-linejoin="round" points="
				438.504,529.619 438.504,506.749 415.604,506.749 415.604,529.619 427.054,552.019 			"/>
			<polygon fill="none" stroke="#000000" stroke-width="0.5" stroke-linecap="round" stroke-linejoin="round" points="
				414.304,529.929 427.054,554.869 439.804,529.929 439.804,505.459 414.304,505.459 			"/>
			
				<line fill="none" stroke="#000000" stroke-width="0.5" stroke-linecap="round" stroke-linejoin="round" x1="438.504" y1="529.619" x2="415.604" y2="529.619"/>
			
				<line fill="none" stroke="#000000" stroke-width="0.5" stroke-linecap="round" stroke-linejoin="round" x1="465.234" y1="635.938" x2="465.234" y2="640.148"/>
			
				<line fill="none" stroke="#000000" stroke-width="0.5" stroke-linecap="round" stroke-linejoin="round" x1="465.234" y1="591.449" x2="465.234" y2="597.729"/>
			<path fill="none" stroke="#000000" stroke-width="0.5" stroke-linecap="round" stroke-linejoin="round" d="M448.575,597.729
				c0.289-0.39,0.329-0.91,0.1-1.35c-0.211-0.42-0.66-0.7-1.15-0.7c-0.48,0-0.93,0.28-1.149,0.7c-0.221,0.439-0.181,0.96,0.1,1.35"
				/>
			<path fill="none" stroke="#000000" stroke-width="0.5" stroke-linecap="round" stroke-linejoin="round" d="M447.684,597.729
				c0-0.16,0-0.33,0-0.5c0-0.09,0.01-0.17,0-0.26c0-0.08-0.07-0.15-0.16-0.15s-0.16,0.07-0.16,0.15c0,0.09,0,0.17,0,0.26
				c0,0.17,0,0.34,0,0.5"/>
			<polyline fill="none" stroke="#000000" stroke-width="0.5" stroke-linecap="round" stroke-linejoin="round" points="
				398.604,641.449 439.804,641.449 439.804,635.938 			"/>
			<polyline fill="none" stroke="#000000" stroke-width="0.5" stroke-linecap="round" stroke-linejoin="round" points="
				387.194,598.188 380.713,598.188 380.713,641.449 396.424,641.449 			"/>
			<polyline fill="none" stroke="#000000" stroke-width="0.5" stroke-linecap="round" stroke-linejoin="round" points="
				398.813,640.148 438.504,640.148 438.504,635.938 			"/>
			<polyline fill="none" stroke="#000000" stroke-width="0.5" stroke-linecap="round" stroke-linejoin="round" points="
				387.194,599.488 382.004,599.488 382.004,640.148 396.535,640.148 			"/>
			<polygon fill="none" stroke="#000000" stroke-width="0.5" stroke-linecap="round" stroke-linejoin="round" points="
				396.904,635.938 387.194,635.938 387.194,599.488 387.194,598.188 387.194,597.729 433.604,597.729 439.754,597.729 
				441.054,597.729 446.474,597.729 447.364,597.729 447.684,597.729 448.575,597.729 465.234,597.729 484.325,597.729 
				484.325,635.938 474.614,635.938 472.024,635.938 465.234,635.938 447.495,635.938 446.194,635.938 443.043,635.938 
				439.804,635.938 438.504,635.938 399.495,635.938 			"/>
			<polyline fill="none" stroke="#000000" stroke-width="0.5" stroke-linecap="round" stroke-linejoin="round" points="
				474.984,640.148 489.424,640.148 489.424,591.449 465.234,591.449 441.054,591.449 441.054,597.729 			"/>
			<polyline fill="none" stroke="#000000" stroke-width="0.5" stroke-linecap="round" stroke-linejoin="round" points="
				447.495,635.938 447.495,640.148 465.234,640.148 472.705,640.148 			"/>
			<polyline fill="none" stroke="#000000" stroke-width="0.5" stroke-linecap="round" stroke-linejoin="round" points="
				475.094,641.449 490.724,641.449 490.724,590.159 439.754,590.159 439.754,597.729 			"/>
			<polyline fill="none" stroke="#000000" stroke-width="0.5" stroke-linecap="round" stroke-linejoin="round" points="
				446.194,635.938 446.194,641.449 472.915,641.449 			"/>
			<path fill="none" stroke="#000000" stroke-width="0.5" stroke-linecap="round" stroke-linejoin="round" d="M443.043,635.938
				c0,1.761,0,3.521,0,5.28c0,0.88,0,1.76,0,2.63c0,0.23,0,0.45,0,0.67c0,0.05,0,0.11,0,0.16c0,0,0,0,0.011,0
				c0.009,0,0.021,0,0.03,0s0.029,0,0.04,0c0.029,0,0.05,0,0.08,0c0.108,0,0.22,0,0.33,0c0.439,0,0.88,0,1.319,0
				c3.521,0,7.039,0,10.55,0c6.011,0,12.021,0,18.03,0c0.65,0,1.29,0,1.94,0c0.38,0,0.75,0,1.13,0c3.52,0,7.039,0,10.559,0
				c1.75,0,3.512,0,5.271,0c0.439,0,0.879,0,1.319,0c0.11,0,0.221,0,0.33,0c0.011,0,0.03,0,0.04,0c0.011,0,0.011,0,0.02,0
				c0-0.01,0-0.02,0-0.02c0-0.03,0-0.061,0-0.091c0-0.05,0-0.1,0-0.159c0-0.221,0-0.44,0-0.66c0-0.88,0-1.75,0-2.641
				c0-7.029,0-14.06,0-21.1c0-14.07,0-28.14,0-42.2c0-7.06,0-14.1,0-21.149c0-3.521,0-7.04,0-10.57c0-1.76,0-3.521,0-5.29
				c0-0.88,0-1.76,0-2.64c0-0.44,0-0.881,0-1.32c0-0.061,0-0.11,0-0.16c0-0.02-0.009-0.14-0.009-0.16c-0.011-0.1-0.021-0.2-0.03-0.3
				c-0.021-0.2-0.041-0.41-0.05-0.61c-0.351-3.35-1.142-6.63-2.37-9.76c-1.29-3.32-3.061-6.439-5.24-9.26
				c-4.41-5.7-10.381-10.01-17.19-12.38c-1.649-0.58-3.31-1.03-5.02-1.37c-0.821-0.16-1.65-0.3-2.48-0.41
				c-0.409-0.06-0.819-0.1-1.229-0.14c-0.211-0.021-0.41-0.04-0.62-0.061c-0.05,0-0.091-0.01-0.15-0.01c-0.02,0-0.05,0-0.079,0
				c-0.021,0-0.061,0-0.08,0c-0.11,0-0.221,0-0.33,0c-3.551,0-7.102,0-10.66,0c-1.771,0-3.55,0-5.32,0c-0.03,0-0.06,0-0.09,0
				c-0.01,0-0.031,0-0.04,0c0,0,0,0-0.011,0c0,0,0,0,0,0.01s0,0.01,0,0.021c0,0.06,0,0.109,0,0.17c0,0.1,0,0.22,0,0.33
				c0,0.22,0,0.439,0,0.67c0,0.439,0,0.88,0,1.33c0,0.89,0,1.77,0,2.66c0,3.56,0,7.109,0,10.659c0,3.521,0,7.03,0,10.551
				c0,0.439,0,0.88,0,1.319c0,0.221,0,0.44,0,0.66c0,0.03,0,0.05,0,0.08c0,0.01,0,0.01,0,0.021c0,0.01,0,0.01,0,0.01
				c-0.009,0-0.009,0.01-0.009,0.01c0,0.01,0,0.02-0.011,0.04c-0.029,0.04-0.05,0.1-0.08,0.14c-0.051,0.101-0.1,0.2-0.14,0.301
				c-0.411,0.779-0.81,1.56-1.21,2.34c-0.8,1.569-1.6,3.14-2.4,4.699c-3.21,6.271-6.409,12.521-9.609,18.79
				c-0.2,0.391-0.4,0.79-0.601,1.181c-0.1,0.189-0.199,0.39-0.3,0.58c-0.05,0.1-0.1,0.199-0.149,0.3
				c-0.011,0.02-0.021,0.05-0.04,0.07c0,0.01-0.011,0.029-0.021,0.04v0.01c0,0,0,0,0,0.01s0,0.01,0,0.01c0,0.061,0,0.12,0,0.17
				c0,0.88,0,1.761,0,2.641c0,1.76,0,3.52,0,5.27c0,3.53,0,7.04,0,10.561c0,1.76,0,3.51,0,5.27c0,0.89,0,1.76,0,2.64
				c0,0.44,0,0.881,0,1.32c0,0.11,0,0.22,0,0.33c0,0.06,0,0.11,0,0.17c0,0.021,0,0.05,0,0.08c0,0,0,0,0,0.01c0,0,0,0,0,0.011
				c0,0,0,0.01,0.01,0.02c0.011,0.01,0.011,0.02,0.021,0.04c0.1,0.19,0.2,0.38,0.3,0.58c1.6,3.13,3.2,6.26,4.8,9.39"/>
			<path fill="none" stroke="#000000" stroke-width="0.5" stroke-linecap="round" stroke-linejoin="round" d="M443.043,644.679
				c-14.989,0-29.969,0-44.959,0c-0.65,0-1.29,0-1.94,0c-5.85,0-11.689,0-17.54,0c-0.34,0-0.68,0-1.01,0c-0.02,0-0.051,0-0.06,0
				c-0.021,0-0.03,0-0.04,0c0,0-0.011,0-0.021,0v-0.01c0-0.04,0-0.08,0-0.12c0-0.09,0-0.17,0-0.26c0-0.16,0-0.33,0-0.5
				c0-0.67,0-1.34,0-2.011c0-1.35,0-2.689,0-4.029c0-2.69,0-5.37,0-8.061c0-5.37,0-10.739,0-16.109c0-10.74,0-21.48,0-32.221
				c0-10.75,0-21.479,0-32.229c0-2.7,0-5.41,0-8.12c0-1.35,0-2.71,0-4.06c0-0.091,0-0.171,0-0.261c0-0.01,0-0.04,0-0.06
				c0-0.021,0.01-0.03,0.01-0.05c0-0.04,0.011-0.08,0.011-0.12c0.01-0.16,0.029-0.311,0.04-0.471c0.028-0.31,0.06-0.619,0.1-0.93
				c0.07-0.64,0.16-1.27,0.27-1.89c0.909-5.36,2.98-10.45,6.06-14.92c3.15-4.57,7.271-8.37,12.08-11.141
				c4.531-2.62,9.57-4.26,14.791-4.8c0.3-0.03,0.609-0.06,0.93-0.08c0.03,0,0.07-0.01,0.11-0.01c0.019,0,0.04,0,0.06,0
				c0.021,0,0.04,0,0.061,0c0.09,0,0.17,0,0.26,0c0.17,0,0.33,0,0.5,0c0.68,0,1.35,0,2.02,0c1.351,0,2.689,0,4.039,0
				c2.691,0,5.392,0,8.08,0c5.381,0,10.761,0,16.15,0"/>
			
				<line fill="none" stroke="#000000" stroke-width="0.5" stroke-linecap="round" stroke-linejoin="round" x1="433.014" y1="585.619" x2="433.014" y2="560.299"/>
			
				<line fill="none" stroke="#000000" stroke-width="0.5" stroke-linecap="round" stroke-linejoin="round" x1="436.774" y1="585.619" x2="436.774" y2="552.938"/>
			
				<line fill="none" stroke="#000000" stroke-width="0.5" stroke-linecap="round" stroke-linejoin="round" x1="440.543" y1="585.619" x2="440.543" y2="547.028"/>
			
				<line fill="none" stroke="#000000" stroke-width="0.5" stroke-linecap="round" stroke-linejoin="round" x1="444.304" y1="585.619" x2="444.304" y2="547.028"/>
			
				<line fill="none" stroke="#000000" stroke-width="0.5" stroke-linecap="round" stroke-linejoin="round" x1="448.075" y1="585.619" x2="448.075" y2="547.028"/>
			
				<line fill="none" stroke="#000000" stroke-width="0.5" stroke-linecap="round" stroke-linejoin="round" x1="451.834" y1="585.619" x2="451.834" y2="547.028"/>
			
				<line fill="none" stroke="#000000" stroke-width="0.5" stroke-linecap="round" stroke-linejoin="round" x1="455.604" y1="585.619" x2="455.604" y2="547.028"/>
			
				<line fill="none" stroke="#000000" stroke-width="0.5" stroke-linecap="round" stroke-linejoin="round" x1="459.375" y1="585.619" x2="459.375" y2="547.028"/>
			
				<line fill="none" stroke="#000000" stroke-width="0.5" stroke-linecap="round" stroke-linejoin="round" x1="463.144" y1="585.619" x2="463.144" y2="547.028"/>
			
				<line fill="none" stroke="#000000" stroke-width="0.5" stroke-linecap="round" stroke-linejoin="round" x1="466.904" y1="585.619" x2="466.904" y2="547.028"/>
			
				<line fill="none" stroke="#000000" stroke-width="0.5" stroke-linecap="round" stroke-linejoin="round" x1="470.665" y1="585.619" x2="470.665" y2="547.028"/>
			
				<line fill="none" stroke="#000000" stroke-width="0.5" stroke-linecap="round" stroke-linejoin="round" x1="474.444" y1="585.619" x2="474.444" y2="547.028"/>
			
				<line fill="none" stroke="#000000" stroke-width="0.5" stroke-linecap="round" stroke-linejoin="round" x1="478.213" y1="585.619" x2="478.213" y2="547.028"/>
			
				<line fill="none" stroke="#000000" stroke-width="0.5" stroke-linecap="round" stroke-linejoin="round" x1="481.974" y1="585.619" x2="481.974" y2="547.028"/>
			
				<line fill="none" stroke="#000000" stroke-width="0.5" stroke-linecap="round" stroke-linejoin="round" x1="485.734" y1="585.619" x2="485.734" y2="547.028"/>
			<polyline fill="none" stroke="#000000" stroke-width="0.5" stroke-linecap="round" stroke-linejoin="round" points="
				489.504,585.619 485.734,585.619 481.974,585.619 478.213,585.619 474.444,585.619 470.665,585.619 466.904,585.619 
				463.144,585.619 459.375,585.619 455.604,585.619 451.834,585.619 448.075,585.619 444.304,585.619 440.543,585.619 
				436.774,585.619 433.014,585.619 			"/>
			<path fill="none" stroke="#000000" stroke-width="0.5" stroke-linecap="round" stroke-linejoin="round" d="M478.854,524.339
				c0-1.79-0.34-3.57-1-5.24c-0.71-1.81-1.791-3.45-3.16-4.83c-1.381-1.38-3.029-2.46-4.84-3.17c-1.67-0.66-3.439-1-5.24-1
				s-3.57,0.34-5.25,1c-1.801,0.71-3.449,1.79-4.82,3.17c-1.379,1.38-2.459,3.021-3.169,4.83c-0.661,1.67-1,3.45-1,5.24
				c0,1.8,0.339,3.58,1,5.25c0.71,1.81,1.79,3.45,3.169,4.83c1.371,1.38,3.02,2.45,4.82,3.18c1.68,0.65,3.449,0.99,5.25,0.99
				s3.57-0.34,5.24-0.99c1.811-0.72,3.459-1.8,4.83-3.18c1.379-1.38,2.46-3.021,3.17-4.83
				C478.514,527.919,478.854,526.139,478.854,524.339z"/>
			<path fill="none" stroke="#000000" stroke-width="0.5" stroke-linecap="round" stroke-linejoin="round" d="M409.364,507.089
				c0,7.55,0,15.12,0,22.68c0,0.47,0,0.94,0,1.42c0,0.23,0,0.471,0,0.71c0,0.051,0,0.12,0,0.181c0,0.029,0,0.05,0,0.08
				c0,0.02,0,0.04,0,0.05c0,0,0,0.01,0,0.02v0.01v0.011c-0.109,0-0.229,0-0.35,0c-0.939,0-1.89,0-2.84,0c-1.89,0-3.781,0-5.67,0
				c-3.78,0-7.561,0-11.34,0c-2.03,0-4.07,0-6.102,0c-0.068,0-0.129,0-0.188,0c-0.03,0-0.07,0-0.101,0c-0.01,0-0.04,0-0.05,0h-0.011
				h-0.009c0,0,0-0.011,0-0.021c0.029-0.1,0.05-0.2,0.069-0.31c0.051-0.21,0.101-0.41,0.15-0.62c0.11-0.42,0.22-0.83,0.35-1.24
				c0.25-0.84,0.53-1.66,0.851-2.479c1.359-3.53,3.339-6.801,5.819-9.66C394.963,512.148,401.834,508.318,409.364,507.089z"/>
			<path fill="none" stroke="#000000" stroke-width="0.5" stroke-linecap="round" stroke-linejoin="round" d="M410.665,505.589
				c0,8.39,0,16.78,0,25.17c0,0.52,0,1.05,0,1.58c0,0.27,0,0.53,0,0.79c0,0.14,0,0.27,0,0.399c0,0,0,0,0,0.011c0,0,0,0-0.011,0
				c0,0-0.01,0-0.02,0c-0.021,0-0.03,0-0.05,0c-0.03,0-0.061,0-0.101,0c-0.06,0-0.13,0-0.189,0c-1.061,0-2.11,0-3.17,0
				c-2.101,0-4.221,0-6.32,0c-4.229,0-8.44,0-12.66,0c-2.24,0-4.49,0-6.729,0c-0.07,0-0.141,0-0.21,0c-0.021,0-0.04,0-0.051,0
				c-0.01,0-0.02,0-0.029,0c0-0.011,0-0.011,0-0.011c0.01-0.029,0.01-0.06,0.02-0.09c0.021-0.12,0.04-0.239,0.061-0.35
				c0.04-0.24,0.1-0.47,0.14-0.71c0.11-0.48,0.219-0.95,0.34-1.42c0.24-0.971,0.529-1.91,0.859-2.851
				c1.4-3.989,3.541-7.68,6.301-10.89C394.404,510.738,402.194,506.599,410.665,505.589z"/>
			<path fill="none" stroke="#000000" stroke-width="0.5" stroke-linecap="round" stroke-linejoin="round" d="M410.665,505.459
				c0,0.04,0,0.09,0,0.13"/>
			<path fill="none" stroke="#000000" stroke-width="0.5" stroke-linecap="round" stroke-linejoin="round" d="M477.563,524.339
				c0-2.4-0.67-4.75-1.929-6.8"/>
			<path fill="none" stroke="#000000" stroke-width="0.5" stroke-linecap="round" stroke-linejoin="round" d="M475.634,517.539
				c-2.36-3.82-6.53-6.15-11.021-6.15c-4.489,0-8.659,2.33-11.02,6.15"/>
			<path fill="none" stroke="#000000" stroke-width="0.5" stroke-linecap="round" stroke-linejoin="round" d="M453.594,517.539
				c-1.29,2.08-1.93,4.439-1.93,6.8s0.64,4.72,1.93,6.81"/>
			<path fill="none" stroke="#000000" stroke-width="0.5" stroke-linecap="round" stroke-linejoin="round" d="M453.594,531.148
				c2.36,3.82,6.53,6.15,11.02,6.15c4.49,0,8.66-2.33,11.021-6.15"/>
			<path fill="none" stroke="#000000" stroke-width="0.5" stroke-linecap="round" stroke-linejoin="round" d="M475.634,531.148
				c1.259-2.04,1.929-4.399,1.929-6.81"/>
			<polygon fill="none" stroke="#000000" stroke-width="0.5" stroke-linecap="round" stroke-linejoin="round" points="
				382.004,565.858 382.004,538.079 413.375,538.079 423.944,558.738 423.944,565.858 423.944,593.659 382.004,593.659 			"/>
			<polygon fill="none" stroke="#000000" stroke-width="0.5" stroke-linecap="round" stroke-linejoin="round" points="
				425.234,558.419 425.234,594.949 380.713,594.949 380.713,536.778 414.165,536.778 			"/>
			<polyline fill="none" stroke="#000000" stroke-width="0.5" stroke-linecap="round" stroke-linejoin="round" points="
				439.794,547.028 436.774,552.929 436.774,552.938 433.014,560.299 			"/>
			<polyline fill="none" stroke="#000000" stroke-width="0.5" stroke-linecap="round" stroke-linejoin="round" points="
				489.504,585.619 489.424,547.028 485.734,547.028 481.974,547.028 478.213,547.028 474.444,547.028 470.665,547.028 
				466.904,547.028 463.144,547.028 459.375,547.028 455.604,547.028 451.834,547.028 448.075,547.028 444.304,547.028 
				440.543,547.028 439.794,547.028 			"/>
			<polygon fill="none" stroke="#000000" stroke-width="0.5" stroke-linecap="round" stroke-linejoin="round" points="
				438.995,545.738 431.713,559.979 431.713,586.919 490.804,586.919 490.724,545.738 			"/>
			<polyline fill="none" stroke="#000000" stroke-width="0.5" stroke-linecap="round" stroke-linejoin="round" points="
				399.495,635.938 398.813,640.148 398.604,641.449 398.084,644.679 			"/>
			<polyline fill="none" stroke="#000000" stroke-width="0.5" stroke-linecap="round" stroke-linejoin="round" points="
				396.144,644.679 396.424,641.449 396.535,640.148 396.904,635.938 			"/>
			<polyline fill="none" stroke="#000000" stroke-width="0.5" stroke-linecap="round" stroke-linejoin="round" points="
				472.024,635.938 472.705,640.148 472.915,641.449 473.434,644.679 			"/>
			<polyline fill="none" stroke="#000000" stroke-width="0.5" stroke-linecap="round" stroke-linejoin="round" points="
				475.375,644.679 475.094,641.449 474.984,640.148 474.614,635.938 			"/>
			
				<rect x="388.484" y="599.028" fill="none" stroke="#000000" stroke-width="0.5" stroke-linecap="round" stroke-linejoin="round" width="94.551" height="35.61"/>
		</g>
	</g>
</g>
</svg>
