<?xml version="1.0" encoding="utf-8"?>
<!-- Generator: Adobe Illustrator 16.0.0, SVG Export Plug-In . SVG Version: 6.00 Build 0)  -->
<!DOCTYPE svg PUBLIC "-//W3C//DTD SVG 1.1//EN" "http://www.w3.org/Graphics/SVG/1.1/DTD/svg11.dtd">
<svg version="1.1" id="Layer_2" xmlns="http://www.w3.org/2000/svg" xmlns:xlink="http://www.w3.org/1999/xlink" x="0px" y="0px"
	 width="162.399px" height="143.28px" viewBox="114.902 197.904 162.399 143.28"
	 enable-background="new 114.902 197.904 162.399 143.28" xml:space="preserve">
<g>
	<g id="XMLID_1_">
		<g>
			<polygon fill="#FFFFFF" points="255.092,287.63 256.096,297.035 268.322,304.482 267.35,315.013 269.94,317.079 273.085,332.575 
				262.848,340.438 259.194,337.262 255.987,324.495 246.89,323.585 241.602,315.876 244.299,307.689 236.251,300.289 
				236.59,287.738 236.976,287.029 239.134,285.395 253.211,286.181 			"/>
			<polygon fill="#FFFFFF" points="201.206,220.221 201.329,222.364 194.036,231.677 196.041,241.899 196.318,242.023 
				210.626,241.128 213.432,237.32 229.622,235.439 230.099,234.421 237.408,230.197 239.289,221.486 246.335,216.922 
				247.075,211.356 258.083,207.917 267.073,211.896 260.674,224.785 265.962,233.173 257.959,241.684 248.848,238.199 
				241.694,246.741 241.833,250.179 247.137,255.329 259.641,251.12 266.24,255.915 269.925,255.344 276.801,261.219 
				275.784,276.005 272.331,279.15 261.167,267.617 254.629,269.884 245.95,265.813 239.582,269.082 229.39,264.75 227.093,257.025 
				224.811,255.067 216.917,253.556 206.247,264.302 209.007,272.736 214.218,276.544 214.512,291.068 214.065,291.994 
				219.538,306.78 219.322,307.458 206.402,314.381 206.093,319.747 214.758,329.229 223.129,329.229 229.221,329.229 
				233.122,334.887 231.441,336.953 220.802,339.944 214.79,335.55 205.846,340.685 196.426,330.524 196.503,329.152 
				185.433,319.053 182.241,320.086 178.879,325.097 164.202,325.837 161.658,319.808 149.045,317.388 147.734,315.075 
				148.814,306.456 138.653,299.179 131.145,305.777 133.597,313.934 129.31,321.104 118.979,322.306 115.402,309.139 
				121.955,303.002 120.367,291.007 127.707,285.271 138.9,290.883 148.367,285.842 148.305,274.556 150.557,272.212 
				164.309,272.196 169.907,282.789 157.896,291.778 158.805,299.024 168.889,306.872 177.369,300.659 187.391,305.269 
				196.642,292.256 196.256,291.747 196.441,280.26 185.371,273.044 185.371,265.983 183.305,263.701 180.9,247.943 
				178.186,246.602 173.268,238.014 162.444,237.397 154.01,247.049 154.503,252.43 150.217,256.408 134.568,256.007 
				133.396,253.494 124.916,248.637 122.603,236.472 128.893,230.397 139.471,239.448 145.33,238.908 150.094,227.268 
				157.417,227.869 164.849,220.036 164.34,216.444 154.473,207.979 158.836,198.404 175.795,199.73 176.907,206.16 184.4,213.776 
				191.4,211.911 			"/>
		</g>
		<g>
			
				<line fill="none" stroke="#000000" stroke-linecap="round" stroke-linejoin="round" x1="246.89" y1="323.585" x2="255.987" y2="324.495"/>
			
				<line fill="none" stroke="#000000" stroke-linecap="round" stroke-linejoin="round" x1="241.602" y1="315.876" x2="246.89" y2="323.585"/>
			
				<line fill="none" stroke="#000000" stroke-linecap="round" stroke-linejoin="round" x1="244.299" y1="307.689" x2="241.602" y2="315.876"/>
			
				<line fill="none" stroke="#000000" stroke-linecap="round" stroke-linejoin="round" x1="256.096" y1="297.035" x2="255.092" y2="287.63"/>
			
				<line fill="none" stroke="#000000" stroke-linecap="round" stroke-linejoin="round" x1="253.211" y1="286.181" x2="239.134" y2="285.395"/>
			
				<line fill="none" stroke="#000000" stroke-linecap="round" stroke-linejoin="round" x1="236.59" y1="287.738" x2="236.251" y2="300.289"/>
			
				<line fill="none" stroke="#000000" stroke-linecap="round" stroke-linejoin="round" x1="236.251" y1="300.289" x2="244.299" y2="307.689"/>
			
				<line fill="none" stroke="#000000" stroke-linecap="round" stroke-linejoin="round" x1="255.092" y1="287.63" x2="253.211" y2="286.181"/>
			
				<line fill="none" stroke="#000000" stroke-linecap="round" stroke-linejoin="round" x1="236.976" y1="287.029" x2="236.59" y2="287.738"/>
			
				<line fill="none" stroke="#000000" stroke-linecap="round" stroke-linejoin="round" x1="239.134" y1="285.395" x2="236.976" y2="287.029"/>
			
				<line fill="none" stroke="#000000" stroke-linecap="round" stroke-linejoin="round" x1="149.045" y1="317.388" x2="161.658" y2="319.808"/>
			
				<line fill="none" stroke="#000000" stroke-linecap="round" stroke-linejoin="round" x1="148.814" y1="306.456" x2="147.734" y2="315.075"/>
			
				<line fill="none" stroke="#000000" stroke-linecap="round" stroke-linejoin="round" x1="168.889" y1="306.872" x2="158.805" y2="299.024"/>
			
				<line fill="none" stroke="#000000" stroke-linecap="round" stroke-linejoin="round" x1="147.734" y1="315.075" x2="149.045" y2="317.388"/>
			
				<line fill="none" stroke="#000000" stroke-linecap="round" stroke-linejoin="round" x1="128.893" y1="230.397" x2="122.603" y2="236.472"/>
			
				<line fill="none" stroke="#000000" stroke-linecap="round" stroke-linejoin="round" x1="122.603" y1="236.472" x2="124.916" y2="248.637"/>
			
				<line fill="none" stroke="#000000" stroke-linecap="round" stroke-linejoin="round" x1="139.471" y1="239.448" x2="128.893" y2="230.397"/>
			
				<line fill="none" stroke="#000000" stroke-linecap="round" stroke-linejoin="round" x1="124.916" y1="248.637" x2="133.396" y2="253.494"/>
			
				<line fill="none" stroke="#000000" stroke-linecap="round" stroke-linejoin="round" x1="273.085" y1="332.575" x2="269.94" y2="317.079"/>
			
				<line fill="none" stroke="#000000" stroke-linecap="round" stroke-linejoin="round" x1="255.987" y1="324.495" x2="259.194" y2="337.262"/>
			
				<line fill="none" stroke="#000000" stroke-linecap="round" stroke-linejoin="round" x1="262.848" y1="340.438" x2="273.085" y2="332.575"/>
			
				<line fill="none" stroke="#000000" stroke-linecap="round" stroke-linejoin="round" x1="259.194" y1="337.262" x2="262.848" y2="340.438"/>
			
				<line fill="none" stroke="#000000" stroke-linecap="round" stroke-linejoin="round" x1="269.94" y1="317.079" x2="267.35" y2="315.013"/>
			
				<line fill="none" stroke="#000000" stroke-linecap="round" stroke-linejoin="round" x1="269.925" y1="255.344" x2="266.24" y2="255.915"/>
			
				<line fill="none" stroke="#000000" stroke-linecap="round" stroke-linejoin="round" x1="261.167" y1="267.617" x2="272.331" y2="279.15"/>
			
				<line fill="none" stroke="#000000" stroke-linecap="round" stroke-linejoin="round" x1="275.784" y1="276.005" x2="276.801" y2="261.219"/>
			
				<line fill="none" stroke="#000000" stroke-linecap="round" stroke-linejoin="round" x1="276.801" y1="261.219" x2="269.925" y2="255.344"/>
			
				<line fill="none" stroke="#000000" stroke-linecap="round" stroke-linejoin="round" x1="272.331" y1="279.15" x2="275.784" y2="276.005"/>
			
				<line fill="none" stroke="#000000" stroke-linecap="round" stroke-linejoin="round" x1="134.568" y1="256.007" x2="150.217" y2="256.408"/>
			
				<line fill="none" stroke="#000000" stroke-linecap="round" stroke-linejoin="round" x1="145.33" y1="238.908" x2="139.471" y2="239.448"/>
			
				<line fill="none" stroke="#000000" stroke-linecap="round" stroke-linejoin="round" x1="133.396" y1="253.494" x2="134.568" y2="256.007"/>
			
				<line fill="none" stroke="#000000" stroke-linecap="round" stroke-linejoin="round" x1="154.503" y1="252.43" x2="154.01" y2="247.049"/>
			
				<line fill="none" stroke="#000000" stroke-linecap="round" stroke-linejoin="round" x1="150.217" y1="256.408" x2="154.503" y2="252.43"/>
			
				<line fill="none" stroke="#000000" stroke-linecap="round" stroke-linejoin="round" x1="241.833" y1="250.179" x2="241.694" y2="246.741"/>
			
				<line fill="none" stroke="#000000" stroke-linecap="round" stroke-linejoin="round" x1="224.811" y1="255.067" x2="227.093" y2="257.025"/>
			
				<line fill="none" stroke="#000000" stroke-linecap="round" stroke-linejoin="round" x1="214.758" y1="329.229" x2="206.093" y2="319.747"/>
			
				<line fill="none" stroke="#000000" stroke-linecap="round" stroke-linejoin="round" x1="196.426" y1="330.524" x2="205.846" y2="340.685"/>
			
				<line fill="none" stroke="#000000" stroke-linecap="round" stroke-linejoin="round" x1="205.846" y1="340.685" x2="214.79" y2="335.55"/>
			
				<line fill="none" stroke="#000000" stroke-linecap="round" stroke-linejoin="round" x1="196.503" y1="329.152" x2="196.426" y2="330.524"/>
			
				<line fill="none" stroke="#000000" stroke-linecap="round" stroke-linejoin="round" x1="196.441" y1="280.26" x2="196.256" y2="291.747"/>
			
				<line fill="none" stroke="#000000" stroke-linecap="round" stroke-linejoin="round" x1="214.512" y1="291.068" x2="214.218" y2="276.544"/>
			
				<line fill="none" stroke="#000000" stroke-linecap="round" stroke-linejoin="round" x1="196.256" y1="291.747" x2="196.642" y2="292.256"/>
			
				<line fill="none" stroke="#000000" stroke-linecap="round" stroke-linejoin="round" x1="214.218" y1="276.544" x2="209.007" y2="272.736"/>
			
				<line fill="none" stroke="#000000" stroke-linecap="round" stroke-linejoin="round" x1="214.065" y1="291.994" x2="214.512" y2="291.068"/>
			
				<line fill="none" stroke="#000000" stroke-linecap="round" stroke-linejoin="round" x1="196.642" y1="292.256" x2="187.391" y2="305.269"/>
			
				<line fill="none" stroke="#000000" stroke-linecap="round" stroke-linejoin="round" x1="260.674" y1="224.785" x2="267.073" y2="211.896"/>
			
				<line fill="none" stroke="#000000" stroke-linecap="round" stroke-linejoin="round" x1="258.083" y1="207.917" x2="247.075" y2="211.356"/>
			
				<line fill="none" stroke="#000000" stroke-linecap="round" stroke-linejoin="round" x1="267.073" y1="211.896" x2="258.083" y2="207.917"/>
			
				<line fill="none" stroke="#000000" stroke-linecap="round" stroke-linejoin="round" x1="247.075" y1="211.356" x2="246.335" y2="216.922"/>
			
				<line fill="none" stroke="#000000" stroke-linecap="round" stroke-linejoin="round" x1="229.622" y1="235.439" x2="213.432" y2="237.32"/>
			
				<line fill="none" stroke="#000000" stroke-linecap="round" stroke-linejoin="round" x1="216.917" y1="253.556" x2="224.811" y2="255.067"/>
			
				<line fill="none" stroke="#000000" stroke-linecap="round" stroke-linejoin="round" x1="213.432" y1="237.32" x2="210.626" y2="241.128"/>
			
				<line fill="none" stroke="#000000" stroke-linecap="round" stroke-linejoin="round" x1="268.322" y1="304.482" x2="256.096" y2="297.035"/>
			
				<line fill="none" stroke="#000000" stroke-linecap="round" stroke-linejoin="round" x1="267.35" y1="315.013" x2="268.322" y2="304.482"/>
			
				<line fill="none" stroke="#000000" stroke-linecap="round" stroke-linejoin="round" x1="196.041" y1="241.899" x2="194.036" y2="231.677"/>
			
				<line fill="none" stroke="#000000" stroke-linecap="round" stroke-linejoin="round" x1="173.268" y1="238.014" x2="178.186" y2="246.602"/>
			
				<line fill="none" stroke="#000000" stroke-linecap="round" stroke-linejoin="round" x1="178.186" y1="246.602" x2="180.9" y2="247.943"/>
			
				<line fill="none" stroke="#000000" stroke-linecap="round" stroke-linejoin="round" x1="164.34" y1="216.444" x2="164.849" y2="220.036"/>
			
				<line fill="none" stroke="#000000" stroke-linecap="round" stroke-linejoin="round" x1="184.4" y1="213.776" x2="176.907" y2="206.16"/>
			
				<line fill="none" stroke="#000000" stroke-linecap="round" stroke-linejoin="round" x1="257.959" y1="241.684" x2="265.962" y2="233.173"/>
			
				<line fill="none" stroke="#000000" stroke-linecap="round" stroke-linejoin="round" x1="248.848" y1="238.199" x2="257.959" y2="241.684"/>
			
				<line fill="none" stroke="#000000" stroke-linecap="round" stroke-linejoin="round" x1="265.962" y1="233.173" x2="260.674" y2="224.785"/>
			
				<line fill="none" stroke="#000000" stroke-linecap="round" stroke-linejoin="round" x1="164.309" y1="272.196" x2="150.557" y2="272.212"/>
			
				<line fill="none" stroke="#000000" stroke-linecap="round" stroke-linejoin="round" x1="169.907" y1="282.789" x2="164.309" y2="272.196"/>
			
				<line fill="none" stroke="#000000" stroke-linecap="round" stroke-linejoin="round" x1="157.896" y1="291.778" x2="169.907" y2="282.789"/>
			
				<line fill="none" stroke="#000000" stroke-linecap="round" stroke-linejoin="round" x1="148.305" y1="274.556" x2="148.367" y2="285.842"/>
			
				<line fill="none" stroke="#000000" stroke-linecap="round" stroke-linejoin="round" x1="150.557" y1="272.212" x2="148.305" y2="274.556"/>
			
				<line fill="none" stroke="#000000" stroke-linecap="round" stroke-linejoin="round" x1="138.653" y1="299.179" x2="148.814" y2="306.456"/>
			
				<line fill="none" stroke="#000000" stroke-linecap="round" stroke-linejoin="round" x1="148.367" y1="285.842" x2="138.9" y2="290.883"/>
			
				<line fill="none" stroke="#000000" stroke-linecap="round" stroke-linejoin="round" x1="158.805" y1="299.024" x2="157.896" y2="291.778"/>
			
				<line fill="none" stroke="#000000" stroke-linecap="round" stroke-linejoin="round" x1="223.129" y1="329.229" x2="229.221" y2="329.229"/>
			
				<line fill="none" stroke="#000000" stroke-linecap="round" stroke-linejoin="round" x1="164.202" y1="325.837" x2="178.879" y2="325.097"/>
			
				<line fill="none" stroke="#000000" stroke-linecap="round" stroke-linejoin="round" x1="178.879" y1="325.097" x2="182.241" y2="320.086"/>
			
				<line fill="none" stroke="#000000" stroke-linecap="round" stroke-linejoin="round" x1="161.658" y1="319.808" x2="164.202" y2="325.837"/>
			
				<line fill="none" stroke="#000000" stroke-linecap="round" stroke-linejoin="round" x1="241.694" y1="246.741" x2="248.848" y2="238.199"/>
			
				<line fill="none" stroke="#000000" stroke-linecap="round" stroke-linejoin="round" x1="237.408" y1="230.197" x2="230.099" y2="234.421"/>
			
				<line fill="none" stroke="#000000" stroke-linecap="round" stroke-linejoin="round" x1="230.099" y1="234.421" x2="229.622" y2="235.439"/>
			
				<line fill="none" stroke="#000000" stroke-linecap="round" stroke-linejoin="round" x1="247.137" y1="255.329" x2="241.833" y2="250.179"/>
			
				<line fill="none" stroke="#000000" stroke-linecap="round" stroke-linejoin="round" x1="229.39" y1="264.75" x2="239.582" y2="269.082"/>
			
				<line fill="none" stroke="#000000" stroke-linecap="round" stroke-linejoin="round" x1="239.582" y1="269.082" x2="245.95" y2="265.813"/>
			
				<line fill="none" stroke="#000000" stroke-linecap="round" stroke-linejoin="round" x1="227.093" y1="257.025" x2="229.39" y2="264.75"/>
			
				<line fill="none" stroke="#000000" stroke-linecap="round" stroke-linejoin="round" x1="154.01" y1="247.049" x2="162.444" y2="237.397"/>
			
				<line fill="none" stroke="#000000" stroke-linecap="round" stroke-linejoin="round" x1="150.094" y1="227.268" x2="145.33" y2="238.908"/>
			
				<line fill="none" stroke="#000000" stroke-linecap="round" stroke-linejoin="round" x1="157.417" y1="227.869" x2="150.094" y2="227.268"/>
			
				<line fill="none" stroke="#000000" stroke-linecap="round" stroke-linejoin="round" x1="214.758" y1="329.229" x2="223.129" y2="329.229"/>
			
				<line fill="none" stroke="#000000" stroke-linecap="round" stroke-linejoin="round" x1="239.289" y1="221.486" x2="237.408" y2="230.197"/>
			
				<line fill="none" stroke="#000000" stroke-linecap="round" stroke-linejoin="round" x1="246.335" y1="216.922" x2="239.289" y2="221.486"/>
			
				<line fill="none" stroke="#000000" stroke-linecap="round" stroke-linejoin="round" x1="115.402" y1="309.139" x2="118.979" y2="322.306"/>
			
				<line fill="none" stroke="#000000" stroke-linecap="round" stroke-linejoin="round" x1="133.597" y1="313.934" x2="131.145" y2="305.777"/>
			
				<line fill="none" stroke="#000000" stroke-linecap="round" stroke-linejoin="round" x1="129.31" y1="321.104" x2="133.597" y2="313.934"/>
			
				<line fill="none" stroke="#000000" stroke-linecap="round" stroke-linejoin="round" x1="118.979" y1="322.306" x2="129.31" y2="321.104"/>
			
				<line fill="none" stroke="#000000" stroke-linecap="round" stroke-linejoin="round" x1="121.955" y1="303.002" x2="115.402" y2="309.139"/>
			
				<line fill="none" stroke="#000000" stroke-linecap="round" stroke-linejoin="round" x1="180.9" y1="247.943" x2="183.305" y2="263.701"/>
			
				<line fill="none" stroke="#000000" stroke-linecap="round" stroke-linejoin="round" x1="183.305" y1="263.701" x2="185.371" y2="265.983"/>
			
				<line fill="none" stroke="#000000" stroke-linecap="round" stroke-linejoin="round" x1="196.318" y1="242.023" x2="196.041" y2="241.899"/>
			
				<line fill="none" stroke="#000000" stroke-linecap="round" stroke-linejoin="round" x1="206.247" y1="264.302" x2="216.917" y2="253.556"/>
			
				<line fill="none" stroke="#000000" stroke-linecap="round" stroke-linejoin="round" x1="210.626" y1="241.128" x2="196.318" y2="242.023"/>
			
				<line fill="none" stroke="#000000" stroke-linecap="round" stroke-linejoin="round" x1="120.367" y1="291.007" x2="121.955" y2="303.002"/>
			
				<line fill="none" stroke="#000000" stroke-linecap="round" stroke-linejoin="round" x1="138.9" y1="290.883" x2="127.707" y2="285.271"/>
			
				<line fill="none" stroke="#000000" stroke-linecap="round" stroke-linejoin="round" x1="131.145" y1="305.777" x2="138.653" y2="299.179"/>
			
				<line fill="none" stroke="#000000" stroke-linecap="round" stroke-linejoin="round" x1="127.707" y1="285.271" x2="120.367" y2="291.007"/>
			
				<line fill="none" stroke="#000000" stroke-linecap="round" stroke-linejoin="round" x1="185.433" y1="319.053" x2="196.503" y2="329.152"/>
			
				<line fill="none" stroke="#000000" stroke-linecap="round" stroke-linejoin="round" x1="206.093" y1="319.747" x2="206.402" y2="314.381"/>
			
				<line fill="none" stroke="#000000" stroke-linecap="round" stroke-linejoin="round" x1="259.641" y1="251.12" x2="247.137" y2="255.329"/>
			
				<line fill="none" stroke="#000000" stroke-linecap="round" stroke-linejoin="round" x1="245.95" y1="265.813" x2="254.629" y2="269.884"/>
			
				<line fill="none" stroke="#000000" stroke-linecap="round" stroke-linejoin="round" x1="254.629" y1="269.884" x2="261.167" y2="267.617"/>
			
				<line fill="none" stroke="#000000" stroke-linecap="round" stroke-linejoin="round" x1="266.24" y1="255.915" x2="259.641" y2="251.12"/>
			
				<line fill="none" stroke="#000000" stroke-linecap="round" stroke-linejoin="round" x1="164.849" y1="220.036" x2="157.417" y2="227.869"/>
			
				<line fill="none" stroke="#000000" stroke-linecap="round" stroke-linejoin="round" x1="162.444" y1="237.397" x2="173.268" y2="238.014"/>
			
				<line fill="none" stroke="#000000" stroke-linecap="round" stroke-linejoin="round" x1="220.802" y1="339.944" x2="214.79" y2="335.55"/>
			
				<line fill="none" stroke="#000000" stroke-linecap="round" stroke-linejoin="round" x1="231.441" y1="336.953" x2="220.802" y2="339.944"/>
			
				<line fill="none" stroke="#000000" stroke-linecap="round" stroke-linejoin="round" x1="233.122" y1="334.887" x2="231.441" y2="336.953"/>
			
				<line fill="none" stroke="#000000" stroke-linecap="round" stroke-linejoin="round" x1="229.221" y1="329.229" x2="233.122" y2="334.887"/>
			
				<line fill="none" stroke="#000000" stroke-linecap="round" stroke-linejoin="round" x1="187.391" y1="305.269" x2="177.369" y2="300.659"/>
			
				<line fill="none" stroke="#000000" stroke-linecap="round" stroke-linejoin="round" x1="177.369" y1="300.659" x2="168.889" y2="306.872"/>
			
				<line fill="none" stroke="#000000" stroke-linecap="round" stroke-linejoin="round" x1="182.241" y1="320.086" x2="185.433" y2="319.053"/>
			
				<line fill="none" stroke="#000000" stroke-linecap="round" stroke-linejoin="round" x1="175.795" y1="199.73" x2="158.836" y2="198.404"/>
			
				<line fill="none" stroke="#000000" stroke-linecap="round" stroke-linejoin="round" x1="154.473" y1="207.979" x2="164.34" y2="216.444"/>
			
				<line fill="none" stroke="#000000" stroke-linecap="round" stroke-linejoin="round" x1="158.836" y1="198.404" x2="154.473" y2="207.979"/>
			
				<line fill="none" stroke="#000000" stroke-linecap="round" stroke-linejoin="round" x1="176.907" y1="206.16" x2="175.795" y2="199.73"/>
			
				<line fill="none" stroke="#000000" stroke-linecap="round" stroke-linejoin="round" x1="206.402" y1="314.381" x2="219.322" y2="307.458"/>
			
				<line fill="none" stroke="#000000" stroke-linecap="round" stroke-linejoin="round" x1="219.538" y1="306.78" x2="214.065" y2="291.994"/>
			
				<line fill="none" stroke="#000000" stroke-linecap="round" stroke-linejoin="round" x1="219.322" y1="307.458" x2="219.538" y2="306.78"/>
			
				<line fill="none" stroke="#000000" stroke-linecap="round" stroke-linejoin="round" x1="185.371" y1="273.044" x2="196.441" y2="280.26"/>
			
				<line fill="none" stroke="#000000" stroke-linecap="round" stroke-linejoin="round" x1="185.371" y1="265.983" x2="185.371" y2="273.044"/>
			
				<line fill="none" stroke="#000000" stroke-linecap="round" stroke-linejoin="round" x1="209.007" y1="272.736" x2="206.247" y2="264.302"/>
			
				<line fill="none" stroke="#000000" stroke-linecap="round" stroke-linejoin="round" x1="201.206" y1="220.221" x2="191.4" y2="211.911"/>
			
				<line fill="none" stroke="#000000" stroke-linecap="round" stroke-linejoin="round" x1="194.036" y1="231.677" x2="201.329" y2="222.364"/>
			
				<line fill="none" stroke="#000000" stroke-linecap="round" stroke-linejoin="round" x1="201.329" y1="222.364" x2="201.206" y2="220.221"/>
			
				<line fill="none" stroke="#000000" stroke-linecap="round" stroke-linejoin="round" x1="191.4" y1="211.911" x2="184.4" y2="213.776"/>
		</g>
	</g>
</g>
</svg>
