<?xml version="1.0" encoding="utf-8"?>
<!-- Generator: Adobe Illustrator 16.0.0, SVG Export Plug-In . SVG Version: 6.00 Build 0)  -->
<!DOCTYPE svg PUBLIC "-//W3C//DTD SVG 1.1//EN" "http://www.w3.org/Graphics/SVG/1.1/DTD/svg11.dtd">
<svg version="1.1" id="Layer_2" xmlns="http://www.w3.org/2000/svg" xmlns:xlink="http://www.w3.org/1999/xlink" x="0px" y="0px"
	 width="129.432px" height="134.712px" viewBox="571.694 202.991 129.432 134.712"
	 enable-background="new 571.694 202.991 129.432 134.712" xml:space="preserve">
<g>
	<g id="XMLID_1_">
		<g>
			<polygon fill="#FFFFFF" points="700.625,301.41 700.625,306.675 696.672,309.633 696.672,304.353 			"/>
			<polygon fill="#FFFFFF" points="700.625,301.41 696.672,304.353 640.045,279.062 643.984,276.119 644.186,276.205 			"/>
			<polygon fill="#FFFFFF" points="696.672,304.353 696.672,309.633 642.469,285.41 640.045,284.328 640.045,279.062 			"/>
			<path fill="#FFFFFF" d="M692.07,234.149v5.266l-43.556,32.519c0-0.909,0-1.804,0-2.698c0-0.462,0-0.909,0-1.356
				c0-0.216,0-0.433,0-0.649c0-0.029,0-0.289,0-0.318c-0.015-0.058-0.043-0.129-0.086-0.188L692.07,234.149z"/>
			<path fill="#FFFFFF" d="M692.07,234.149l-43.642,32.577c-0.044-0.043-0.087-0.086-0.131-0.115
				c-0.028-0.015-0.273-0.13-0.303-0.144c-0.102-0.043-0.203-0.087-0.303-0.13c-0.217-0.101-0.419-0.188-0.62-0.289
				c-0.419-0.173-0.822-0.361-1.226-0.548c-0.823-0.361-1.646-0.722-2.468-1.097l43.599-32.533L692.07,234.149z"/>
			<path fill="#FFFFFF" d="M642.787,264.447l0.188-0.13c0.058-0.043,0.13-0.029,0.188-0.015c0.072,0.043,0.145,0.072,0.217,0.101
				c0.822,0.375,1.645,0.736,2.468,1.097c0.403,0.188,0.807,0.375,1.226,0.548c0.201,0.101,0.403,0.188,0.62,0.289
				c0.1,0.043,0.201,0.086,0.303,0.13c0.029,0.014,0.274,0.129,0.303,0.144c0.044,0.029,0.087,0.072,0.131,0.115
				c0.043,0.058,0.071,0.13,0.086,0.188c0,0.029,0,0.289,0,0.318c0,0.216,0,0.433,0,0.649c0,0.447,0,0.895,0,1.356
				c0,0.894,0,1.789,0,2.698c0,0.072,0,0.144,0,0.216s0.015,0.159-0.058,0.216l-4.53,3.376l-4.141,3.087
				c0.043-0.029,0.059-0.086,0.059-0.13c0-0.072,0-0.129,0-0.188c0-0.13,0-0.245,0-0.36c0-0.246,0-0.491,0-0.736
				c0-0.476,0-0.952,0-1.443c0-0.476,0-0.952,0-1.428c0-0.231,0-0.462,0-0.692c0-0.116,0-0.231,0-0.347c0-0.058,0-0.115-0.016-0.173
				c-0.014-0.072-0.058-0.13-0.115-0.188c-0.043-0.043-0.087-0.072-0.145-0.101c-0.057-0.029-0.115-0.058-0.158-0.073
				c-0.115-0.058-0.23-0.101-0.332-0.144c-0.217-0.101-0.434-0.202-0.648-0.303c-0.448-0.188-0.881-0.389-1.313-0.577
				c-0.88-0.389-1.746-0.779-2.626-1.168c-0.058-0.029-0.13-0.043-0.188,0L642.787,264.447z M644.287,272.872
				c0.015-0.043,0.029-0.086,0.044-0.144c0-0.029-0.015-0.101-0.058-0.115c-0.03-0.015-0.072,0-0.102,0.029
				c-0.028,0.014-0.058,0.043-0.072,0.072c-0.028,0.072-0.073,0.145-0.073,0.217c0,0.043,0.016,0.086,0.059,0.116
				c0.043,0.014,0.102-0.029,0.129-0.058C644.243,272.959,644.273,272.916,644.287,272.872z"/>
			<path fill="#FFFFFF" d="M644.331,272.728c-0.015,0.058-0.029,0.101-0.044,0.144c-0.014,0.043-0.044,0.087-0.073,0.116
				c-0.027,0.029-0.086,0.072-0.129,0.058c-0.043-0.029-0.059-0.073-0.059-0.116c0-0.072,0.045-0.145,0.073-0.217
				c0.015-0.029,0.044-0.058,0.072-0.072c0.029-0.029,0.071-0.043,0.102-0.029C644.316,272.627,644.331,272.699,644.331,272.728z"/>
			<path fill="#FFFFFF" d="M639.916,284.616c-0.058-0.015-0.071-0.087-0.071-0.13c0-0.058,0-0.13,0-0.188c0-0.13,0-0.26,0-0.39
				c0-0.245,0-0.491,0-0.736c0-0.491,0-0.981,0-1.486c0-0.491,0-0.981,0-1.472c0-0.245,0-0.491,0-0.736c0-0.058,0-0.115,0-0.159
				c0-0.058,0-0.115,0.014-0.173c0.015-0.115,0.086-0.274,0.188-0.346c0.663-0.505,1.342-1.01,2.02-1.515
				c0.346-0.245,0.678-0.505,1.024-0.75c0.159-0.13,0.332-0.259,0.505-0.389c0.086-0.058,0.173-0.13,0.26-0.188
				c0.043-0.043,0.087-0.072,0.145-0.101c0.027-0.029,0.072-0.043,0.115-0.029c0.072,0.029,0.072,0.115,0.072,0.173
				c0,0.072,0,0.13,0,0.202l-0.202-0.086l-3.938,2.943v5.266l2.424,1.082v48.851l-3.953,2.943v-53.208L639.916,284.616z"/>
			<path fill="#FFFFFF" d="M644.114,275.83c-0.043-0.015-0.088,0-0.115,0.029c-0.058,0.029-0.102,0.058-0.145,0.101
				c-0.087,0.058-0.174,0.129-0.26,0.188c-0.173,0.13-0.346,0.259-0.505,0.389c-0.347,0.246-0.679,0.505-1.024,0.75
				c-0.678,0.505-1.356,1.01-2.02,1.515c-0.102,0.072-0.173,0.231-0.188,0.346c-0.014,0.058-0.014,0.116-0.014,0.173
				c0,0.043,0,0.101,0,0.159c0,0.245,0,0.491,0,0.736c0,0.49,0,0.981,0,1.472c0,0.505,0,0.995,0,1.486c0,0.245,0,0.491,0,0.736
				c0,0.13,0,0.26,0,0.39c0,0.058,0,0.13,0,0.188c0,0.043,0.014,0.115,0.071,0.13l-1.399-0.621l-3.854-1.731l4.719-3.521
				c0.072,0.029,0.131,0.058,0.202,0.086c0.058,0.029,0.13,0.058,0.202,0l4.141-3.087L644.114,275.83z"/>
			<path fill="#FFFFFF" d="M642.787,264.23v0.216l-8.483,6.333c-0.072,0.058-0.058,0.145-0.058,0.216c0,0.072,0,0.145,0,0.217
				l-0.173,0.129l-0.967-0.433v-6.016c0,0.058,0.028,0.086,0.072,0.115c0.028,0.029,0.115,0.058,0.158,0.087
				c0.115,0.043,0.217,0.086,0.332,0.144c0.217,0.101,0.447,0.202,0.664,0.303c0.433,0.188,0.865,0.375,1.297,0.563
				c0.853,0.39,1.717,0.779,2.584,1.154c0.131,0.072,0.217,0.115,0.375,0.101c0.145-0.029,0.202-0.086,0.317-0.173
				c0.173-0.13,0.346-0.26,0.52-0.39c0.375-0.289,0.765-0.563,1.14-0.851c0.375-0.274,0.75-0.563,1.125-0.837
				c0.202-0.144,0.389-0.289,0.577-0.433c0.101-0.072,0.202-0.145,0.288-0.217c0.044-0.043,0.102-0.072,0.145-0.101
				C642.743,264.317,642.787,264.288,642.787,264.23z"/>
			<path fill="#FFFFFF" d="M642.787,264.23c0,0.058-0.044,0.086-0.087,0.13c-0.043,0.029-0.101,0.058-0.145,0.101
				c-0.086,0.072-0.188,0.145-0.288,0.217c-0.188,0.144-0.375,0.289-0.577,0.433c-0.375,0.274-0.75,0.563-1.125,0.837
				c-0.375,0.289-0.765,0.563-1.14,0.851c-0.174,0.13-0.347,0.26-0.52,0.39c-0.115,0.086-0.173,0.144-0.317,0.173
				c-0.158,0.015-0.244-0.029-0.375-0.101c-0.867-0.375-1.731-0.765-2.584-1.154c-0.432-0.188-0.864-0.375-1.297-0.563
				c-0.217-0.101-0.447-0.202-0.664-0.303c-0.115-0.058-0.217-0.101-0.332-0.144c-0.043-0.029-0.13-0.058-0.158-0.087
				c-0.044-0.029-0.072-0.058-0.072-0.115c0-0.043,0.028-0.086,0.057-0.116c0.088-0.058,0.174-0.115,0.261-0.173v0.289l5.093,2.279
				l3.953-2.943V264c0.057,0.029,0.13,0.058,0.188,0.086C642.713,264.115,642.787,264.158,642.787,264.23z"/>
			<polygon fill="#FFFFFF" points="642.469,264 642.469,264.23 638.516,267.173 638.516,208.714 642.469,205.771 			"/>
			<polygon fill="#FFFFFF" points="642.469,205.771 638.516,208.714 633.423,206.435 637.362,203.491 			"/>
			<path fill="#FFFFFF" d="M639.844,278.513c0,0.058,0,0.116,0,0.188c0,0.043-0.016,0.101-0.059,0.13
				c-0.072,0.058-0.145,0.029-0.202,0c-0.071-0.029-0.13-0.058-0.202-0.086l0.217-0.159v-5.266l-5.107-2.279l-0.245,0.173
				c0-0.072,0-0.145,0-0.217c0-0.072-0.015-0.159,0.058-0.216c0.058-0.043,0.13-0.029,0.188,0c0.88,0.39,1.746,0.779,2.626,1.168
				c0.433,0.188,0.865,0.39,1.313,0.577c0.215,0.101,0.432,0.202,0.648,0.303c0.102,0.043,0.217,0.086,0.332,0.144
				c0.043,0.015,0.102,0.043,0.158,0.073c0.058,0.028,0.102,0.057,0.145,0.101c0.058,0.058,0.102,0.115,0.115,0.188
				c0.016,0.058,0.016,0.115,0.016,0.173c0,0.116,0,0.231,0,0.347c0,0.23,0,0.461,0,0.692c0,0.476,0,0.952,0,1.428
				c0,0.491,0,0.967,0,1.443c0,0.245,0,0.49,0,0.736C639.844,278.268,639.844,278.383,639.844,278.513z"/>
			<polygon fill="#FFFFFF" points="639.598,273.319 639.598,278.585 639.381,278.744 634.663,282.265 634.65,282.265 
				633.423,283.188 595.783,311.278 595.783,306.012 			"/>
			<polygon fill="#FFFFFF" points="639.598,273.319 595.783,306.012 590.675,303.732 625.43,277.807 628.647,275.397 
				634.073,271.343 634.246,271.213 634.491,271.04 			"/>
			<polygon fill="#FFFFFF" points="638.516,283.996 638.516,337.204 633.423,334.924 633.423,283.188 634.65,282.265 
				634.663,282.265 			"/>
			<polygon fill="#FFFFFF" points="638.516,208.714 638.516,267.173 633.423,264.894 633.423,264.605 633.423,206.435 			"/>
			<path fill="#FFFFFF" d="M634.073,271.343l-5.426,4.054c0-0.274,0-0.548,0-0.822c0-0.072,0-0.144,0-0.202c0-0.043,0-0.188,0-0.216
				c0-0.043,0.029-0.101,0.044-0.159c0.043-0.072,0.087-0.159,0.145-0.202c1.239-0.924,2.495-1.847,3.736-2.785
				c0.058-0.029,0.102-0.072,0.159-0.116c0.043-0.029,0.115-0.101,0.188-0.072l0.188,0.086L634.073,271.343z"/>
			<path fill="#FFFFFF" d="M632.572,271.011c-1.241,0.938-2.497,1.861-3.736,2.785c-0.058,0.043-0.102,0.129-0.145,0.202
				l-56.497-25.233l3.953-2.943L632.572,271.011z"/>
			<path fill="#FFFFFF" d="M628.691,273.998c-0.015,0.058-0.044,0.115-0.044,0.159c0,0.029,0,0.173,0,0.216c0,0.058,0,0.13,0,0.202
				c0,0.274,0,0.548,0,0.822l-3.217,2.41l-53.236-23.776v-5.266L628.691,273.998z"/>
			<polygon fill="#FFFFFF" points="595.783,306.012 595.783,311.278 590.675,308.998 590.675,303.732 			"/>
		</g>
		<g>
			<path fill="none" stroke="#000000" stroke-linecap="round" stroke-linejoin="round" d="M639.786,278.831
				c0.043-0.029,0.059-0.086,0.059-0.13c0-0.072,0-0.129,0-0.188c0-0.13,0-0.245,0-0.36c0-0.246,0-0.491,0-0.736
				c0-0.476,0-0.952,0-1.443c0-0.476,0-0.952,0-1.428c0-0.231,0-0.462,0-0.692c0-0.116,0-0.231,0-0.347c0-0.058,0-0.115-0.016-0.173
				c-0.014-0.072-0.058-0.13-0.115-0.188c-0.043-0.043-0.087-0.072-0.145-0.101c-0.057-0.029-0.115-0.058-0.158-0.073
				c-0.115-0.058-0.23-0.101-0.332-0.144c-0.217-0.101-0.434-0.202-0.648-0.303c-0.448-0.188-0.881-0.389-1.313-0.577
				c-0.88-0.389-1.746-0.779-2.626-1.168"/>
			<path fill="none" stroke="#000000" stroke-linecap="round" stroke-linejoin="round" d="M648.514,271.935c0-0.909,0-1.804,0-2.698
				c0-0.462,0-0.909,0-1.356c0-0.216,0-0.433,0-0.649c0-0.029,0-0.289,0-0.318c-0.015-0.058-0.043-0.129-0.086-0.188
				c-0.044-0.043-0.087-0.086-0.131-0.115c-0.028-0.015-0.273-0.13-0.303-0.144c-0.102-0.043-0.203-0.087-0.303-0.13
				c-0.217-0.101-0.419-0.188-0.62-0.289c-0.419-0.173-0.822-0.361-1.226-0.548c-0.823-0.361-1.646-0.722-2.468-1.097"/>
			<polyline fill="none" stroke="#000000" stroke-linecap="round" stroke-linejoin="round" points="634.663,282.265 
				639.381,278.744 639.598,278.585 			"/>
			
				<line fill="none" stroke="#000000" stroke-linecap="round" stroke-linejoin="round" x1="633.423" y1="283.188" x2="634.65" y2="282.265"/>
			
				<line fill="none" stroke="#000000" stroke-linecap="round" stroke-linejoin="round" x1="595.783" y1="306.012" x2="639.598" y2="273.319"/>
			<polyline fill="none" stroke="#000000" stroke-linecap="round" stroke-linejoin="round" points="625.43,277.807 628.647,275.397 
				634.073,271.343 634.246,271.213 634.491,271.04 			"/>
			
				<line fill="none" stroke="#000000" stroke-linecap="round" stroke-linejoin="round" x1="642.469" y1="285.41" x2="640.045" y2="284.328"/>
			<polyline fill="none" stroke="#000000" stroke-linecap="round" stroke-linejoin="round" points="639.916,284.616 
				638.516,283.996 634.663,282.265 634.65,282.265 			"/>
			<path fill="none" stroke="#000000" stroke-linecap="round" stroke-linejoin="round" d="M628.835,273.796
				c-0.058,0.043-0.102,0.129-0.145,0.202c-0.015,0.058-0.044,0.115-0.044,0.159c0,0.029,0,0.173,0,0.216c0,0.058,0,0.13,0,0.202
				c0,0.274,0,0.548,0,0.822"/>
			<path fill="none" stroke="#000000" stroke-linecap="round" stroke-linejoin="round" d="M643.378,264.403
				c-0.072-0.029-0.145-0.058-0.217-0.101"/>
			<path fill="none" stroke="#000000" stroke-linecap="round" stroke-linejoin="round" d="M639.381,278.744
				c0.072,0.029,0.131,0.058,0.202,0.086c0.058,0.029,0.13,0.058,0.202,0"/>
			
				<line fill="none" stroke="#000000" stroke-linecap="round" stroke-linejoin="round" x1="643.926" y1="275.743" x2="639.786" y2="278.831"/>
			
				<line fill="none" stroke="#000000" stroke-linecap="round" stroke-linejoin="round" x1="642.787" y1="264.447" x2="642.974" y2="264.317"/>
			
				<line fill="none" stroke="#000000" stroke-linecap="round" stroke-linejoin="round" x1="648.428" y1="266.726" x2="692.07" y2="234.149"/>
			
				<line fill="none" stroke="#000000" stroke-linecap="round" stroke-linejoin="round" x1="648.514" y1="271.935" x2="692.07" y2="239.416"/>
			
				<line fill="none" stroke="#000000" stroke-linecap="round" stroke-linejoin="round" x1="643.378" y1="264.403" x2="686.977" y2="231.87"/>
			
				<line fill="none" stroke="#000000" stroke-linecap="round" stroke-linejoin="round" x1="643.926" y1="275.743" x2="644.114" y2="275.83"/>
			<path fill="none" stroke="#000000" stroke-linecap="round" stroke-linejoin="round" d="M644.084,273.046
				c-0.043-0.029-0.059-0.073-0.059-0.116"/>
			<path fill="none" stroke="#000000" stroke-linecap="round" stroke-linejoin="round" d="M644.273,272.613
				c0.043,0.014,0.058,0.086,0.058,0.115c-0.015,0.058-0.029,0.101-0.044,0.144c-0.014,0.043-0.044,0.087-0.073,0.116
				c-0.027,0.029-0.086,0.072-0.129,0.058"/>
			<path fill="none" stroke="#000000" stroke-linecap="round" stroke-linejoin="round" d="M648.457,272.367
				c0.072-0.058,0.058-0.144,0.058-0.216s0-0.144,0-0.216"/>
			<path fill="none" stroke="#000000" stroke-linecap="round" stroke-linejoin="round" d="M634.303,270.78
				c-0.072,0.058-0.058,0.145-0.058,0.216c0,0.072,0,0.145,0,0.217"/>
			
				<line fill="none" stroke="#000000" stroke-linecap="round" stroke-linejoin="round" x1="648.457" y1="272.367" x2="643.926" y2="275.743"/>
			
				<line fill="none" stroke="#000000" stroke-linecap="round" stroke-linejoin="round" x1="634.303" y1="270.78" x2="642.787" y2="264.447"/>
			<path fill="none" stroke="#000000" stroke-linecap="round" stroke-linejoin="round" d="M644.026,272.93
				c0-0.072,0.045-0.145,0.073-0.217c0.015-0.029,0.044-0.058,0.072-0.072c0.029-0.029,0.071-0.043,0.102-0.029"/>
			<path fill="none" stroke="#000000" stroke-linecap="round" stroke-linejoin="round" d="M643.162,264.302
				c-0.058-0.014-0.13-0.029-0.188,0.015"/>
			
				<line fill="none" stroke="#000000" stroke-linecap="round" stroke-linejoin="round" x1="634.491" y1="271.04" x2="639.598" y2="273.319"/>
			
				<line fill="none" stroke="#000000" stroke-linecap="round" stroke-linejoin="round" x1="639.598" y1="273.319" x2="639.598" y2="278.585"/>
			<path fill="none" stroke="#000000" stroke-linecap="round" stroke-linejoin="round" d="M634.491,270.78
				c-0.058-0.029-0.13-0.043-0.188,0"/>
			
				<line fill="none" stroke="#000000" stroke-linecap="round" stroke-linejoin="round" x1="696.672" y1="304.353" x2="640.045" y2="279.062"/>
			
				<line fill="none" stroke="#000000" stroke-linecap="round" stroke-linejoin="round" x1="638.516" y1="208.714" x2="638.516" y2="267.173"/>
			<path fill="none" stroke="#000000" stroke-linecap="round" stroke-linejoin="round" d="M633.106,264.894
				c0,0.058,0.028,0.086,0.072,0.115c0.028,0.029,0.115,0.058,0.158,0.087c0.115,0.043,0.217,0.086,0.332,0.144
				c0.217,0.101,0.447,0.202,0.664,0.303c0.433,0.188,0.865,0.375,1.297,0.563c0.853,0.39,1.717,0.779,2.584,1.154
				c0.131,0.072,0.217,0.115,0.375,0.101c0.145-0.029,0.202-0.086,0.317-0.173c0.173-0.13,0.346-0.26,0.52-0.39
				c0.375-0.289,0.765-0.563,1.14-0.851c0.375-0.274,0.75-0.563,1.125-0.837c0.202-0.144,0.389-0.289,0.577-0.433
				c0.101-0.072,0.202-0.145,0.288-0.217c0.044-0.043,0.102-0.072,0.145-0.101c0.043-0.043,0.087-0.072,0.087-0.13"/>
			<path fill="none" stroke="#000000" stroke-linecap="round" stroke-linejoin="round" d="M644.114,275.83
				c-0.043-0.015-0.088,0-0.115,0.029c-0.058,0.029-0.102,0.058-0.145,0.101c-0.087,0.058-0.174,0.129-0.26,0.188
				c-0.173,0.13-0.346,0.259-0.505,0.389c-0.347,0.246-0.679,0.505-1.024,0.75c-0.678,0.505-1.356,1.01-2.02,1.515"/>
			
				<line fill="none" stroke="#000000" stroke-linecap="round" stroke-linejoin="round" x1="633.106" y1="270.91" x2="634.073" y2="271.343"/>
			<path fill="none" stroke="#000000" stroke-linecap="round" stroke-linejoin="round" d="M640.045,278.802
				c-0.102,0.072-0.173,0.231-0.188,0.346c-0.014,0.058-0.014,0.116-0.014,0.173c0,0.043,0,0.101,0,0.159c0,0.245,0,0.491,0,0.736
				c0,0.49,0,0.981,0,1.472c0,0.505,0,0.995,0,1.486c0,0.245,0,0.491,0,0.736c0,0.13,0,0.26,0,0.39c0,0.058,0,0.13,0,0.188
				c0,0.043,0.014,0.115,0.071,0.13"/>
			
				<line fill="none" stroke="#000000" stroke-linecap="round" stroke-linejoin="round" x1="628.691" y1="273.998" x2="572.194" y2="248.764"/>
			
				<line fill="none" stroke="#000000" stroke-linecap="round" stroke-linejoin="round" x1="632.572" y1="271.011" x2="576.147" y2="245.821"/>
			
				<line fill="none" stroke="#000000" stroke-linecap="round" stroke-linejoin="round" x1="638.516" y1="283.996" x2="638.516" y2="337.204"/>
			
				<line fill="none" stroke="#000000" stroke-linecap="round" stroke-linejoin="round" x1="644.186" y1="276.205" x2="643.984" y2="276.119"/>
			
				<line fill="none" stroke="#000000" stroke-linecap="round" stroke-linejoin="round" x1="642.469" y1="264" x2="642.469" y2="264.23"/>
			
				<line fill="none" stroke="#000000" stroke-linecap="round" stroke-linejoin="round" x1="633.423" y1="264.605" x2="633.423" y2="264.894"/>
			<path fill="none" stroke="#000000" stroke-linecap="round" stroke-linejoin="round" d="M633.423,264.605
				c-0.087,0.058-0.173,0.115-0.261,0.173"/>
			<path fill="none" stroke="#000000" stroke-linecap="round" stroke-linejoin="round" d="M632.572,271.011
				c-1.241,0.938-2.497,1.861-3.736,2.785"/>
			<path fill="none" stroke="#000000" stroke-linecap="round" stroke-linejoin="round" d="M644.186,276.205c0-0.072,0-0.13,0-0.202
				c0-0.058,0-0.144-0.072-0.173"/>
			
				<line fill="none" stroke="#000000" stroke-linecap="round" stroke-linejoin="round" x1="625.43" y1="277.807" x2="572.194" y2="254.03"/>
			
				<line fill="none" stroke="#000000" stroke-linecap="round" stroke-linejoin="round" x1="633.423" y1="283.188" x2="633.423" y2="334.924"/>
			
				<line fill="none" stroke="#000000" stroke-linecap="round" stroke-linejoin="round" x1="590.675" y1="303.732" x2="595.783" y2="306.012"/>
			
				<line fill="none" stroke="#000000" stroke-linecap="round" stroke-linejoin="round" x1="595.783" y1="311.278" x2="590.675" y2="308.998"/>
			
				<line fill="none" stroke="#000000" stroke-linecap="round" stroke-linejoin="round" x1="595.783" y1="311.278" x2="633.423" y2="283.188"/>
			
				<line fill="none" stroke="#000000" stroke-linecap="round" stroke-linejoin="round" x1="595.783" y1="306.012" x2="595.783" y2="311.278"/>
			
				<line fill="none" stroke="#000000" stroke-linecap="round" stroke-linejoin="round" x1="590.675" y1="303.732" x2="625.43" y2="277.807"/>
			
				<line fill="none" stroke="#000000" stroke-linecap="round" stroke-linejoin="round" x1="590.675" y1="308.998" x2="590.675" y2="303.732"/>
			
				<line fill="none" stroke="#000000" stroke-linecap="round" stroke-linejoin="round" x1="692.07" y1="234.149" x2="692.07" y2="239.416"/>
			
				<line fill="none" stroke="#000000" stroke-linecap="round" stroke-linejoin="round" x1="686.977" y1="231.87" x2="692.07" y2="234.149"/>
			
				<line fill="none" stroke="#000000" stroke-linecap="round" stroke-linejoin="round" x1="642.469" y1="285.41" x2="642.469" y2="334.26"/>
			
				<line fill="none" stroke="#000000" stroke-linecap="round" stroke-linejoin="round" x1="696.672" y1="309.633" x2="696.672" y2="304.353"/>
			
				<line fill="none" stroke="#000000" stroke-linecap="round" stroke-linejoin="round" x1="700.625" y1="301.41" x2="700.625" y2="306.675"/>
			
				<line fill="none" stroke="#000000" stroke-linecap="round" stroke-linejoin="round" x1="700.625" y1="301.41" x2="644.186" y2="276.205"/>
			
				<line fill="none" stroke="#000000" stroke-linecap="round" stroke-linejoin="round" x1="696.672" y1="304.353" x2="700.625" y2="301.41"/>
			
				<line fill="none" stroke="#000000" stroke-linecap="round" stroke-linejoin="round" x1="696.672" y1="309.633" x2="642.469" y2="285.41"/>
			
				<line fill="none" stroke="#000000" stroke-linecap="round" stroke-linejoin="round" x1="700.625" y1="306.675" x2="696.672" y2="309.633"/>
			
				<line fill="none" stroke="#000000" stroke-linecap="round" stroke-linejoin="round" x1="572.194" y1="248.764" x2="576.147" y2="245.821"/>
			
				<line fill="none" stroke="#000000" stroke-linecap="round" stroke-linejoin="round" x1="572.194" y1="254.03" x2="572.194" y2="248.764"/>
			
				<line fill="none" stroke="#000000" stroke-linecap="round" stroke-linejoin="round" x1="633.423" y1="206.435" x2="638.516" y2="208.714"/>
			
				<line fill="none" stroke="#000000" stroke-linecap="round" stroke-linejoin="round" x1="642.469" y1="205.771" x2="637.362" y2="203.491"/>
			
				<line fill="none" stroke="#000000" stroke-linecap="round" stroke-linejoin="round" x1="642.469" y1="205.771" x2="642.469" y2="264"/>
			
				<line fill="none" stroke="#000000" stroke-linecap="round" stroke-linejoin="round" x1="638.516" y1="208.714" x2="642.469" y2="205.771"/>
			
				<line fill="none" stroke="#000000" stroke-linecap="round" stroke-linejoin="round" x1="633.423" y1="206.435" x2="633.423" y2="264.605"/>
			
				<line fill="none" stroke="#000000" stroke-linecap="round" stroke-linejoin="round" x1="637.362" y1="203.491" x2="633.423" y2="206.435"/>
			
				<line fill="none" stroke="#000000" stroke-linecap="round" stroke-linejoin="round" x1="638.516" y1="337.204" x2="642.469" y2="334.26"/>
			
				<line fill="none" stroke="#000000" stroke-linecap="round" stroke-linejoin="round" x1="633.423" y1="334.924" x2="638.516" y2="337.204"/>
			
				<line fill="none" stroke="#000000" stroke-linecap="round" stroke-linejoin="round" x1="633.106" y1="270.91" x2="633.106" y2="264.894"/>
			<path fill="none" stroke="#000000" stroke-linecap="round" stroke-linejoin="round" d="M642.787,264.23
				c0-0.072-0.073-0.116-0.13-0.145c-0.058-0.029-0.131-0.058-0.188-0.086"/>
			<polyline fill="none" stroke="#000000" stroke-linecap="round" stroke-linejoin="round" points="642.787,264.23 642.787,264.447 
				642.787,264.461 			"/>
			
				<line fill="none" stroke="#000000" stroke-linecap="round" stroke-linejoin="round" x1="642.469" y1="264.23" x2="638.516" y2="267.173"/>
			
				<line fill="none" stroke="#000000" stroke-linecap="round" stroke-linejoin="round" x1="638.516" y1="267.173" x2="633.423" y2="264.894"/>
			<path fill="none" stroke="#000000" stroke-linecap="round" stroke-linejoin="round" d="M633.163,264.778
				c-0.028,0.029-0.057,0.072-0.057,0.116"/>
			<path fill="none" stroke="#000000" stroke-linecap="round" stroke-linejoin="round" d="M632.918,270.824
				c-0.072-0.029-0.145,0.043-0.188,0.072c-0.058,0.043-0.102,0.087-0.159,0.116"/>
			<path fill="none" stroke="#000000" stroke-linecap="round" stroke-linejoin="round" d="M639.916,284.616
				c0.058,0.029,0.13-0.043,0.173-0.072c0.057-0.043,0.115-0.072,0.158-0.115"/>
			
				<line fill="none" stroke="#000000" stroke-linecap="round" stroke-linejoin="round" x1="632.918" y1="270.824" x2="633.106" y2="270.91"/>
			
				<line fill="none" stroke="#000000" stroke-linecap="round" stroke-linejoin="round" x1="640.045" y1="284.328" x2="640.045" y2="279.062"/>
			
				<line fill="none" stroke="#000000" stroke-linecap="round" stroke-linejoin="round" x1="640.045" y1="279.062" x2="643.984" y2="276.119"/>
		</g>
	</g>
</g>
</svg>
