<?xml version="1.0" encoding="utf-8"?>
<!-- Generator: Adobe Illustrator 16.0.0, SVG Export Plug-In . SVG Version: 6.00 Build 0)  -->
<!DOCTYPE svg PUBLIC "-//W3C//DTD SVG 1.1//EN" "http://www.w3.org/Graphics/SVG/1.1/DTD/svg11.dtd">
<svg version="1.1" id="Layer_2" xmlns="http://www.w3.org/2000/svg" xmlns:xlink="http://www.w3.org/1999/xlink" x="0px" y="0px"
	 width="111.664px" height="87.434px" viewBox="54.751 82.854 111.664 87.434"
	 enable-background="new 54.751 82.854 111.664 87.434" xml:space="preserve">
<g>
	<g>
		<g id="XMLID_2_">
			<g>
				<path fill="#231F20" d="M147.838,153.971l-0.329-0.591C147.659,153.586,147.784,153.792,147.838,153.971z"/>
				<path fill="#231F20" d="M141.671,154.025c0.302,0,4.726-2.129,5.015-2.087c0.041,0.385,0.424,0.879,0.754,1.347
					c0.027,0.027,0.041,0.055,0.069,0.096l0.329,0.591c0.014,0.027,0.028,0.041,0.028,0.069c0.137,0.467,0.591,1.264,0.728,1.729
					c0.289,1.071-5.988,2.995-6.936,3.036c-1.443,0.083-2.995-0.893-3.188-2.417c-0.193-1.593-0.261-3.021,1.016-3.283l1.691-0.15
					C141.451,152.913,141.382,154.025,141.671,154.025z"/>
				<path fill="#231F20" d="M138.127,136.842l0.729,0.893c-0.069,0.015-0.138,0.028-0.207,0.041L138.127,136.842z"/>
				<path fill="#231F20" d="M135.654,133.834l2.473,3.008l0.521,0.934c-1.73,0.345-3.352,0.729-5.027-0.137
					c-1.016-0.521-1.292-1.415-0.48-2.28C133.813,134.63,134.748,134.205,135.654,133.834z"/>
				<polygon fill="#231F20" points="124.583,127.57 126.918,127.57 127.633,128.834 125.971,130.03 125.119,128.532 				"/>
				<path fill="#FFFFFF" d="M142.563,169.671l-21.455-37.788c0.027,0.055,0.096,0.055,0.164,0.096c0.138,0,0.233,0,0.371-0.042
					c0.192-0.026,0.357-0.055,0.563-0.124c0.371-0.109,0.701-0.232,1.071-0.371c0.701-0.302,1.4-0.632,2.074-0.976
					c0.219-0.11,0.438-0.233,0.658-0.357c0.605-0.314,1.195-0.646,1.772-1.003c0.37-0.206,0.741-0.438,1.112-0.673
					c0.563-0.371,1.099-0.728,1.633-1.167c0.263-0.206,0.537-0.438,0.771-0.673c0.165-0.124,0.33-0.302,0.468-0.467
					c0.026-0.069,0.068-0.124,0.068-0.192c0-0.041,0.027-0.109,0-0.137v-0.042l6.291,11.085l-2.473-3.008
					c-0.906,0.371-1.842,0.796-2.514,1.523c-0.812,0.865-0.537,1.759,0.479,2.28c1.676,0.865,3.296,0.481,5.028,0.137l8.035,14.162
					c-0.289-0.042-4.711,2.087-5.014,2.087c-0.289,0-0.221-1.111-0.495-1.07l-1.69,0.15c-1.276,0.262-1.207,1.689-1.016,3.283
					c0.192,1.525,1.744,2.5,3.188,2.417c0.947-0.041,7.225-1.964,6.936-3.036c-0.137-0.467-0.591-1.264-0.729-1.729
					c0-0.028-0.014-0.042-0.027-0.069l5.454,9.615c0.026,0.096-0.042,0.273-0.11,0.343c-0.096,0.165-0.262,0.357-0.426,0.495
					c-0.234,0.233-0.509,0.438-0.77,0.673c-0.537,0.398-1.071,0.797-1.635,1.167c-1.182,0.729-2.349,1.401-3.543,2.006
					c-0.812,0.398-1.607,0.796-2.474,1.126c-0.274,0.11-0.577,0.206-0.906,0.275c-0.138,0.069-0.303,0.096-0.44,0.096
					c-0.096,0.027-0.26,0.041-0.383-0.042C142.591,169.712,142.577,169.685,142.563,169.671z"/>
				<path fill="#231F20" d="M121.836,130.812c0.344-0.274,0.701-0.536,1.044-0.811c0.728-0.522,1.47-1.003,2.239-1.47l0.852,1.496
					l-0.617,0.439c-0.674,0.344-1.375,0.673-2.074,0.976c-0.371,0.138-0.701,0.262-1.071,0.371
					c-0.206,0.069-0.371,0.097-0.563,0.124c-0.138,0.042-0.233,0.042-0.371,0.042c-0.068-0.042-0.137-0.042-0.164-0.096
					c-0.068-0.11-0.041-0.179,0-0.247c0.067-0.124,0.164-0.234,0.261-0.356C121.506,131.1,121.671,130.977,121.836,130.812z"/>
				<path fill="#231F20" d="M113.471,147.94c0.096-0.823,1.401-0.988,2.021-1.058c0.905-0.096,1.825-0.041,2.731,0.042l-0.287,3.764
					c-0.92-0.22-1.828-0.495-2.68-0.934C114.652,149.452,113.375,148.792,113.471,147.94z"/>
				<path fill="#231F20" d="M115.572,110.593c-0.48,0.48,0.673,1.14,0.316,1.73c-0.397,0.646-0.756,1.276-1.318,1.785
					c-0.316,0.289-1.387,1.182-1.827,0.659c-0.522-0.604-0.397-6.675-0.138-7.184h1.951c0.166-0.357,0.936-0.248,1.25-0.042
					c0.797,0.55,0.576,1.14,1.182,2.033C117.275,110.016,115.668,109.672,115.572,110.593z"/>
				<path fill="#231F20" d="M109.583,126.307c0.783-0.33,1.662-0.521,2.5-0.577c0.124-0.014,0.261-0.026,0.385-0.026
					L109.583,126.307z"/>
				<path fill="#231F20" d="M109.063,121.979c0.59-0.604,1.317-1.317,2.184-1.47c0.934-0.165,1.333,0.632,1.621,1.388
					c0.232-0.344,0.81-1.359,1.332-0.962c0.371,0.275,0.385,0.989,0.371,1.401c-0.027,0.453-0.137,0.893-0.11,1.346
					c0.042,0.563,0.289,1.017,0.604,1.47l-2.597,0.55c-0.124,0-0.261,0.014-0.385,0.026c-0.838,0.056-1.717,0.248-2.5,0.577
					l-2.444,0.522c0.026-0.921,0.026-1.91,0.383-2.775C107.854,123.257,108.457,122.584,109.063,121.979z"/>
				<path fill="#231F20" d="M106.369,107.021h-0.977c0.057-0.082,0.098-0.178,0.152-0.261L106.369,107.021z"/>
				<path fill="#FFFFFF" d="M117.936,150.688l0.287-3.764c-0.906-0.083-1.826-0.138-2.731-0.042
					c-0.619,0.069-1.925,0.233-2.021,1.058c-0.096,0.853,1.182,1.512,1.786,1.813C116.107,150.193,117.016,150.468,117.936,150.688z
					 M104.693,166.168l2.939-37.829c0.041-0.275,0.137-0.508,0.274-0.769c0.302-0.468,0.797-0.839,1.305-1.1
					c0.123-0.055,0.247-0.124,0.371-0.165l2.885-0.604c0.853-0.056,1.744-0.015,2.597,0.124l4.065,1.745
					c0.248,0.232,0.468,0.493,0.604,0.796c0.166,0.274,0.233,0.604,0.205,0.934l-2.924,37.664c0-0.604-0.357-1.113-0.756-1.511
					c-0.426-0.426-1.003-0.756-1.566-1.03c-1.098-0.536-2.403-0.797-3.612-0.907c-1.208-0.096-2.541,0-3.708,0.343
					c-0.563,0.165-1.195,0.427-1.703,0.771C105.202,164.988,104.734,165.495,104.693,166.168z"/>
				<path fill="#231F20" d="M100.807,115.167c-0.015-0.22-0.041-0.398,0.055-0.59c0.123-0.221,0.343-0.345,0.453-0.592
					c0.191-0.494-0.041-0.961,0.274-1.429c0.192-0.288,0.343-0.59,0.536-0.879c1.084-1.552,2.32-3.008,3.27-4.657h0.976l1.401,0.44
					c0.014,0.438-0.069,0.521-0.303,0.893c-0.205,0.316-0.303,0.659-0.617,0.907c-0.345,0.261-0.715,0.439-1.031,0.755
					c-0.342,0.357-0.59,0.755-0.852,1.182c-0.33,0.494-0.783,0.879-1.031,1.416c-0.315,0.699-0.424,1.455-0.686,2.17
					c-0.139,0.397-0.385,0.741-0.467,1.14c-0.068,0.302,0.014,0.481-0.289,0.591c-0.247,0.096-0.673,0-0.934,0
					c-0.248,0-0.494,0-0.742-0.014C100.792,116.046,100.833,115.606,100.807,115.167z"/>
				<path fill="#231F20" d="M95.422,123.133c0,0.522-0.013,1.058,0.014,1.594c0.041,0.948,0.151,1.896,0.221,2.844l-3.063-0.139
					c-0.11-1.428,0.041-2.732,0.741-4.011c0.191-0.357,1.333-2.294,1.909-1.524C95.463,122.199,95.409,122.776,95.422,123.133z"/>
				<path fill="#231F20" d="M94.639,107.021h-8.873c0.838-1.099,1.896-1.896,3.242-1.317L94.639,107.021z"/>
				<path fill="#231F20" d="M87.029,112.419c-2.721,0.315-3.201,3.324-4.203,5.397c-0.275-2.789-0.33-5.535,1.195-7.967
					c0.438-0.714,1.002-1.882,1.744-2.83h8.873l1.469,0.345c-2.278,0.92-3.832,2.815-4.256,5.178
					c-0.234,1.25-1.277,5.385-3.078,4.602C86.548,116.156,90.436,112.048,87.029,112.419z"/>
				<path fill="#231F20" d="M90.463,131.306c-0.797-0.33-1.771-1.002-1.867-2.005l0.795-1.729h6.264h4.973
					c0.164,0.261,0.232,0.493,0.262,0.769l-2.074,2.569c-1.635,0.864-3.777,1.167-5.578,1.029
					C92.305,131.883,91.329,131.677,90.463,131.306z"/>
				<path fill="#FFFFFF" d="M88.596,129.301c0.096,1.003,1.071,1.676,1.868,2.005c0.865,0.371,1.841,0.577,2.774,0.632
					c1.799,0.139,3.941-0.165,5.576-1.029c0.537-0.234,1.045-0.563,1.442-1.003c0.343-0.357,0.646-0.839,0.646-1.401l2.927,37.664
					c0,0.055,0.015,0.096,0.015,0.15c0,0.577-0.357,1.113-0.742,1.483c-0.439,0.426-0.976,0.797-1.539,1.03
					c-1.1,0.536-2.403,0.797-3.612,0.907c-1.209,0.096-2.541,0.026-3.709-0.345c-0.604-0.165-1.209-0.397-1.704-0.755
					c-0.508-0.371-0.934-0.879-0.977-1.511L88.596,129.301z"/>
				<path fill="#231F20" d="M72.305,144.369c0.26,0.508,0.479,1.908-0.234,2.156c-0.371,0.138-0.92,0.068-1.319,0.056
					c-0.453-0.015-1.017-0.027-1.317-0.439c-0.771-1.029,0.426-2.019,1.317-2.279h-0.563
					C70.875,143.861,71.934,143.627,72.305,144.369z"/>
				<path fill="#231F20" d="M65.422,168.778l-2.609-1.305c0.015-0.165,0.069-0.412,0.015-0.604c0.33,0.191,0.659,0.412,0.976,0.632
					c0.44,0.33,0.865,0.632,1.264,0.961C65.105,168.503,65.258,168.627,65.422,168.778z"/>
				<path fill="#231F20" d="M61.494,163.888c0.096-0.66,0-1.319,0.15-1.964c0.303,0.137,0.508,0.385,0.797,0.536
					c0.192,0.041,0.371,0.083,0.551,0.137c0.246,0.083,0.467,0.206,0.658,0.357c0.521,0.397,1.1,0.714,1.635,1.085
					c0.673,0.453,1.841,0.755,2.597,1.058c0.316,0.138-1.8,3.791-1.635,4.093l-0.825-0.412c-0.164-0.15-0.314-0.273-0.355-0.315
					c-0.398-0.33-0.824-0.632-1.264-0.961c-0.316-0.22-0.646-0.439-0.977-0.632c-0.014-0.083-0.068-0.151-0.137-0.206
					c-0.11-0.068-0.219-0.068-0.33-0.083c-0.098-0.068-0.207-0.138-0.316-0.192c-0.302-0.289-0.509-0.701-0.577-1.113
					C61.398,164.781,61.411,164.369,61.494,163.888z"/>
				<path fill="#231F20" d="M62.359,166.58c-0.084-0.015-0.166-0.041-0.248-0.124c-0.027-0.027-0.041-0.041-0.068-0.068
					C62.152,166.443,62.264,166.512,62.359,166.58z"/>
				<path fill="#231F20" d="M65.464,94.851l-4.603,4.08c-0.205-0.274-0.233-0.604-0.164-0.865c0.027-0.343,0.164-0.604,0.289-0.879
					c0.302-0.536,0.742-1.029,1.181-1.428c0.467-0.398,1.003-0.77,1.565-1.003c0.303-0.11,0.563-0.206,0.894-0.206
					C64.941,94.521,65.271,94.59,65.464,94.851z"/>
				<path fill="#FFFFFF" d="M72.305,144.369c-0.371-0.742-1.43-0.509-2.115-0.509h0.563c-0.893,0.262-2.087,1.25-1.318,2.28
					c0.303,0.412,0.865,0.426,1.318,0.439c0.398,0.014,0.948,0.083,1.318-0.056C72.785,146.278,72.564,144.877,72.305,144.369z
					 M55.271,163.586l21.456-37.829c0.069-0.096,0.234-0.096,0.344-0.068c0.123,0,0.234,0,0.357,0.041l5.988,2.803
					c0.77,0.467,1.539,0.947,2.238,1.47c0.371,0.274,0.701,0.536,1.031,0.811c0.164,0.165,0.33,0.288,0.508,0.468
					c0.096,0.124,0.164,0.233,0.234,0.356c0.026,0.068,0.067,0.137,0.026,0.247l-21.181,37.32H66.26
					c-0.014-0.015-0.014-0.015-0.014-0.015c-0.165-0.302,1.951-3.956,1.635-4.093c-0.756-0.302-1.924-0.604-2.597-1.058
					c-0.535-0.371-1.113-0.688-1.634-1.085c-0.192-0.151-0.412-0.275-0.659-0.357c-0.179-0.055-0.357-0.096-0.55-0.137
					c-0.289-0.151-0.496-0.398-0.797-0.536c-0.151,0.646-0.056,1.305-0.151,1.964c-0.083,0.48-0.097,0.894-0.028,1.387
					c0.068,0.412,0.275,0.824,0.577,1.113c-0.302-0.191-0.632-0.385-0.948-0.563c-0.934-0.495-1.867-1.002-2.844-1.429
					c-0.467-0.233-0.961-0.439-1.469-0.604C56.618,163.723,55.451,163.284,55.271,163.586z"/>
			</g>
			<g>
				<path fill="none" stroke="#000000" stroke-linecap="round" stroke-linejoin="round" d="M64.201,169.396
					c0.26,0.11,1.4,0.509,1.744,0.345"/>
				
					<line fill="none" stroke="#000000" stroke-linecap="round" stroke-linejoin="round" x1="66.26" y1="169.204" x2="66" y2="169.671"/>
				
					<line fill="none" stroke="#000000" stroke-linecap="round" stroke-linejoin="round" x1="55.271" y1="163.586" x2="76.727" y2="125.757"/>
				<path fill="none" stroke="#000000" stroke-linecap="round" stroke-linejoin="round" d="M62.043,166.388
					c-0.302-0.191-0.632-0.385-0.947-0.563c-0.935-0.495-1.869-1.002-2.845-1.429c-0.467-0.233-0.961-0.439-1.469-0.604
					c-0.165-0.069-1.332-0.508-1.511-0.206"/>
				<path fill="none" stroke="#000000" stroke-linecap="round" stroke-linejoin="round" d="M62.826,166.869
					c-0.151-0.11-0.303-0.206-0.467-0.289"/>
				<path fill="none" stroke="#000000" stroke-linecap="round" stroke-linejoin="round" d="M66,169.671
					c0.109-0.192-0.262-0.591-0.578-0.894"/>
				<polyline fill="none" stroke="#000000" stroke-linecap="round" stroke-linejoin="round" points="55.299,163.6 55.422,163.682 
					66,169.671 				"/>
				<path fill="none" stroke="#000000" stroke-linecap="round" stroke-linejoin="round" d="M55.271,163.586
					c-0.027,0.068-0.027,0.137,0,0.165c0.042,0.109,0.069,0.179,0.137,0.233c0.165,0.233,0.398,0.48,0.632,0.674
					c0.343,0.302,0.713,0.563,1.044,0.838c0.729,0.536,1.497,1.003,2.266,1.47c1.416,0.838,3.312,1.841,4.851,2.431"/>
				<polyline fill="none" stroke="#000000" stroke-linecap="round" stroke-linejoin="round" points="64.201,169.396 55.422,163.682 
					55.299,163.6 55.271,163.586 				"/>
				<path fill="none" stroke="#000000" stroke-linecap="round" stroke-linejoin="round" d="M147.509,91.678
					c-0.633-1.14-1.168-2.431-1.375-3.736c-0.206-1.25-0.096-2.747,0.907-3.708"/>
				<path fill="none" stroke="#000000" stroke-linecap="round" stroke-linejoin="round" d="M87.455,131.883
					c0.041-0.11,0-0.179-0.027-0.247c-0.068-0.124-0.138-0.234-0.234-0.356c-0.178-0.18-0.342-0.303-0.508-0.468
					c-0.33-0.274-0.66-0.536-1.029-0.811c-0.701-0.522-1.471-1.003-2.239-1.47"/>
				
					<line fill="none" stroke="#000000" stroke-linecap="round" stroke-linejoin="round" x1="125.119" y1="128.532" x2="124.583" y2="127.57"/>
				<polyline fill="none" stroke="#000000" stroke-linecap="round" stroke-linejoin="round" points="126.012,130.111 
					125.971,130.03 125.119,128.532 				"/>
				
					<line fill="none" stroke="#000000" stroke-linecap="round" stroke-linejoin="round" x1="100.902" y1="128.504" x2="103.828" y2="166.168"/>
				
					<line fill="none" stroke="#000000" stroke-linecap="round" stroke-linejoin="round" x1="91.563" y1="167.13" x2="88.596" y2="129.301"/>
				<path fill="none" stroke="#000000" stroke-linecap="round" stroke-linejoin="round" d="M142.605,169.726
					c-0.015-0.014-0.028-0.041-0.043-0.055"/>
				
					<line fill="none" stroke="#000000" stroke-linecap="round" stroke-linejoin="round" x1="131.836" y1="125.757" x2="131.836" y2="125.798"/>
				<path fill="none" stroke="#000000" stroke-linecap="round" stroke-linejoin="round" d="M142.563,169.671
					c-0.041,0-0.041,0-0.041,0"/>
				<path fill="none" stroke="#000000" stroke-linecap="round" stroke-linejoin="round" d="M121.107,131.883c0,0,0,0,0-0.041"/>
				
					<line fill="none" stroke="#000000" stroke-linecap="round" stroke-linejoin="round" x1="65.464" y1="94.851" x2="77.661" y2="108.615"/>
				
					<line fill="none" stroke="#000000" stroke-linecap="round" stroke-linejoin="round" x1="159.294" y1="122.694" x2="132.962" y2="122.694"/>
				<path fill="none" stroke="#000000" stroke-linecap="round" stroke-linejoin="round" d="M132.371,122.694
					c-1.182,0-2.211-0.479-3.077-1.181c-0.864-0.701-1.565-1.635-2.073-2.596c-1.031-1.979-1.498-4.313-1.498-6.483"/>
				<path fill="none" stroke="#000000" stroke-linecap="round" stroke-linejoin="round" d="M146.809,168.27
					c-0.812,0.398-1.607,0.796-2.474,1.126"/>
				<path fill="none" stroke="#000000" stroke-linecap="round" stroke-linejoin="round" d="M125.354,130.468
					c-0.674,0.344-1.375,0.673-2.074,0.976c-0.371,0.138-0.701,0.262-1.071,0.371c-0.206,0.069-0.371,0.097-0.563,0.124
					c-0.138,0.042-0.233,0.042-0.371,0.042c-0.068-0.042-0.137-0.042-0.164-0.096"/>
				<path fill="none" stroke="#000000" stroke-linecap="round" stroke-linejoin="round" d="M100.889,128.339
					c0,0.055,0.014,0.11,0.014,0.165c0,0.563-0.301,1.044-0.646,1.401c-0.397,0.438-0.907,0.769-1.442,1.003"/>
				
					<line fill="none" stroke="#000000" stroke-linecap="round" stroke-linejoin="round" x1="98.814" y1="130.908" x2="100.889" y2="128.339"/>
				<path fill="none" stroke="#000000" stroke-linecap="round" stroke-linejoin="round" d="M100.628,127.57
					c0.164,0.262,0.233,0.494,0.261,0.77"/>
				<path fill="none" stroke="#000000" stroke-linecap="round" stroke-linejoin="round" d="M103.828,166.168
					c0,0.055,0.014,0.096,0.014,0.15c0,0.577-0.357,1.113-0.742,1.483c-0.438,0.426-0.975,0.797-1.539,1.03
					c-1.099,0.536-2.402,0.797-3.611,0.907c-1.209,0.096-2.541,0.026-3.709-0.345c-0.604-0.165-1.209-0.397-1.704-0.755
					c-0.509-0.371-0.935-0.879-0.976-1.511"/>
				
					<line fill="none" stroke="#000000" stroke-linecap="round" stroke-linejoin="round" x1="106.369" y1="107.021" x2="124.309" y2="107.021"/>
				
					<line fill="none" stroke="#000000" stroke-linecap="round" stroke-linejoin="round" x1="94.639" y1="107.021" x2="105.395" y2="107.021"/>
				
					<line fill="none" stroke="#000000" stroke-linecap="round" stroke-linejoin="round" x1="81.246" y1="107.021" x2="85.766" y2="107.021"/>
				<path fill="none" stroke="#000000" stroke-linecap="round" stroke-linejoin="round" d="M104.693,166.168
					c0,0.042,0,0.083,0,0.124c0,0.59,0.33,1.14,0.742,1.511c0.438,0.426,1.002,0.797,1.537,1.03
					c1.141,0.536,2.404,0.797,3.641,0.907c1.207,0.096,2.541,0.026,3.707-0.345c0.563-0.165,1.168-0.397,1.676-0.755
					c0.495-0.371,0.936-0.879,1.003-1.511"/>
				<path fill="none" stroke="#000000" stroke-linecap="round" stroke-linejoin="round" d="M125.723,112.433
					c-0.714-1.264-1.291-2.802-1.441-4.258"/>
				
					<line fill="none" stroke="#000000" stroke-linecap="round" stroke-linejoin="round" x1="124.295" y1="108.161" x2="125.723" y2="112.433"/>
				
					<line fill="none" stroke="#000000" stroke-linecap="round" stroke-linejoin="round" x1="124.281" y1="108.147" x2="124.281" y2="108.161"/>
				
					<line fill="none" stroke="#000000" stroke-linecap="round" stroke-linejoin="round" x1="119.939" y1="129.301" x2="117.016" y2="166.965"/>
				
					<line fill="none" stroke="#000000" stroke-linecap="round" stroke-linejoin="round" x1="104.693" y1="166.168" x2="107.633" y2="128.339"/>
				<path fill="none" stroke="#000000" stroke-linecap="round" stroke-linejoin="round" d="M119.939,129.301
					c0.028-0.33-0.041-0.659-0.205-0.934"/>
				<path fill="none" stroke="#000000" stroke-linecap="round" stroke-linejoin="round" d="M165.915,112.433
					c0,2.17-0.427,4.505-1.47,6.483c-0.535,0.961-1.195,1.896-2.074,2.596c-0.865,0.701-1.938,1.181-3.077,1.181"/>
				<path fill="none" stroke="#000000" stroke-linecap="round" stroke-linejoin="round" d="M60.861,98.931
					c-0.205-0.274-0.233-0.604-0.164-0.865c0.027-0.343,0.164-0.604,0.289-0.879c0.302-0.536,0.742-1.029,1.181-1.428
					c0.467-0.398,1.003-0.77,1.565-1.003c0.303-0.11,0.563-0.206,0.894-0.206c0.315-0.027,0.646,0.042,0.838,0.302"/>
				
					<line fill="none" stroke="#000000" stroke-linecap="round" stroke-linejoin="round" x1="65.464" y1="94.851" x2="60.861" y2="98.931"/>
				<path fill="none" stroke="#000000" stroke-linecap="round" stroke-linejoin="round" d="M149.514,83.354
					c1.195,0,2.432,0.398,3.502,0.907c1.071,0.495,2.103,1.167,3.077,1.909c1.841,1.47,3.544,3.407,4.685,5.508"/>
				
					<line fill="none" stroke="#000000" stroke-linecap="round" stroke-linejoin="round" x1="125.284" y1="104.975" x2="147.042" y2="84.233"/>
				
					<line fill="none" stroke="#000000" stroke-linecap="round" stroke-linejoin="round" x1="152.659" y1="112.433" x2="165.915" y2="112.433"/>
				
					<line fill="none" stroke="#000000" stroke-linecap="round" stroke-linejoin="round" x1="139.02" y1="112.433" x2="160.777" y2="91.678"/>
				
					<line fill="none" stroke="#000000" stroke-linecap="round" stroke-linejoin="round" x1="160.777" y1="91.678" x2="147.509" y2="91.678"/>
				
					<line fill="none" stroke="#000000" stroke-linecap="round" stroke-linejoin="round" x1="147.509" y1="91.678" x2="132.674" y2="105.785"/>
				<path fill="none" stroke="#000000" stroke-linecap="round" stroke-linejoin="round" d="M124.281,108.147
					c0-0.356,0-0.769,0.027-1.126"/>
				
					<line fill="none" stroke="#000000" stroke-linecap="round" stroke-linejoin="round" x1="132.674" y1="105.785" x2="125.723" y2="112.433"/>
				<path fill="none" stroke="#000000" stroke-linecap="round" stroke-linejoin="round" d="M117.001,167.13
					c0-0.055,0.015-0.11,0.015-0.165c0-0.604-0.357-1.113-0.756-1.511c-0.426-0.426-1.003-0.756-1.566-1.03
					c-1.098-0.536-2.403-0.797-3.612-0.907c-1.208-0.096-2.541,0-3.708,0.343c-0.563,0.165-1.195,0.427-1.703,0.771
					c-0.467,0.357-0.936,0.865-0.977,1.538"/>
				
					<line fill="none" stroke="#000000" stroke-linecap="round" stroke-linejoin="round" x1="107.908" y1="127.57" x2="100.654" y2="127.57"/>
				<path fill="none" stroke="#000000" stroke-linecap="round" stroke-linejoin="round" d="M119.13,127.57
					c-1.03-0.976-2.733-1.511-4.065-1.744"/>
				
					<line fill="none" stroke="#000000" stroke-linecap="round" stroke-linejoin="round" x1="115.064" y1="125.826" x2="119.13" y2="127.57"/>
				<path fill="none" stroke="#000000" stroke-linecap="round" stroke-linejoin="round" d="M124.309,107.021
					c0.11-0.769,0.371-1.511,0.976-2.046"/>
				
					<line fill="none" stroke="#000000" stroke-linecap="round" stroke-linejoin="round" x1="125.284" y1="104.975" x2="124.309" y2="107.021"/>
				
					<line fill="none" stroke="#000000" stroke-linecap="round" stroke-linejoin="round" x1="127.316" y1="127.57" x2="126.959" y2="127.57"/>
				
					<line fill="none" stroke="#000000" stroke-linecap="round" stroke-linejoin="round" x1="89.391" y1="127.57" x2="83.979" y2="127.57"/>
				
					<line fill="none" stroke="#000000" stroke-linecap="round" stroke-linejoin="round" x1="83.979" y1="127.57" x2="83.417" y2="128.532"/>
				<path fill="none" stroke="#000000" stroke-linecap="round" stroke-linejoin="round" d="M119.734,128.367
					c-0.137-0.303-0.356-0.563-0.604-0.796"/>
				<path fill="none" stroke="#000000" stroke-linecap="round" stroke-linejoin="round" d="M147.042,84.233
					c0.659-0.646,1.606-0.879,2.474-0.879"/>
				
					<line fill="none" stroke="#000000" stroke-linecap="round" stroke-linejoin="round" x1="149.514" y1="83.354" x2="147.042" y2="84.233"/>
				<path fill="none" stroke="#000000" stroke-linecap="round" stroke-linejoin="round" d="M107.908,127.57
					c-0.137,0.262-0.233,0.494-0.274,0.77"/>
				<path fill="none" stroke="#000000" stroke-linecap="round" stroke-linejoin="round" d="M109.213,126.471
					c-0.508,0.261-1.003,0.632-1.305,1.099"/>
				<path fill="none" stroke="#000000" stroke-linecap="round" stroke-linejoin="round" d="M77.428,125.729
					c-0.123-0.041-0.232-0.041-0.357-0.041c-0.108-0.027-0.273-0.027-0.342,0.068"/>
				
					<line fill="none" stroke="#000000" stroke-linecap="round" stroke-linejoin="round" x1="74.791" y1="114.7" x2="60.861" y2="98.931"/>
				
					<line fill="none" stroke="#000000" stroke-linecap="round" stroke-linejoin="round" x1="132.962" y1="122.694" x2="132.371" y2="122.694"/>
				<path fill="none" stroke="#000000" stroke-linecap="round" stroke-linejoin="round" d="M88.596,129.301
					c-0.041-0.7,0.37-1.305,0.795-1.729"/>
				
					<line fill="none" stroke="#000000" stroke-linecap="round" stroke-linejoin="round" x1="89.391" y1="127.57" x2="88.596" y2="129.301"/>
				<path fill="none" stroke="#000000" stroke-linecap="round" stroke-linejoin="round" d="M159.294,122.694
					c-1.167,0-2.196-0.479-3.063-1.181c-0.906-0.701-1.58-1.635-2.073-2.596c-1.044-1.979-1.498-4.313-1.498-6.483"/>
				<path fill="none" stroke="#000000" stroke-linecap="round" stroke-linejoin="round" d="M65.943,169.74
					c0.029,0,0.029-0.042,0.056-0.069"/>
				<path fill="none" stroke="#000000" stroke-linecap="round" stroke-linejoin="round" d="M131.135,125.729
					c-1.003,1.071-2.308,1.841-3.818,1.841"/>
				<path fill="none" stroke="#000000" stroke-linecap="round" stroke-linejoin="round" d="M132.962,122.694
					c-0.426,1.1-1.03,2.171-1.827,3.036"/>
				
					<line fill="none" stroke="#000000" stroke-linecap="round" stroke-linejoin="round" x1="131.135" y1="125.729" x2="132.962" y2="122.694"/>
				<path fill="none" stroke="#000000" stroke-linecap="round" stroke-linejoin="round" d="M77.661,108.615
					c0.976-0.935,2.185-1.595,3.585-1.595"/>
				<path fill="none" stroke="#000000" stroke-linecap="round" stroke-linejoin="round" d="M77.428,125.729
					c-1.332-1.441-2.102-3.379-2.5-5.22c-0.398-1.896-0.439-3.901-0.137-5.81"/>
				
					<line fill="none" stroke="#000000" stroke-linecap="round" stroke-linejoin="round" x1="124.583" y1="127.57" x2="119.13" y2="127.57"/>
				
					<line fill="none" stroke="#000000" stroke-linecap="round" stroke-linejoin="round" x1="139.02" y1="112.433" x2="152.659" y2="112.433"/>
				<polyline fill="none" stroke="#000000" stroke-linecap="round" stroke-linejoin="round" points="126.918,127.57 
					127.633,128.834 127.784,129.108 				"/>
				<path fill="none" stroke="#000000" stroke-linecap="round" stroke-linejoin="round" d="M83.417,128.532
					c-0.935-0.563-1.909-1.1-2.913-1.607c-0.796-0.357-2.169-0.989-3.076-1.195"/>
				
					<line fill="none" stroke="#000000" stroke-linecap="round" stroke-linejoin="round" x1="77.428" y1="125.729" x2="83.417" y2="128.532"/>
				<path fill="none" stroke="#000000" stroke-linecap="round" stroke-linejoin="round" d="M121.107,131.883
					c-0.067-0.11-0.041-0.179,0-0.247c0.068-0.124,0.166-0.234,0.262-0.356c0.137-0.18,0.302-0.303,0.467-0.468
					c0.344-0.274,0.701-0.536,1.044-0.811c0.728-0.522,1.47-1.003,2.239-1.47"/>
				<path fill="none" stroke="#000000" stroke-linecap="round" stroke-linejoin="round" d="M131.135,125.729
					c0.096-0.041,0.233-0.041,0.371-0.041c0.055-0.027,0.262-0.027,0.33,0.11"/>
				<path fill="none" stroke="#000000" stroke-linecap="round" stroke-linejoin="round" d="M144.335,169.396
					c-0.274,0.11-0.577,0.206-0.905,0.275c-0.139,0.069-0.304,0.096-0.441,0.096c-0.096,0.027-0.26,0.041-0.383-0.042
					c-0.028,0-0.056-0.026-0.084-0.055"/>
				<path fill="none" stroke="#000000" stroke-linecap="round" stroke-linejoin="round" d="M153.292,163.586
					c0.026,0.096-0.042,0.273-0.11,0.343c-0.096,0.165-0.262,0.357-0.426,0.495c-0.234,0.233-0.509,0.439-0.77,0.673
					c-0.536,0.398-1.071,0.797-1.635,1.167c-1.182,0.729-2.349,1.401-3.543,2.006"/>
				
					<line fill="none" stroke="#000000" stroke-linecap="round" stroke-linejoin="round" x1="147.838" y1="153.971" x2="153.292" y2="163.586"/>
				<polyline fill="none" stroke="#000000" stroke-linecap="round" stroke-linejoin="round" points="138.648,137.776 
					146.686,151.938 147.439,153.284 				"/>
				
					<line fill="none" stroke="#000000" stroke-linecap="round" stroke-linejoin="round" x1="131.836" y1="125.757" x2="138.127" y2="136.842"/>
				
					<line fill="none" stroke="#000000" stroke-linecap="round" stroke-linejoin="round" x1="142.563" y1="169.671" x2="121.107" y2="131.883"/>
				<path fill="none" stroke="#000000" stroke-linecap="round" stroke-linejoin="round" d="M131.836,125.798
					c0.027,0.027,0,0.096,0,0.137c0,0.069-0.042,0.124-0.068,0.192c-0.138,0.165-0.303,0.343-0.468,0.467
					c-0.233,0.234-0.508,0.467-0.771,0.673c-0.534,0.439-1.07,0.796-1.633,1.167c-0.371,0.233-0.742,0.467-1.112,0.673
					c-0.577,0.357-1.167,0.688-1.772,1.003c-0.22,0.124-0.439,0.247-0.658,0.357"/>
				<polyline fill="none" stroke="#000000" stroke-linecap="round" stroke-linejoin="round" points="125.354,130.468 
					125.971,130.03 127.633,128.834 131.836,125.798 				"/>
				<path fill="none" stroke="#000000" stroke-linecap="round" stroke-linejoin="round" d="M98.814,130.908
					c-1.635,0.864-3.777,1.167-5.578,1.029c-0.934-0.055-1.908-0.261-2.773-0.632c-0.797-0.33-1.771-1.002-1.867-2.005"/>
				<path fill="none" stroke="#000000" stroke-linecap="round" stroke-linejoin="round" d="M74.791,114.7
					c0.371-2.144,1.277-4.506,2.871-6.085"/>
				<polyline fill="none" stroke="#000000" stroke-linecap="round" stroke-linejoin="round" points="126.959,127.57 126.918,127.57 
					124.583,127.57 				"/>
				<polyline fill="none" stroke="#000000" stroke-linecap="round" stroke-linejoin="round" points="100.654,127.57 100.628,127.57 
					95.654,127.57 89.391,127.57 				"/>
				<path fill="none" stroke="#000000" stroke-linecap="round" stroke-linejoin="round" d="M127.316,127.57
					c-1.168,0-2.238-0.467-3.131-1.209c-0.879-0.728-1.58-1.702-2.076-2.705"/>
				<path fill="none" stroke="#000000" stroke-linecap="round" stroke-linejoin="round" d="M115.064,125.826
					c-0.853-0.138-1.744-0.18-2.597-0.124c-0.124,0-0.261,0.014-0.385,0.026c-0.838,0.056-1.717,0.248-2.5,0.577
					c-0.124,0.041-0.248,0.11-0.371,0.165"/>
				
					<line fill="none" stroke="#000000" stroke-linecap="round" stroke-linejoin="round" x1="125.723" y1="112.433" x2="139.02" y2="112.433"/>
				<path fill="none" stroke="#000000" stroke-linecap="round" stroke-linejoin="round" d="M122.109,123.656
					c-1.276-2.445-1.633-5.439-1.332-8.159c0.166-1.36,0.496-2.733,1.059-4.012c0.577-1.25,1.359-2.431,2.445-3.311v-0.014h0.014
					l0.014-0.015"/>
				<polyline fill="none" stroke="#000000" stroke-linecap="round" stroke-linejoin="round" points="66.26,169.204 66.273,169.204 
					87.455,131.883 				"/>
			</g>
		</g>
	</g>
	<path fill="#231F20" stroke="#000000" stroke-miterlimit="10" d="M90.672,151.485c1.12-0.021,2.348-0.09,3.426,0.284
		c0.303,0.105,0.666,0.277,0.758,0.616c0.078,0.3-0.07,0.623-0.151,0.906c-0.112,0.391-0.138,0.776-0.033,1.177
		c0.132,0.503,0.41,0.955,0.642,1.417c0.194,0.39,0.443,0.88,0.314,1.328c-0.129,0.458-0.621,0.669-1.042,0.782
		c-1.146,0.312-2.397,0.203-3.569,0.13"/>
	<path fill="#231F20" stroke="#000000" stroke-miterlimit="10" d="M100.975,133.741c-0.832,0.523-1.685,0.853-2.646,1.054
		c-0.573,0.118-1.155,0.205-1.729,0.313c-0.379,0.073-0.841,0.13-1.168,0.345c-0.619,0.402,0.771,0.807,1.002,0.869
		c0.856,0.229,1.768,0.313,2.655,0.26c0.688-0.042,1.372-0.165,2.058-0.262"/>
	<path fill="#231F20" stroke="#000000" stroke-miterlimit="10" d="M98.742,161.843c-0.674,0.389-1.848,1.066-1.393,2.024
		c0.446,0.933,1.868,0.992,2.646,0.491c0.75-0.481,0.885-1.5,0.255-2.147c-0.503-0.518-1.105-0.378-1.68-0.081"/>
	<path fill="none" stroke="#231F20" stroke-miterlimit="10" d="M106.754,166.278c0.508-0.646,0.988-1.092,1.852-1.04
		c0.394,0.022,0.783,0.079,1.176,0.082c0.432,0.005,0.867-0.044,1.298-0.024c0.817,0.033,1.741,0.457,1.866,1.364
		c0.134,0.979-0.971,0.953-1.641,0.906"/>
	<path fill="none" stroke="#231F20" stroke-miterlimit="10" d="M124.182,136.319c0.311-0.197,0.731-0.044,1.082-0.113
		c0.437-0.088,0.838-0.254,1.258-0.393c0.416-0.131,0.769-0.383,1.162-0.568c0.221-0.105,0.496-0.263,0.695-0.404
		c0.188-0.134,0.346-0.342,0.523-0.497"/>
	<path fill="none" stroke="#231F20" stroke-miterlimit="10" d="M142.382,144.816c-0.049-0.214-0.53-0.058-0.649,0.008
		c-0.183,0.099-0.267,0.158-0.494,0.17c-0.082,0.001-0.162-0.012-0.244-0.006c-0.37,0.021-0.762,0.267-1.129,0.358
		c-0.225,0.057-0.455,0.099-0.674,0.156c-0.142,0.036-0.248,0.108-0.383,0.165c-0.402,0.161-0.836,0.055-1.254,0.137
		c-0.154,0.032-0.32,0.038-0.479,0.08c-0.145,0.039-0.271,0.125-0.418,0.144c-0.096,0.016-0.188-0.018-0.288,0.012
		c-0.097,0.025-0.142,0.086-0.254,0.064"/>
	<path fill="none" stroke="#231F20" stroke-miterlimit="10" d="M140.406,164.477c0.301-0.118,0.65-0.12,0.928-0.275
		c0.309-0.172,0.609-0.375,0.906-0.573c0.303-0.202,0.527-0.405,0.789-0.659c0.316-0.303,0.336-0.702,0.554-1.067"/>
	<path fill="none" stroke="#231F20" stroke-miterlimit="10" d="M150.193,91.933c-0.061,0.276-0.094,0.567-0.207,0.826
		c-0.163,0.378-0.487,0.611-0.807,0.848c-0.297,0.222-0.6,0.435-0.764,0.778c-0.107,0.229-0.159,0.409-0.357,0.582
		c-0.588,0.506-1.209,0.932-1.728,1.519c-0.39,0.441-0.828,0.764-1.265,1.15c-0.443,0.39-0.78,0.971-1.123,1.444
		c-0.484,0.667-0.84,1.529-1.438,2.104c-0.302,0.286-0.699,0.444-1.074,0.604c-0.572,0.241-1.14,0.479-1.675,0.796
		c-0.597,0.349-1.209,0.767-1.584,1.366"/>
	<path fill="none" stroke="#231F20" stroke-miterlimit="10" d="M144.786,103.267c-1.88,1.671-3.499,3.675-5.621,5.056
		c-0.874,0.566-1.606,1.295-2.281,2.075c-0.309,0.356-0.657,0.67-0.964,1.026c-0.177,0.203-0.5,0.72-0.836,0.599"/>
	<path fill="none" stroke="#231F20" stroke-miterlimit="10" d="M75.848,109.705c-0.172,0.017-0.49,0.041-0.647-0.036
		c-0.251-0.123-0.421-0.412-0.523-0.651c-0.12-0.28-0.375-0.457-0.593-0.667c-0.166-0.159-0.257-0.354-0.411-0.516
		c-0.841-0.868-1.853-1.553-2.888-2.165"/>
	<path fill="none" stroke="#231F20" stroke-miterlimit="10" d="M70.697,136.948c0.193-0.023,0.508,0.063,0.685,0.137
		c0.14,0.061,0.255,0.19,0.4,0.257c0.143,0.06,0.26,0.104,0.379,0.179c0.374,0.238,0.774,0.451,1.239,0.566
		c0.341,0.084,0.578,0.342,0.916,0.435c0.236,0.066,0.479-0.022,0.718,0.033c0.321,0.077,0.512,0.292,0.851,0.337
		c0.357,0.047,0.551,0.229,0.881,0.348"/>
	<path fill="none" stroke="#231F20" stroke-miterlimit="10" d="M73.559,154.919c-0.803-0.014-1.523-0.355-2.324-0.366
		c-0.518-0.007-0.899-0.085-1.377-0.244c-0.33-0.111-0.672-0.06-1.01-0.128c-0.287-0.055-0.51-0.19-0.75-0.349
		c-0.119-0.076-0.244-0.183-0.391-0.198c-0.091-0.013-0.169,0.05-0.264,0.039c-0.252-0.027-0.42-0.264-0.644-0.357
		c-0.194-0.081-0.392-0.101-0.567-0.229"/>
	<path fill="none" stroke="#231F20" stroke-miterlimit="10" d="M90.041,143.357c0.25-0.004,0.271,0.032,0.447,0.147
		c0.324,0.211,0.703,0.308,1.061,0.438c0.477,0.174,0.922,0.406,1.417,0.519c0.538,0.123,1.089,0.163,1.64,0.155
		c0.485-0.008,0.918,0.032,1.39-0.114"/>
	<path fill="none" stroke="#231F20" stroke-miterlimit="10" d="M107.098,134.772c0.594-0.879,1.266-1.852,2.334-2.18
		c0.897-0.275,2-0.104,2.93-0.11"/>
	<path fill="none" stroke="#231F20" stroke-miterlimit="10" d="M109.5,140.152c1.32-0.285,2.465-0.705,3.825-0.28
		c0.583,0.183,1.19,0.464,1.603,0.932c0.405,0.462,0.629,1.081,0.867,1.638"/>
	<path fill="none" stroke="#231F20" stroke-miterlimit="10" d="M117.287,161.328c-0.34-0.077-0.623-0.336-0.922-0.506
		c-0.372-0.212-0.76-0.18-1.153-0.327c-0.603-0.229-1.229-0.367-1.876-0.43c-0.156-0.015-0.288-0.077-0.436-0.102
		c-0.18-0.03-0.342,0.003-0.522,0.003c-0.276,0-0.506-0.122-0.776-0.134c-0.556-0.024-1.08-0.103-1.642-0.108"/>
	<path fill="none" stroke="#231F20" stroke-miterlimit="10" d="M83.402,127.562c-0.994-0.54-1.06-1.505-1.715-2.329
		c-0.356-0.447-0.869-1.068-1.013-1.608c-0.034-0.125,0.005-0.242-0.05-0.381c-0.068-0.184-0.254-0.313-0.348-0.483
		c-0.188-0.344-0.164-0.7-0.236-1.077c-0.059-0.302-0.208-0.5-0.318-0.776c-0.148-0.36-0.117-0.688-0.097-1.073"/>
	<path fill="none" stroke="#231F20" stroke-miterlimit="10" d="M99.371,106.956c-1.596,2.015-3.133,3.927-3.773,6.458
		c-0.563,2.21-0.766,5.01,1.198,6.593"/>
	<path fill="none" stroke="#231F20" stroke-miterlimit="10" d="M163.186,113.025c-0.354,2.038-0.893,4.265-2.812,5.396
		c-0.8,0.474-1.745,0.643-2.649,0.401c-0.929-0.248-1.697-0.86-2.437-1.449"/>
	<path fill="#231F20" d="M157.006,113.025c0.271,1.025,0.887,2.425,2.146,2.458c1.221,0.033,1.443-1.425,1.517-2.346"/>
	<path fill="#231F20" d="M152.434,91.933c-0.056-0.927,0.023-1.629,0.969-1.996c1.154-0.446,1.828,0.226,2.464,1.139"/>
	<path fill="none" stroke="#231F20" stroke-miterlimit="10" d="M140.292,90.587c0.001,0.516,0,1.032,0,1.548
		c0,0.229-0.001,0.46,0,0.69c0.001,0.313,0.069,0.346,0.347,0.511"/>
	<path fill="#231F20" d="M138.003,122.496c-0.265-0.581-0.53-1.17-0.892-1.699c-0.303-0.444-0.676-0.815-1.059-1.19
		c-0.789-0.771-1.302-1.686-1.328-2.813c-0.006-0.201-0.035-0.841,0.235-0.933c0.253-0.08,0.5,0.44,0.595,0.596
		c0.272,0.451,0.532,0.911,0.875,1.313c0.336,0.396,0.738,0.71,1.16,1.006c-0.015-0.28-0.212-1.604,0.342-1.53
		c0.269,0.036,0.521,0.38,0.678,0.569c0.279,0.344,0.519,0.723,0.742,1.104c0.375,0.646,0.676,1.337,1.08,1.965
		c0.357,0.56,0.814,1.041,1.266,1.525"/>
	<path fill="#231F20" d="M148.908,112.881c0.115,1.119,0.318,2.255,0.304,3.379c-0.01,0.664-0.213,1.771-1.133,1.442
		c-0.935-0.335-1.446-1.521-1.767-2.373c-0.316-0.846-0.569-1.706-0.926-2.535"/>
	<path fill="#231F20" d="M131.736,106.1c-0.024-0.006-0.045-0.012-0.068-0.019c-0.286-0.646-0.287-1.244-0.285-1.94
		c0.001-0.302-0.021-0.593-0.099-0.886c-0.07-0.256-0.147-0.494-0.134-0.762c0.012-0.264,0.311-1.593,0.754-1.306
		c0.209,0.137,0.293,0.5,0.471,0.68c0.243,0.249,0.566,0.314,0.898,0.356c0.025-0.572,0.043-1.164,0.22-1.716
		c0.147-0.46,0.495-1.072,1.065-1c0.527,0.065,0.727,0.653,0.838,1.091c0.121,0.48,0.237,0.934,0.457,1.379"/>
</g>
</svg>
