<?xml version="1.0" encoding="utf-8"?>
<!-- Generator: Adobe Illustrator 16.0.0, SVG Export Plug-In . SVG Version: 6.00 Build 0)  -->
<!DOCTYPE svg PUBLIC "-//W3C//DTD SVG 1.1//EN" "http://www.w3.org/Graphics/SVG/1.1/DTD/svg11.dtd">
<svg version="1.1" id="Layer_2" xmlns="http://www.w3.org/2000/svg" xmlns:xlink="http://www.w3.org/1999/xlink" x="0px" y="0px"
	 width="64.946px" height="133.111px" viewBox="298.538 353.438 64.946 133.111"
	 enable-background="new 298.538 353.438 64.946 133.111" xml:space="preserve">
<g>
	<g id="XMLID_1_">
		<g>
			<polygon fill="#FFFFFF" points="331.493,429.729 331.441,428.688 331.326,428.688 330.747,427.133 342.159,425.564 
				342.199,425.796 342.674,429.266 342.777,430.628 343.073,434.278 343.278,437.928 343.265,441.526 342.892,445.035 
				342.623,448.106 342.635,450.484 342.738,452.682 343.021,455.111 343.419,457.694 343.651,460.457 343.741,463.131 
				343.778,465.482 343.741,467.848 343.445,470.174 343.188,472.705 342.892,475.43 342.7,478.142 343.213,480.609 
				343.175,480.854 343.663,482.435 344.344,483.526 345.206,484.375 345.45,484.619 345.758,484.915 345.913,485.133 
				345.295,485.904 344.525,486.007 343.445,486.174 341.556,486.161 339.962,485.827 339.769,485.57 339.756,485.558 
				339.627,485.377 339.384,485.3 338.651,484.966 338.343,483.359 338.433,482.652 337.971,480.378 338.6,477.782 338.728,475.237 
				338.625,472.654 338.278,470.07 337.533,467.564 336.877,465.148 336.53,462.783 336.53,460.277 336.556,457.604 
				336.145,455.099 335.528,452.836 334.937,450.651 334.397,448.325 333.986,445.229 333.523,441.707 332.907,438.198 
				332.174,434.908 331.711,432.209 331.557,430.461 331.493,429.806 			"/>
			<path fill="#FFFFFF" d="M321.61,485.377l-0.142,0.193l-0.18,0.257l-1.606,0.334l-1.891,0.013l-1.078-0.167l-0.771-0.103
				l-0.604-0.771l0.141-0.218l0.309-0.296l0.244-0.244l0.861-0.849l0.682-1.092l0.411-1.234l-0.142-0.616l0.514-2.455l-0.038-2.687
				l-0.271-2.737l-0.258-2.531l-0.295-2.326l-0.038-2.365l0.038-2.352l0.091-2.674l0.231-2.763l0.398-2.583l0.282-2.43l0.103-2.197
				l-0.013-2.378l-0.296-2.3l-0.334-3.663v-0.54v-0.09v-3.572l0.258-3.663l0.167-1.773l0.154-2.326l0.077-0.926
				c0.103,0.052,0.218,0.104,0.321,0.154c1.619,0.052,3.354,0.271,5.075,0.592l6.734-2.866l0.579,1.555h0.115l0.052,1.041v0.077
				l0.064,0.655c-0.463,0.052-0.912,0.116-1.375,0.181l-0.488-0.321l-0.014,0.18l-0.154,1.709l-0.463,2.699l-0.719,3.29
				l-0.631,3.509l-0.462,3.521l-0.411,3.084l-0.54,2.339l-0.591,2.185l-0.604,2.263l-0.425,2.506l0.026,2.673l-0.051,2.506
				l-0.424,2.378l-0.759,2.429l-0.695,2.532l-0.307,2.57l-0.014,2.545l0.181,2.545l0.423,2.621l-0.243,1.967l0.077,0.989
				l-0.309,1.606l-0.732,0.334L321.61,485.377z"/>
		</g>
		<g>
			
				<line fill="none" stroke="#231F20" stroke-width="0.75" stroke-linecap="round" stroke-linejoin="round" x1="318.217" y1="434.278" x2="317.959" y2="437.941"/>
			
				<line fill="none" stroke="#231F20" stroke-width="0.75" stroke-linecap="round" stroke-linejoin="round" x1="315.967" y1="484.413" x2="316.032" y2="484.375"/>
			
				<line fill="none" stroke="#231F20" stroke-width="0.75" stroke-linecap="round" stroke-linejoin="round" x1="315.967" y1="484.413" x2="315.788" y2="484.619"/>
			
				<line fill="none" stroke="#231F20" stroke-width="0.75" stroke-linecap="round" stroke-linejoin="round" x1="315.338" y1="485.133" x2="315.942" y2="485.904"/>
			<polyline fill="none" stroke="#231F20" stroke-width="0.75" stroke-linecap="round" stroke-linejoin="round" points="
				321.289,485.827 319.682,486.161 317.792,486.174 316.713,486.007 			"/>
			
				<line fill="none" stroke="#231F20" stroke-width="0.75" stroke-linecap="round" stroke-linejoin="round" x1="299.389" y1="424.164" x2="298.913" y2="425.95"/>
			
				<line fill="none" stroke="#231F20" stroke-width="0.75" stroke-linecap="round" stroke-linejoin="round" x1="302.486" y1="425.526" x2="302.459" y2="425.475"/>
			
				<line fill="none" stroke="#231F20" stroke-width="0.75" stroke-linecap="round" stroke-linejoin="round" x1="300.442" y1="434.227" x2="300.057" y2="433.494"/>
			
				<line fill="none" stroke="#231F20" stroke-width="0.75" stroke-linecap="round" stroke-linejoin="round" x1="300.442" y1="434.227" x2="300.879" y2="434.124"/>
			
				<line fill="none" stroke="#231F20" stroke-width="0.75" stroke-linecap="round" stroke-linejoin="round" x1="358.649" y1="421.799" x2="358.392" y2="420.977"/>
			
				<line fill="none" stroke="#231F20" stroke-width="0.75" stroke-linecap="round" stroke-linejoin="round" x1="342.199" y1="425.796" x2="342.674" y2="429.266"/>
			<polyline fill="none" stroke="#231F20" stroke-width="0.75" stroke-linecap="round" stroke-linejoin="round" points="
				342.777,430.628 343.073,434.278 343.278,437.928 			"/>
			<polyline fill="none" stroke="#231F20" stroke-width="0.75" stroke-linecap="round" stroke-linejoin="round" points="
				332.174,434.908 332.907,438.198 333.523,441.707 			"/>
			<polyline fill="none" stroke="#231F20" stroke-width="0.75" stroke-linecap="round" stroke-linejoin="round" points="
				343.175,480.854 343.663,482.435 344.344,483.526 345.206,484.375 			"/>
			
				<line fill="none" stroke="#231F20" stroke-width="0.75" stroke-linecap="round" stroke-linejoin="round" x1="345.913" y1="485.133" x2="345.295" y2="485.904"/>
			
				<line fill="none" stroke="#231F20" stroke-width="0.75" stroke-linecap="round" stroke-linejoin="round" x1="339.756" y1="485.558" x2="339.627" y2="485.377"/>
			<polyline fill="none" stroke="#231F20" stroke-width="0.75" stroke-linecap="round" stroke-linejoin="round" points="
				339.962,485.827 341.556,486.161 343.445,486.174 344.525,486.007 			"/>
			
				<line fill="none" stroke="#231F20" stroke-width="0.75" stroke-linecap="round" stroke-linejoin="round" x1="362.633" y1="424.164" x2="363.109" y2="425.95"/>
			<polyline fill="none" stroke="#231F20" stroke-width="0.75" stroke-linecap="round" stroke-linejoin="round" points="
				358.032,423.148 357.877,424.202 357.967,425.23 357.967,426.22 357.864,427.248 357.813,428.135 			"/>
			
				<line fill="none" stroke="#231F20" stroke-width="0.75" stroke-linecap="round" stroke-linejoin="round" x1="359.536" y1="425.526" x2="359.561" y2="425.475"/>
			<polyline fill="none" stroke="#231F20" stroke-width="0.75" stroke-linecap="round" stroke-linejoin="round" points="
				361.977,433.494 362.093,433.16 362.479,432.081 			"/>
			
				<line fill="none" stroke="#231F20" stroke-width="0.75" stroke-linecap="round" stroke-linejoin="round" x1="361.579" y1="434.227" x2="361.155" y2="434.124"/>
			
				<line fill="none" stroke="#231F20" stroke-width="0.75" stroke-linecap="round" stroke-linejoin="round" x1="362.955" y1="427.763" x2="363.109" y2="425.95"/>
			
				<line fill="none" stroke="#231F20" stroke-width="0.75" stroke-linecap="round" stroke-linejoin="round" x1="318.217" y1="434.278" x2="318.384" y2="432.505"/>
			<polyline fill="none" stroke="#231F20" stroke-width="0.75" stroke-linecap="round" stroke-linejoin="round" points="
				327.713,441.707 328.344,438.198 329.063,434.908 			"/>
			<polyline fill="none" stroke="#231F20" stroke-width="0.75" stroke-linecap="round" stroke-linejoin="round" points="
				317.959,441.604 317.959,441.514 317.959,437.941 			"/>
			
				<line fill="none" stroke="#231F20" stroke-width="0.75" stroke-linecap="round" stroke-linejoin="round" x1="301.265" y1="417.905" x2="301.368" y2="417.571"/>
			
				<line fill="none" stroke="#231F20" stroke-width="0.75" stroke-linecap="round" stroke-linejoin="round" x1="300.957" y1="419.049" x2="301.265" y2="417.905"/>
			<polyline fill="none" stroke="#231F20" stroke-width="0.75" stroke-linecap="round" stroke-linejoin="round" points="
				322.818,482.37 323.061,480.403 322.638,477.782 322.458,475.237 322.471,472.692 322.778,470.122 323.473,467.59 
				324.232,465.161 324.656,462.783 324.707,460.277 324.68,457.604 325.105,455.099 325.709,452.836 326.3,450.651 326.84,448.313 
				327.251,445.229 327.713,441.707 			"/>
			<polyline fill="none" stroke="#231F20" stroke-width="0.75" stroke-linecap="round" stroke-linejoin="round" points="
				316.032,484.375 316.893,483.526 317.575,482.435 317.986,481.2 			"/>
			
				<line fill="none" stroke="#231F20" stroke-width="0.75" stroke-linecap="round" stroke-linejoin="round" x1="321.61" y1="485.377" x2="321.468" y2="485.57"/>
			
				<line fill="none" stroke="#231F20" stroke-width="0.75" stroke-linecap="round" stroke-linejoin="round" x1="299.877" y1="422.224" x2="299.389" y2="424.164"/>
			
				<line fill="none" stroke="#231F20" stroke-width="0.75" stroke-linecap="round" stroke-linejoin="round" x1="298.913" y1="425.95" x2="299.068" y2="427.763"/>
			
				<line fill="none" stroke="#231F20" stroke-width="0.75" stroke-linecap="round" stroke-linejoin="round" x1="302.459" y1="425.475" x2="302.396" y2="425.347"/>
			
				<line fill="none" stroke="#231F20" stroke-width="0.75" stroke-linecap="round" stroke-linejoin="round" x1="302.396" y1="425.347" x2="302.346" y2="425.423"/>
			
				<line fill="none" stroke="#231F20" stroke-width="0.75" stroke-linecap="round" stroke-linejoin="round" x1="299.684" y1="432.402" x2="299.556" y2="432.081"/>
			
				<line fill="none" stroke="#231F20" stroke-width="0.75" stroke-linecap="round" stroke-linejoin="round" x1="343.291" y1="442.131" x2="343.278" y2="437.928"/>
			
				<line fill="none" stroke="#231F20" stroke-width="0.75" stroke-linecap="round" stroke-linejoin="round" x1="360.654" y1="417.584" x2="360.68" y2="417.699"/>
			
				<line fill="none" stroke="#231F20" stroke-width="0.75" stroke-linecap="round" stroke-linejoin="round" x1="343.175" y1="480.854" x2="343.213" y2="480.609"/>
			
				<line fill="none" stroke="#231F20" stroke-width="0.75" stroke-linecap="round" stroke-linejoin="round" x1="362.633" y1="424.164" x2="362.144" y2="422.224"/>
			
				<line fill="none" stroke="#231F20" stroke-width="0.75" stroke-linecap="round" stroke-linejoin="round" x1="359.561" y1="425.475" x2="359.625" y2="425.347"/>
			
				<line fill="none" stroke="#231F20" stroke-width="0.75" stroke-linecap="round" stroke-linejoin="round" x1="359.625" y1="425.347" x2="359.678" y2="425.41"/>
			
				<line fill="none" stroke="#231F20" stroke-width="0.75" stroke-linecap="round" stroke-linejoin="round" x1="358.058" y1="428.264" x2="358.303" y2="428.379"/>
			
				<line fill="none" stroke="#231F20" stroke-width="0.75" stroke-linecap="round" stroke-linejoin="round" x1="361.977" y1="433.494" x2="361.579" y2="434.227"/>
			
				<line fill="none" stroke="#231F20" stroke-width="0.75" stroke-linecap="round" stroke-linejoin="round" x1="362.479" y1="432.081" x2="362.35" y2="432.402"/>
			<polyline fill="none" stroke="#231F20" stroke-width="0.75" stroke-linecap="round" stroke-linejoin="round" points="
				329.063,434.908 329.526,432.209 329.68,430.5 			"/>
			<polyline fill="none" stroke="#231F20" stroke-width="0.75" stroke-linecap="round" stroke-linejoin="round" points="
				317.959,442.144 318.293,445.807 318.589,448.106 			"/>
			<polyline fill="none" stroke="#231F20" stroke-width="0.75" stroke-linecap="round" stroke-linejoin="round" points="
				318.589,448.106 318.602,450.484 318.5,452.682 318.217,455.111 317.819,457.694 317.587,460.457 317.497,463.131 
				317.458,465.482 317.497,467.848 317.792,470.174 318.049,472.705 318.32,475.442 318.358,478.129 317.844,480.584 
				317.986,481.2 			"/>
			
				<line fill="none" stroke="#231F20" stroke-width="0.75" stroke-linecap="round" stroke-linejoin="round" x1="315.788" y1="484.619" x2="316.032" y2="484.375"/>
			
				<line fill="none" stroke="#231F20" stroke-width="0.75" stroke-linecap="round" stroke-linejoin="round" x1="316.713" y1="486.007" x2="315.942" y2="485.904"/>
			
				<line fill="none" stroke="#231F20" stroke-width="0.75" stroke-linecap="round" stroke-linejoin="round" x1="302.512" y1="425.166" x2="302.396" y2="425.347"/>
			
				<line fill="none" stroke="#231F20" stroke-width="0.75" stroke-linecap="round" stroke-linejoin="round" x1="303.68" y1="428.366" x2="303.952" y2="428.276"/>
			<polyline fill="none" stroke="#231F20" stroke-width="0.75" stroke-linecap="round" stroke-linejoin="round" points="
				303.668,428.366 303.68,428.366 303.721,428.379 303.952,428.276 			"/>
			<polyline fill="none" stroke="#231F20" stroke-width="0.75" stroke-linecap="round" stroke-linejoin="round" points="
				299.556,432.081 299.928,433.16 300.057,433.494 			"/>
			<polyline fill="none" stroke="#231F20" stroke-width="0.75" stroke-linecap="round" stroke-linejoin="round" points="
				299.145,430.461 299.081,430.089 299.029,429.035 299.068,427.763 			"/>
			<polyline fill="none" stroke="#231F20" stroke-width="0.75" stroke-linecap="round" stroke-linejoin="round" points="
				299.131,428.341 299.44,429.651 299.582,430.705 299.788,431.644 300.122,432.62 300.533,433.571 300.879,434.124 			"/>
			<polyline fill="none" stroke="#231F20" stroke-width="0.75" stroke-linecap="round" stroke-linejoin="round" points="
				301.034,432.595 300.764,431.656 300.687,430.744 300.687,430.05 			"/>
			<polyline fill="none" stroke="#231F20" stroke-width="0.75" stroke-linecap="round" stroke-linejoin="round" points="
				301.034,432.607 301.034,432.595 301.137,432.492 301.045,431.683 300.764,430.719 300.711,430.152 			"/>
			<polyline fill="none" stroke="#231F20" stroke-width="0.75" stroke-linecap="round" stroke-linejoin="round" points="
				315.942,485.904 316.096,485.956 316.713,486.007 			"/>
			
				<line fill="none" stroke="#231F20" stroke-width="0.75" stroke-linecap="round" stroke-linejoin="round" x1="360.68" y1="417.699" x2="361.078" y2="419.049"/>
			<polyline fill="none" stroke="#231F20" stroke-width="0.75" stroke-linecap="round" stroke-linejoin="round" points="
				338.433,482.652 337.971,480.378 338.6,477.782 338.728,475.237 338.625,472.654 338.278,470.07 337.533,467.564 
				336.877,465.148 336.53,462.783 336.53,460.277 336.556,457.604 336.145,455.099 335.528,452.836 334.937,450.651 
				334.397,448.325 333.986,445.229 333.523,441.707 			"/>
			
				<line fill="none" stroke="#231F20" stroke-width="0.75" stroke-linecap="round" stroke-linejoin="round" x1="345.206" y1="484.375" x2="345.45" y2="484.619"/>
			<polyline fill="none" stroke="#231F20" stroke-width="0.75" stroke-linecap="round" stroke-linejoin="round" points="
				345.206,484.375 345.27,484.413 345.45,484.619 			"/>
			
				<line fill="none" stroke="#231F20" stroke-width="0.75" stroke-linecap="round" stroke-linejoin="round" x1="344.525" y1="486.007" x2="345.295" y2="485.904"/>
			<polyline fill="none" stroke="#231F20" stroke-width="0.75" stroke-linecap="round" stroke-linejoin="round" points="
				358.392,420.977 358.186,422.095 358.032,423.148 			"/>
			<polyline fill="none" stroke="#231F20" stroke-width="0.75" stroke-linecap="round" stroke-linejoin="round" points="
				359.561,425.475 359.343,426.349 359.15,427.364 358.816,428.225 			"/>
			
				<line fill="none" stroke="#231F20" stroke-width="0.75" stroke-linecap="round" stroke-linejoin="round" x1="358.353" y1="428.366" x2="358.058" y2="428.264"/>
			<polyline fill="none" stroke="#231F20" stroke-width="0.75" stroke-linecap="round" stroke-linejoin="round" points="
				362.877,430.461 362.941,430.089 363.005,429.035 362.955,427.763 			"/>
			<polyline fill="none" stroke="#231F20" stroke-width="0.75" stroke-linecap="round" stroke-linejoin="round" points="
				361,432.595 360.897,432.492 360.975,431.683 361.271,430.719 361.309,430.152 			"/>
			<polyline fill="none" stroke="#231F20" stroke-width="0.75" stroke-linecap="round" stroke-linejoin="round" points="
				361.348,430.063 361.334,430.744 361.257,431.669 361,432.595 361,432.607 			"/>
			<polyline fill="none" stroke="#231F20" stroke-width="0.75" stroke-linecap="round" stroke-linejoin="round" points="
				345.295,485.904 345.141,485.956 344.525,486.007 			"/>
			
				<line fill="none" stroke="#231F20" stroke-width="0.75" stroke-linecap="round" stroke-linejoin="round" x1="301.933" y1="415.771" x2="302.383" y2="414.718"/>
			
				<line fill="none" stroke="#231F20" stroke-width="0.75" stroke-linecap="round" stroke-linejoin="round" x1="329.745" y1="429.806" x2="329.784" y2="427.903"/>
			
				<line fill="none" stroke="#231F20" stroke-width="0.75" stroke-linecap="round" stroke-linejoin="round" x1="321.468" y1="485.57" x2="321.494" y2="485.416"/>
			<polyline fill="none" stroke="#231F20" stroke-width="0.75" stroke-linecap="round" stroke-linejoin="round" points="
				302.486,425.526 302.911,426.528 302.961,427.467 303.206,428.225 			"/>
			
				<line fill="none" stroke="#231F20" stroke-width="0.75" stroke-linecap="round" stroke-linejoin="round" x1="299.684" y1="432.402" x2="299.375" y2="431.348"/>
			<polyline fill="none" stroke="#231F20" stroke-width="0.75" stroke-linecap="round" stroke-linejoin="round" points="
				299.145,430.461 299.081,429.459 299.131,428.341 			"/>
			
				<line fill="none" stroke="#231F20" stroke-width="0.75" stroke-linecap="round" stroke-linejoin="round" x1="300.417" y1="420.63" x2="300.957" y2="419.049"/>
			
				<line fill="none" stroke="#231F20" stroke-width="0.75" stroke-linecap="round" stroke-linejoin="round" x1="331.493" y1="429.729" x2="331.532" y2="428.649"/>
			<polyline fill="none" stroke="#231F20" stroke-width="0.75" stroke-linecap="round" stroke-linejoin="round" points="
				343.265,441.526 342.892,445.035 342.623,448.106 			"/>
			
				<line fill="none" stroke="#231F20" stroke-width="0.75" stroke-linecap="round" stroke-linejoin="round" x1="339.769" y1="485.57" x2="339.743" y2="485.416"/>
			
				<line fill="none" stroke="#231F20" stroke-width="0.75" stroke-linecap="round" stroke-linejoin="round" x1="358.649" y1="421.799" x2="358.032" y2="423.148"/>
			<polyline fill="none" stroke="#231F20" stroke-width="0.75" stroke-linecap="round" stroke-linejoin="round" points="
				359.536,425.526 359.125,426.541 359.073,427.467 358.816,428.225 			"/>
			
				<line fill="none" stroke="#231F20" stroke-width="0.75" stroke-linecap="round" stroke-linejoin="round" x1="362.35" y1="432.402" x2="362.659" y2="431.348"/>
			<polyline fill="none" stroke="#231F20" stroke-width="0.75" stroke-linecap="round" stroke-linejoin="round" points="
				362.877,430.461 362.941,429.459 362.903,428.341 			"/>
			
				<line fill="none" stroke="#231F20" stroke-width="0.75" stroke-linecap="round" stroke-linejoin="round" x1="361.618" y1="420.63" x2="361.078" y2="419.049"/>
			
				<line fill="none" stroke="#231F20" stroke-width="0.75" stroke-linecap="round" stroke-linejoin="round" x1="299.928" y1="401.313" x2="302.949" y2="389.053"/>
			
				<line fill="none" stroke="#231F20" stroke-width="0.75" stroke-linecap="round" stroke-linejoin="round" x1="299.928" y1="401.313" x2="302.525" y2="410.605"/>
			
				<line fill="none" stroke="#231F20" stroke-width="0.75" stroke-linecap="round" stroke-linejoin="round" x1="303.913" y1="423.136" x2="304.002" y2="423.174"/>
			
				<line fill="none" stroke="#231F20" stroke-width="0.75" stroke-linecap="round" stroke-linejoin="round" x1="326.609" y1="353.813" x2="343.393" y2="362.167"/>
			
				<line fill="none" stroke="#231F20" stroke-width="0.75" stroke-linecap="round" stroke-linejoin="round" x1="326.609" y1="353.813" x2="321.61" y2="363.554"/>
			
				<line fill="none" stroke="#231F20" stroke-width="0.75" stroke-linecap="round" stroke-linejoin="round" x1="343.393" y1="362.167" x2="352.364" y2="379.491"/>
			
				<line fill="none" stroke="#231F20" stroke-width="0.75" stroke-linecap="round" stroke-linejoin="round" x1="352.364" y1="379.491" x2="358.791" y2="408.51"/>
			
				<line fill="none" stroke="#231F20" stroke-width="0.75" stroke-linecap="round" stroke-linejoin="round" x1="352.364" y1="379.491" x2="354.973" y2="397.65"/>
			
				<line fill="none" stroke="#231F20" stroke-width="0.75" stroke-linecap="round" stroke-linejoin="round" x1="358.791" y1="408.51" x2="354.973" y2="397.65"/>
			
				<line fill="none" stroke="#231F20" stroke-width="0.75" stroke-linecap="round" stroke-linejoin="round" x1="302.949" y1="389.053" x2="310.313" y2="374.504"/>
			
				<line fill="none" stroke="#231F20" stroke-width="0.75" stroke-linecap="round" stroke-linejoin="round" x1="302.949" y1="389.053" x2="302.525" y2="410.605"/>
			
				<line fill="none" stroke="#231F20" stroke-width="0.75" stroke-linecap="round" stroke-linejoin="round" x1="302.949" y1="389.053" x2="319.824" y2="381.483"/>
			
				<line fill="none" stroke="#231F20" stroke-width="0.75" stroke-linecap="round" stroke-linejoin="round" x1="310.313" y1="374.504" x2="321.61" y2="363.554"/>
			
				<line fill="none" stroke="#231F20" stroke-width="0.75" stroke-linecap="round" stroke-linejoin="round" x1="310.313" y1="374.504" x2="319.824" y2="381.483"/>
			
				<line fill="none" stroke="#231F20" stroke-width="0.75" stroke-linecap="round" stroke-linejoin="round" x1="321.61" y1="363.554" x2="319.824" y2="381.483"/>
			
				<line fill="none" stroke="#231F20" stroke-width="0.75" stroke-linecap="round" stroke-linejoin="round" x1="333.742" y1="371.728" x2="332.469" y2="386.983"/>
			
				<line fill="none" stroke="#231F20" stroke-width="0.75" stroke-linecap="round" stroke-linejoin="round" x1="332.469" y1="386.983" x2="332.084" y2="411.659"/>
			<path fill="none" stroke="#231F20" stroke-width="0.75" stroke-linecap="round" stroke-linejoin="round" d="M312.524,427.402
				c0.475-0.064,1.144,0.039,1.914,0.244c0.758,0.206,1.62,0.515,2.507,0.887c0.539,0.219,1.104,0.463,1.671,0.72"/>
			<path fill="none" stroke="#231F20" stroke-width="0.75" stroke-linecap="round" stroke-linejoin="round" d="M316.596,364.814
				c3.343-3.676,6.672-7.338,10.013-11.001"/>
			<path fill="none" stroke="#231F20" stroke-width="0.75" stroke-linecap="round" stroke-linejoin="round" d="M311.817,369.839
				c1.594-1.67,3.187-3.354,4.779-5.025"/>
			<path fill="none" stroke="#231F20" stroke-width="0.75" stroke-linecap="round" stroke-linejoin="round" d="M306.869,380.866
				c1.644-3.675,3.303-7.351,4.948-11.027"/>
			<path fill="none" stroke="#231F20" stroke-width="0.75" stroke-linecap="round" stroke-linejoin="round" d="M303.489,387.575
				c1.131-2.236,2.249-4.473,3.38-6.709"/>
			<path fill="none" stroke="#231F20" stroke-width="0.75" stroke-linecap="round" stroke-linejoin="round" d="M358.791,408.51
				c-0.219,0.682-0.438,1.376-0.656,2.057"/>
			
				<line fill="none" stroke="#231F20" stroke-width="0.75" stroke-linecap="round" stroke-linejoin="round" x1="311.817" y1="369.839" x2="310.313" y2="374.504"/>
			
				<line fill="none" stroke="#231F20" stroke-width="0.75" stroke-linecap="round" stroke-linejoin="round" x1="316.596" y1="364.814" x2="321.61" y2="363.554"/>
			
				<line fill="none" stroke="#231F20" stroke-width="0.75" stroke-linecap="round" stroke-linejoin="round" x1="303.489" y1="387.575" x2="302.949" y2="389.053"/>
			
				<line fill="none" stroke="#231F20" stroke-width="0.75" stroke-linecap="round" stroke-linejoin="round" x1="306.869" y1="380.866" x2="310.313" y2="374.504"/>
			
				<line fill="none" stroke="#231F20" stroke-width="0.75" stroke-linecap="round" stroke-linejoin="round" x1="313.18" y1="365.675" x2="304.042" y2="386.071"/>
			
				<line fill="none" stroke="#231F20" stroke-width="0.75" stroke-linecap="round" stroke-linejoin="round" x1="313.18" y1="365.675" x2="326.609" y2="353.813"/>
			
				<line fill="none" stroke="#231F20" stroke-width="0.75" stroke-linecap="round" stroke-linejoin="round" x1="313.18" y1="365.675" x2="311.817" y2="369.839"/>
			
				<line fill="none" stroke="#231F20" stroke-width="0.75" stroke-linecap="round" stroke-linejoin="round" x1="304.042" y1="386.071" x2="303.489" y2="387.575"/>
			
				<line fill="none" stroke="#231F20" stroke-width="0.75" stroke-linecap="round" stroke-linejoin="round" x1="304.042" y1="386.071" x2="306.869" y2="380.866"/>
			<path fill="none" stroke="#231F20" stroke-width="0.75" stroke-linecap="round" stroke-linejoin="round" d="M330.182,430.642
				c-0.167-0.052-0.334-0.091-0.502-0.142"/>
			
				<line fill="none" stroke="#231F20" stroke-width="0.75" stroke-linecap="round" stroke-linejoin="round" x1="348.264" y1="424.717" x2="347.198" y2="410.708"/>
			
				<line fill="none" stroke="#231F20" stroke-width="0.75" stroke-linecap="round" stroke-linejoin="round" x1="342.777" y1="427.3" x2="348.264" y2="424.717"/>
			<polyline fill="none" stroke="#231F20" stroke-width="0.75" stroke-linecap="round" stroke-linejoin="round" points="
				304.002,423.174 304.144,424.202 304.067,425.23 304.067,426.22 304.157,427.248 304.221,428.135 			"/>
			
				<line fill="none" stroke="#231F20" stroke-width="0.75" stroke-linecap="round" stroke-linejoin="round" x1="342.674" y1="429.266" x2="342.777" y2="430.628"/>
			<polyline fill="none" stroke="#231F20" stroke-width="0.75" stroke-linecap="round" stroke-linejoin="round" points="
				318.616,429.253 318.539,430.179 318.384,432.505 			"/>
			
				<line fill="none" stroke="#231F20" stroke-width="0.75" stroke-linecap="round" stroke-linejoin="round" x1="342.468" y1="426.966" x2="342.494" y2="427.146"/>
			<polyline fill="none" stroke="#231F20" stroke-width="0.75" stroke-linecap="round" stroke-linejoin="round" points="
				331.557,430.461 331.711,432.209 332.174,434.908 			"/>
			
				<line fill="none" stroke="#231F20" stroke-width="0.75" stroke-linecap="round" stroke-linejoin="round" x1="358.134" y1="410.566" x2="358.173" y2="410.656"/>
			
				<line fill="none" stroke="#231F20" stroke-width="0.75" stroke-linecap="round" stroke-linejoin="round" x1="302.358" y1="414.563" x2="299.928" y2="401.313"/>
			
				<line fill="none" stroke="#231F20" stroke-width="0.75" stroke-linecap="round" stroke-linejoin="round" x1="302.383" y1="414.718" x2="302.358" y2="414.563"/>
			
				<line fill="none" stroke="#231F20" stroke-width="0.75" stroke-linecap="round" stroke-linejoin="round" x1="304.002" y1="423.174" x2="312.524" y2="427.402"/>
			<path fill="none" stroke="#231F20" stroke-width="0.75" stroke-linecap="round" stroke-linejoin="round" d="M318.616,429.253
				c0.103,0.052,0.218,0.104,0.321,0.154"/>
			
				<line fill="none" stroke="#231F20" stroke-width="0.75" stroke-linecap="round" stroke-linejoin="round" x1="358.173" y1="410.656" x2="358.791" y2="408.51"/>
			<path fill="none" stroke="#231F20" stroke-width="0.75" stroke-linecap="round" stroke-linejoin="round" d="M331.557,430.461
				c-0.463,0.052-0.912,0.116-1.375,0.181"/>
			
				<line fill="none" stroke="#231F20" stroke-width="0.75" stroke-linecap="round" stroke-linejoin="round" x1="329.694" y1="430.32" x2="330.182" y2="430.642"/>
			<polyline fill="none" stroke="#231F20" stroke-width="0.75" stroke-linecap="round" stroke-linejoin="round" points="
				302.358,414.563 301.933,415.771 301.368,417.571 			"/>
			<polyline fill="none" stroke="#231F20" stroke-width="0.75" stroke-linecap="round" stroke-linejoin="round" points="
				329.68,430.5 329.694,430.32 329.745,429.806 329.784,428.932 			"/>
			<polyline fill="none" stroke="#231F20" stroke-width="0.75" stroke-linecap="round" stroke-linejoin="round" points="
				331.441,428.662 331.441,428.688 331.493,429.729 331.493,429.806 331.557,430.461 			"/>
			<polyline fill="none" stroke="#231F20" stroke-width="0.75" stroke-linecap="round" stroke-linejoin="round" points="
				301.265,417.905 301.045,418.611 300.417,420.63 299.877,422.224 			"/>
			<polyline fill="none" stroke="#231F20" stroke-width="0.75" stroke-linecap="round" stroke-linejoin="round" points="
				322.818,482.37 322.895,483.359 322.586,484.966 321.854,485.3 321.61,485.377 			"/>
			<polyline fill="none" stroke="#231F20" stroke-width="0.75" stroke-linecap="round" stroke-linejoin="round" points="
				315.338,485.133 315.479,484.915 315.788,484.619 			"/>
			<polyline fill="none" stroke="#231F20" stroke-width="0.75" stroke-linecap="round" stroke-linejoin="round" points="
				321.584,485.377 321.468,485.57 321.289,485.827 			"/>
			<polyline fill="none" stroke="#231F20" stroke-width="0.75" stroke-linecap="round" stroke-linejoin="round" points="
				299.89,428.161 300.494,429.021 300.687,430.05 300.7,430.102 300.711,430.152 			"/>
			<polyline fill="none" stroke="#231F20" stroke-width="0.75" stroke-linecap="round" stroke-linejoin="round" points="
				300.711,430.152 301.045,430.924 301.393,431.733 301.792,432.492 302.126,433.083 302.358,433.07 302.729,432.929 
				302.55,432.312 302.229,431.528 301.946,430.731 301.766,429.754 301.638,428.777 301.703,427.724 301.87,426.914 
				302.28,425.604 302.346,425.423 			"/>
			<polyline fill="none" stroke="#231F20" stroke-width="0.75" stroke-linecap="round" stroke-linejoin="round" points="
				302.459,425.475 302.692,426.349 302.872,427.364 303.206,428.225 303.668,428.366 			"/>
			<polyline fill="none" stroke="#231F20" stroke-width="0.75" stroke-linecap="round" stroke-linejoin="round" points="
				303.952,428.276 304.131,428.212 304.221,428.135 			"/>
			<polyline fill="none" stroke="#231F20" stroke-width="0.75" stroke-linecap="round" stroke-linejoin="round" points="
				299.556,432.081 299.375,431.348 299.145,430.461 			"/>
			<polyline fill="none" stroke="#231F20" stroke-width="0.75" stroke-linecap="round" stroke-linejoin="round" points="
				300.879,434.124 300.969,434.278 301.213,434.316 301.676,434.201 301.471,433.507 301.034,432.607 			"/>
			<polyline fill="none" stroke="#231F20" stroke-width="0.75" stroke-linecap="round" stroke-linejoin="round" points="
				358.173,410.656 358.572,411.53 359.317,413.574 360.063,415.784 360.654,417.584 			"/>
			<polyline fill="none" stroke="#231F20" stroke-width="0.75" stroke-linecap="round" stroke-linejoin="round" points="
				358.392,420.977 358.161,420.219 357.389,418.959 356.335,417.52 356.207,417.353 			"/>
			<polyline fill="none" stroke="#231F20" stroke-width="0.75" stroke-linecap="round" stroke-linejoin="round" points="
				356.207,417.353 355.088,415.36 355.088,415.348 			"/>
			<polyline fill="none" stroke="#231F20" stroke-width="0.75" stroke-linecap="round" stroke-linejoin="round" points="
				343.278,437.928 343.265,441.526 343.291,442.131 			"/>
			<polyline fill="none" stroke="#231F20" stroke-width="0.75" stroke-linecap="round" stroke-linejoin="round" points="
				343.291,442.131 342.969,445.807 342.623,448.106 342.635,450.484 342.738,452.682 343.021,455.111 343.419,457.694 
				343.651,460.457 343.741,463.131 343.778,465.482 343.741,467.848 343.445,470.174 343.188,472.705 342.892,475.43 
				342.7,478.142 343.213,480.609 			"/>
			<polyline fill="none" stroke="#231F20" stroke-width="0.75" stroke-linecap="round" stroke-linejoin="round" points="
				360.68,417.699 360.975,418.611 361.618,420.63 362.144,422.224 			"/>
			<polyline fill="none" stroke="#231F20" stroke-width="0.75" stroke-linecap="round" stroke-linejoin="round" points="
				338.433,482.652 338.343,483.359 338.651,484.966 339.384,485.3 339.627,485.377 			"/>
			<polyline fill="none" stroke="#231F20" stroke-width="0.75" stroke-linecap="round" stroke-linejoin="round" points="
				345.45,484.619 345.758,484.915 345.913,485.133 			"/>
			<polyline fill="none" stroke="#231F20" stroke-width="0.75" stroke-linecap="round" stroke-linejoin="round" points="
				339.962,485.827 339.769,485.57 339.756,485.558 339.654,485.377 			"/>
			<polyline fill="none" stroke="#231F20" stroke-width="0.75" stroke-linecap="round" stroke-linejoin="round" points="
				361.309,430.152 360.988,430.924 360.627,431.733 360.243,432.492 359.909,433.083 359.678,433.07 359.304,432.929 
				359.484,432.312 359.792,431.528 360.075,430.731 360.268,429.754 360.384,428.777 360.333,427.724 360.153,426.914 
				359.742,425.604 359.678,425.41 			"/>
			<polyline fill="none" stroke="#231F20" stroke-width="0.75" stroke-linecap="round" stroke-linejoin="round" points="
				359.678,425.41 359.343,424.536 359.343,424.125 			"/>
			<polyline fill="none" stroke="#231F20" stroke-width="0.75" stroke-linecap="round" stroke-linejoin="round" points="
				358.816,428.225 358.366,428.366 358.353,428.366 358.303,428.379 			"/>
			<polyline fill="none" stroke="#231F20" stroke-width="0.75" stroke-linecap="round" stroke-linejoin="round" points="
				358.058,428.264 357.89,428.199 357.813,428.135 			"/>
			<polyline fill="none" stroke="#231F20" stroke-width="0.75" stroke-linecap="round" stroke-linejoin="round" points="
				362.877,430.461 362.659,431.348 362.479,432.081 			"/>
			<polyline fill="none" stroke="#231F20" stroke-width="0.75" stroke-linecap="round" stroke-linejoin="round" points="
				361,432.607 360.563,433.507 360.358,434.188 360.808,434.33 361.065,434.278 361.155,434.124 			"/>
			<polyline fill="none" stroke="#231F20" stroke-width="0.75" stroke-linecap="round" stroke-linejoin="round" points="
				358.019,410.927 358.456,411.941 359.292,413.921 360.063,415.784 			"/>
			
				<line fill="none" stroke="#231F20" stroke-width="0.75" stroke-linecap="round" stroke-linejoin="round" x1="303.913" y1="423.136" x2="302.525" y2="410.605"/>
			
				<line fill="none" stroke="#231F20" stroke-width="0.75" stroke-linecap="round" stroke-linejoin="round" x1="303.913" y1="423.136" x2="312.716" y2="422.056"/>
			
				<line fill="none" stroke="#231F20" stroke-width="0.75" stroke-linecap="round" stroke-linejoin="round" x1="326.609" y1="353.813" x2="333.742" y2="371.728"/>
			
				<line fill="none" stroke="#231F20" stroke-width="0.75" stroke-linecap="round" stroke-linejoin="round" x1="343.393" y1="362.167" x2="333.742" y2="371.728"/>
			
				<line fill="none" stroke="#231F20" stroke-width="0.75" stroke-linecap="round" stroke-linejoin="round" x1="343.393" y1="362.167" x2="344.588" y2="393.242"/>
			
				<line fill="none" stroke="#231F20" stroke-width="0.75" stroke-linecap="round" stroke-linejoin="round" x1="352.364" y1="379.491" x2="344.588" y2="393.242"/>
			
				<line fill="none" stroke="#231F20" stroke-width="0.75" stroke-linecap="round" stroke-linejoin="round" x1="358.791" y1="408.51" x2="357.428" y2="412.16"/>
			
				<line fill="none" stroke="#231F20" stroke-width="0.75" stroke-linecap="round" stroke-linejoin="round" x1="357.428" y1="412.16" x2="354.973" y2="397.65"/>
			<polyline fill="none" stroke="#231F20" stroke-width="0.75" stroke-linecap="round" stroke-linejoin="round" points="
				357.428,412.16 355.088,415.36 348.264,424.717 			"/>
			
				<line fill="none" stroke="#231F20" stroke-width="0.75" stroke-linecap="round" stroke-linejoin="round" x1="357.428" y1="412.16" x2="347.198" y2="410.708"/>
			
				<line fill="none" stroke="#231F20" stroke-width="0.75" stroke-linecap="round" stroke-linejoin="round" x1="302.949" y1="389.053" x2="312.832" y2="402.894"/>
			
				<line fill="none" stroke="#231F20" stroke-width="0.75" stroke-linecap="round" stroke-linejoin="round" x1="354.973" y1="397.65" x2="344.588" y2="393.242"/>
			
				<line fill="none" stroke="#231F20" stroke-width="0.75" stroke-linecap="round" stroke-linejoin="round" x1="354.973" y1="397.65" x2="347.198" y2="410.708"/>
			
				<line fill="none" stroke="#231F20" stroke-width="0.75" stroke-linecap="round" stroke-linejoin="round" x1="302.525" y1="410.605" x2="312.716" y2="422.056"/>
			
				<line fill="none" stroke="#231F20" stroke-width="0.75" stroke-linecap="round" stroke-linejoin="round" x1="302.525" y1="410.605" x2="312.832" y2="402.894"/>
			
				<line fill="none" stroke="#231F20" stroke-width="0.75" stroke-linecap="round" stroke-linejoin="round" x1="321.61" y1="363.554" x2="333.742" y2="371.728"/>
			<polyline fill="none" stroke="#231F20" stroke-width="0.75" stroke-linecap="round" stroke-linejoin="round" points="
				348.264,424.717 342.159,425.552 342.159,425.564 330.747,427.133 			"/>
			
				<line fill="none" stroke="#231F20" stroke-width="0.75" stroke-linecap="round" stroke-linejoin="round" x1="333.742" y1="371.728" x2="319.824" y2="381.483"/>
			
				<line fill="none" stroke="#231F20" stroke-width="0.75" stroke-linecap="round" stroke-linejoin="round" x1="333.742" y1="371.728" x2="344.588" y2="393.242"/>
			
				<line fill="none" stroke="#231F20" stroke-width="0.75" stroke-linecap="round" stroke-linejoin="round" x1="312.716" y1="422.056" x2="330.747" y2="427.133"/>
			
				<line fill="none" stroke="#231F20" stroke-width="0.75" stroke-linecap="round" stroke-linejoin="round" x1="312.716" y1="422.056" x2="312.832" y2="402.894"/>
			
				<line fill="none" stroke="#231F20" stroke-width="0.75" stroke-linecap="round" stroke-linejoin="round" x1="312.716" y1="422.056" x2="332.084" y2="411.659"/>
			
				<line fill="none" stroke="#231F20" stroke-width="0.75" stroke-linecap="round" stroke-linejoin="round" x1="330.747" y1="427.133" x2="347.198" y2="410.708"/>
			
				<line fill="none" stroke="#231F20" stroke-width="0.75" stroke-linecap="round" stroke-linejoin="round" x1="330.747" y1="427.133" x2="332.084" y2="411.659"/>
			
				<line fill="none" stroke="#231F20" stroke-width="0.75" stroke-linecap="round" stroke-linejoin="round" x1="319.824" y1="381.483" x2="312.832" y2="402.894"/>
			
				<line fill="none" stroke="#231F20" stroke-width="0.75" stroke-linecap="round" stroke-linejoin="round" x1="319.824" y1="381.483" x2="332.469" y2="386.983"/>
			
				<line fill="none" stroke="#231F20" stroke-width="0.75" stroke-linecap="round" stroke-linejoin="round" x1="344.588" y1="393.242" x2="347.198" y2="410.708"/>
			
				<line fill="none" stroke="#231F20" stroke-width="0.75" stroke-linecap="round" stroke-linejoin="round" x1="344.588" y1="393.242" x2="332.469" y2="386.983"/>
			
				<line fill="none" stroke="#231F20" stroke-width="0.75" stroke-linecap="round" stroke-linejoin="round" x1="344.588" y1="393.242" x2="332.084" y2="411.659"/>
			
				<line fill="none" stroke="#231F20" stroke-width="0.75" stroke-linecap="round" stroke-linejoin="round" x1="347.198" y1="410.708" x2="332.084" y2="411.659"/>
			
				<line fill="none" stroke="#231F20" stroke-width="0.75" stroke-linecap="round" stroke-linejoin="round" x1="312.832" y1="402.894" x2="332.084" y2="411.659"/>
			<path fill="none" stroke="#231F20" stroke-width="0.75" stroke-linecap="round" stroke-linejoin="round" d="M318.937,429.407
				c1.619,0.052,3.354,0.271,5.075,0.592"/>
			
				<line fill="none" stroke="#231F20" stroke-width="0.75" stroke-linecap="round" stroke-linejoin="round" x1="331.326" y1="428.688" x2="330.747" y2="427.133"/>
			
				<line fill="none" stroke="#231F20" stroke-width="0.75" stroke-linecap="round" stroke-linejoin="round" x1="318.937" y1="429.407" x2="312.716" y2="422.056"/>
			
				<line fill="none" stroke="#231F20" stroke-width="0.75" stroke-linecap="round" stroke-linejoin="round" x1="324.012" y1="429.999" x2="330.747" y2="427.133"/>
		</g>
	</g>
</g>
</svg>
