<?xml version="1.0" encoding="utf-8"?>
<!-- Generator: Adobe Illustrator 16.0.0, SVG Export Plug-In . SVG Version: 6.00 Build 0)  -->
<!DOCTYPE svg PUBLIC "-//W3C//DTD SVG 1.1//EN" "http://www.w3.org/Graphics/SVG/1.1/DTD/svg11.dtd">
<svg version="1.1" id="Layer_2" xmlns="http://www.w3.org/2000/svg" xmlns:xlink="http://www.w3.org/1999/xlink" x="0px" y="0px"
	 width="211.627px" height="108.874px" viewBox="203.601 370.361 211.627 108.874"
	 enable-background="new 203.601 370.361 211.627 108.874" xml:space="preserve">
<g>
	<g id="XMLID_1_">
		<g>
			<polygon fill="#FFFFFF" points="402.246,458.517 402.246,458.53 383.881,458.53 365.517,458.53 365.503,458.53 365.503,427.24 
				402.246,427.24 			"/>
			<path fill="#FFFFFF" d="M402.246,427.24l-17.382-5.272c9.963,1.758,19.9,3.515,29.864,5.272v31.29l-14.933,2.629l-6.836,1.204
				l0.595-1.204l8.691-2.629v-0.014V427.24z"/>
			<polygon fill="#FFFFFF" points="402.246,458.53 393.554,461.159 384.877,463.789 384.864,463.789 384.85,463.789 
				371.745,463.789 373.322,461.159 383.881,458.53 			"/>
			<polygon fill="#FFFFFF" points="399.795,461.159 384.85,478.734 392.959,462.363 			"/>
			<polygon fill="#FFFFFF" points="393.554,461.159 392.959,462.363 384.877,463.789 			"/>
			<polygon fill="#FFFFFF" points="384.877,463.789 385.251,463.789 385.251,469.768 384.85,469.768 374.138,469.768 
				368.145,469.768 371.745,463.789 384.85,463.789 384.864,463.789 			"/>
			<polygon fill="#FFFFFF" points="392.959,462.363 384.85,478.734 384.85,469.768 385.251,469.768 385.251,463.789 
				384.877,463.789 			"/>
			<polygon fill="#FFFFFF" points="374.138,469.768 374.138,478.734 362.75,478.734 368.145,469.768 			"/>
			<polygon fill="#FFFFFF" points="373.821,413.886 336.082,413.886 336.082,376.161 			"/>
			<polygon fill="#FFFFFF" points="373.322,461.159 371.745,463.789 362.762,463.789 			"/>
			<polygon fill="#FFFFFF" points="371.745,463.789 368.145,469.768 362.75,469.768 347,469.768 351.236,463.789 362.762,463.789 
							"/>
			<polygon fill="#FFFFFF" points="368.145,469.768 362.75,478.734 362.75,469.768 			"/>
			<polygon fill="#FFFFFF" points="365.517,458.53 383.881,458.53 373.322,461.159 362.762,463.789 351.236,463.789 
				353.089,461.159 365.503,458.53 			"/>
			<polygon fill="#FFFFFF" points="365.503,427.24 365.503,458.53 353.089,461.159 340.663,463.789 340.663,421.968 			"/>
			<polygon fill="#FFFFFF" points="362.75,469.768 362.75,478.734 340.663,478.734 347,469.768 			"/>
			<polygon fill="#FFFFFF" points="351.236,463.789 347,469.768 340.829,469.768 340.829,463.789 			"/>
			<polygon fill="#FFFFFF" points="373.821,413.886 387.327,416.46 385.846,416.46 341.687,416.46 336.082,413.886 			"/>
			<polygon fill="#FFFFFF" points="341.687,416.46 385.846,416.46 385.846,421.968 384.864,421.968 384.85,421.968 341.078,421.968 
				341.078,416.46 			"/>
			<polygon fill="#FFFFFF" points="341.078,416.46 341.078,421.968 340.663,421.968 325.343,421.968 278.167,421.968 
				277.751,421.968 277.751,416.46 			"/>
			<polygon fill="#FFFFFF" points="384.864,421.968 402.246,427.24 365.503,427.24 340.663,421.968 341.078,421.968 384.85,421.968 
							"/>
			<polygon fill="#FFFFFF" points="340.663,463.789 353.089,461.159 351.236,463.789 340.829,463.789 			"/>
			<polygon fill="#FFFFFF" points="340.663,463.789 340.829,463.789 340.829,469.768 340.663,469.768 336.221,469.768 
				325.343,469.768 325.343,467.373 325.343,463.789 			"/>
			<polygon fill="#FFFFFF" points="340.663,469.768 340.829,469.768 347,469.768 340.663,478.734 			"/>
			<rect x="336.221" y="469.768" fill="#FFFFFF" width="4.441" height="8.967"/>
			<polygon fill="#FFFFFF" points="340.663,421.968 340.663,463.789 325.343,463.789 325.343,423.961 325.343,421.968 			"/>
			<polygon fill="#FFFFFF" points="336.221,469.768 336.221,478.734 325.343,478.734 325.343,474.542 325.343,470.957 
				325.343,469.768 			"/>
			<rect x="282.733" y="376.161" fill="#FFFFFF" width="53.349" height="37.725"/>
			<polygon fill="#FFFFFF" points="336.082,376.161 282.733,376.161 309.415,370.861 			"/>
			<polygon fill="#FFFFFF" points="325.343,469.768 325.343,470.957 293.486,470.957 293.486,469.768 293.486,467.373 
				325.343,467.373 			"/>
			<rect x="293.486" y="474.542" fill="#FFFFFF" width="31.857" height="4.192"/>
			<rect x="293.486" y="470.957" fill="#FFFFFF" width="31.857" height="3.585"/>
			<polygon fill="#FFFFFF" points="325.343,423.961 325.343,463.789 311.933,463.789 306.882,463.789 293.486,463.789 
				293.486,423.961 306.882,423.961 311.933,423.961 			"/>
			<polygon fill="#FFFFFF" points="325.343,463.789 325.343,467.373 293.486,467.373 293.486,463.789 306.882,463.789 
				311.933,463.789 			"/>
			<polygon fill="#FFFFFF" points="293.486,469.768 293.486,470.957 293.486,474.542 293.486,478.734 282.594,478.734 
				282.594,469.768 			"/>
			<polygon fill="#FFFFFF" points="293.486,469.768 282.594,469.768 278.167,469.768 278,469.768 278,463.789 278.167,463.789 
				293.486,463.789 293.486,467.373 			"/>
			<polygon fill="#FFFFFF" points="278.167,421.968 325.343,421.968 325.343,423.961 311.933,423.961 306.882,423.961 
				293.486,423.961 293.486,463.789 278.167,463.789 278.167,421.981 			"/>
			<polygon fill="#FFFFFF" points="341.078,416.46 277.751,416.46 277.142,416.46 282.733,413.886 336.082,413.886 341.687,416.46 
							"/>
			<polygon fill="#FFFFFF" points="282.733,376.161 282.733,413.886 245.008,413.886 			"/>
			<rect x="278.167" y="469.768" fill="#FFFFFF" width="4.428" height="8.967"/>
			<polygon fill="#FFFFFF" points="278.167,421.981 278.167,463.789 265.739,461.159 253.312,458.53 253.312,427.24 
				278.167,421.968 			"/>
			<polygon fill="#FFFFFF" points="271.827,469.768 278.167,478.734 256.066,478.734 256.066,469.768 			"/>
			<polygon fill="#FFFFFF" points="278.167,421.968 253.312,427.24 216.57,427.24 233.965,421.968 277.751,421.968 			"/>
			<polygon fill="#FFFFFF" points="278.167,469.768 278.167,478.734 271.827,469.768 278,469.768 			"/>
			<polygon fill="#FFFFFF" points="278,463.789 267.593,463.789 265.739,461.159 278.167,463.789 			"/>
			<polygon fill="#FFFFFF" points="278,463.789 278,469.768 271.827,469.768 267.593,463.789 			"/>
			<polygon fill="#FFFFFF" points="277.751,416.46 277.751,421.968 233.965,421.968 232.983,421.968 232.983,416.46 277.142,416.46 
							"/>
			<polygon fill="#FFFFFF" points="271.827,469.768 256.066,469.768 250.682,469.768 247.084,463.789 256.066,463.789 
				267.593,463.789 			"/>
			<polygon fill="#FFFFFF" points="265.739,461.159 267.593,463.789 256.066,463.789 245.506,461.159 234.948,458.53 
				253.312,458.53 			"/>
			<polygon fill="#FFFFFF" points="256.066,469.768 256.066,478.734 250.682,469.768 			"/>
			<polygon fill="#FFFFFF" points="250.682,469.768 256.066,478.734 244.69,478.734 244.69,469.768 			"/>
			<polygon fill="#FFFFFF" points="256.066,463.789 247.084,463.789 245.506,461.159 			"/>
			<polygon fill="#FFFFFF" points="253.312,427.24 253.312,458.53 234.948,458.53 216.583,458.53 216.57,458.53 216.57,427.24 			
				"/>
			<polygon fill="#FFFFFF" points="245.506,461.159 247.084,463.789 233.965,463.789 225.274,461.159 216.583,458.53 
				234.948,458.53 			"/>
			<polygon fill="#FFFFFF" points="245.008,413.886 282.733,413.886 277.142,416.46 232.983,416.46 231.488,416.46 			"/>
			<polygon fill="#FFFFFF" points="225.87,462.363 233.965,478.734 219.033,461.159 			"/>
			<polygon fill="#FFFFFF" points="233.578,463.789 233.965,463.789 247.084,463.789 250.682,469.768 244.69,469.768 
				233.965,469.768 233.578,469.768 			"/>
			<polygon fill="#FFFFFF" points="233.965,463.789 225.87,462.363 225.274,461.159 			"/>
			<polygon fill="#FFFFFF" points="233.578,469.768 233.965,469.768 233.965,478.734 225.87,462.363 233.965,463.789 
				233.578,463.789 			"/>
			<polygon fill="#FFFFFF" points="216.583,458.53 225.274,461.159 225.87,462.363 219.033,461.159 204.101,458.53 204.101,427.24 
				233.965,421.968 216.57,427.24 216.57,458.53 			"/>
		</g>
		<g>
			<polyline fill="none" stroke="#000000" stroke-linecap="round" stroke-linejoin="round" points="293.486,463.789 
				293.486,467.373 293.486,469.768 293.486,470.957 293.486,474.542 293.486,478.734 			"/>
			<polyline fill="none" stroke="#000000" stroke-linecap="round" stroke-linejoin="round" points="325.343,463.789 
				325.343,467.373 325.343,469.768 325.343,470.957 325.343,474.542 325.343,478.734 			"/>
			<polyline fill="none" stroke="#000000" stroke-linecap="round" stroke-linejoin="round" points="325.343,469.768 
				336.221,469.768 340.663,469.768 340.829,469.768 			"/>
			<polyline fill="none" stroke="#000000" stroke-linecap="round" stroke-linejoin="round" points="278,469.768 278.167,469.768 
				282.594,469.768 293.486,469.768 			"/>
			<polyline fill="none" stroke="#000000" stroke-linecap="round" stroke-linejoin="round" points="256.066,463.789 
				245.506,461.159 234.948,458.53 			"/>
			
				<line fill="none" stroke="#000000" stroke-linecap="round" stroke-linejoin="round" x1="336.082" y1="376.161" x2="309.415" y2="370.861"/>
			
				<line fill="none" stroke="#000000" stroke-linecap="round" stroke-linejoin="round" x1="309.415" y1="370.861" x2="282.733" y2="376.161"/>
			
				<line fill="none" stroke="#000000" stroke-linecap="round" stroke-linejoin="round" x1="336.082" y1="376.161" x2="282.733" y2="376.161"/>
			
				<line fill="none" stroke="#000000" stroke-linecap="round" stroke-linejoin="round" x1="336.082" y1="376.161" x2="373.821" y2="413.886"/>
			
				<line fill="none" stroke="#000000" stroke-linecap="round" stroke-linejoin="round" x1="282.733" y1="413.886" x2="336.082" y2="413.886"/>
			
				<line fill="none" stroke="#000000" stroke-linecap="round" stroke-linejoin="round" x1="336.082" y1="413.886" x2="336.082" y2="376.161"/>
			
				<line fill="none" stroke="#000000" stroke-linecap="round" stroke-linejoin="round" x1="282.733" y1="376.161" x2="282.733" y2="413.886"/>
			
				<line fill="none" stroke="#000000" stroke-linecap="round" stroke-linejoin="round" x1="336.082" y1="413.886" x2="373.821" y2="413.886"/>
			
				<line fill="none" stroke="#000000" stroke-linecap="round" stroke-linejoin="round" x1="245.008" y1="413.886" x2="282.733" y2="376.161"/>
			
				<line fill="none" stroke="#000000" stroke-linecap="round" stroke-linejoin="round" x1="245.008" y1="413.886" x2="282.733" y2="413.886"/>
			
				<line fill="none" stroke="#000000" stroke-linecap="round" stroke-linejoin="round" x1="204.101" y1="427.24" x2="204.101" y2="458.53"/>
			<polyline fill="none" stroke="#000000" stroke-linecap="round" stroke-linejoin="round" points="204.101,458.53 219.033,461.159 
				225.87,462.363 233.965,463.789 			"/>
			
				<line fill="none" stroke="#000000" stroke-linecap="round" stroke-linejoin="round" x1="414.728" y1="458.53" x2="414.728" y2="427.24"/>
			<polyline fill="none" stroke="#000000" stroke-linecap="round" stroke-linejoin="round" points="414.728,458.53 399.795,461.159 
				392.959,462.363 384.877,463.789 			"/>
			<path fill="none" stroke="#000000" stroke-linecap="round" stroke-linejoin="round" d="M414.728,427.24
				c-9.964-1.758-19.901-3.515-29.864-5.272"/>
			<polyline fill="none" stroke="#000000" stroke-linecap="round" stroke-linejoin="round" points="340.829,469.768 347,469.768 
				362.75,469.768 368.145,469.768 374.138,469.768 384.85,469.768 385.251,469.768 			"/>
			
				<line fill="none" stroke="#000000" stroke-linecap="round" stroke-linejoin="round" x1="385.251" y1="469.768" x2="385.251" y2="463.789"/>
			
				<line fill="none" stroke="#000000" stroke-linecap="round" stroke-linejoin="round" x1="384.877" y1="463.789" x2="385.251" y2="463.789"/>
			<polyline fill="none" stroke="#000000" stroke-linecap="round" stroke-linejoin="round" points="340.829,463.789 
				351.236,463.789 362.762,463.789 371.745,463.789 384.85,463.789 384.864,463.789 			"/>
			
				<line fill="none" stroke="#000000" stroke-linecap="round" stroke-linejoin="round" x1="340.829" y1="469.768" x2="340.829" y2="463.789"/>
			
				<line fill="none" stroke="#000000" stroke-linecap="round" stroke-linejoin="round" x1="233.578" y1="469.768" x2="233.578" y2="463.789"/>
			<polyline fill="none" stroke="#000000" stroke-linecap="round" stroke-linejoin="round" points="233.578,469.768 
				233.965,469.768 244.69,469.768 250.682,469.768 256.066,469.768 271.827,469.768 278,469.768 			"/>
			
				<line fill="none" stroke="#000000" stroke-linecap="round" stroke-linejoin="round" x1="278" y1="469.768" x2="278" y2="463.789"/>
			<polyline fill="none" stroke="#000000" stroke-linecap="round" stroke-linejoin="round" points="233.578,463.789 
				233.965,463.789 247.084,463.789 256.066,463.789 267.593,463.789 278,463.789 			"/>
			<polyline fill="none" stroke="#000000" stroke-linecap="round" stroke-linejoin="round" points="278,463.789 278.167,463.789 
				293.486,463.789 			"/>
			
				<line fill="none" stroke="#000000" stroke-linecap="round" stroke-linejoin="round" x1="306.882" y1="463.789" x2="311.933" y2="463.789"/>
			<polyline fill="none" stroke="#000000" stroke-linecap="round" stroke-linejoin="round" points="325.343,463.789 
				340.663,463.789 340.829,463.789 			"/>
			
				<line fill="none" stroke="#000000" stroke-linecap="round" stroke-linejoin="round" x1="373.821" y1="413.886" x2="387.327" y2="416.46"/>
			
				<line fill="none" stroke="#000000" stroke-linecap="round" stroke-linejoin="round" x1="336.082" y1="413.886" x2="341.687" y2="416.46"/>
			<polyline fill="none" stroke="#000000" stroke-linecap="round" stroke-linejoin="round" points="341.687,416.46 385.846,416.46 
				387.327,416.46 			"/>
			
				<line fill="none" stroke="#000000" stroke-linecap="round" stroke-linejoin="round" x1="282.733" y1="413.886" x2="277.142" y2="416.46"/>
			<polyline fill="none" stroke="#000000" stroke-linecap="round" stroke-linejoin="round" points="277.142,416.46 277.751,416.46 
				341.078,416.46 341.687,416.46 			"/>
			
				<line fill="none" stroke="#000000" stroke-linecap="round" stroke-linejoin="round" x1="245.008" y1="413.886" x2="231.488" y2="416.46"/>
			<polyline fill="none" stroke="#000000" stroke-linecap="round" stroke-linejoin="round" points="231.488,416.46 232.983,416.46 
				277.142,416.46 			"/>
			
				<line fill="none" stroke="#000000" stroke-linecap="round" stroke-linejoin="round" x1="244.69" y1="478.734" x2="244.69" y2="469.768"/>
			<polyline fill="none" stroke="#000000" stroke-linecap="round" stroke-linejoin="round" points="244.69,478.734 256.066,478.734 
				278.167,478.734 282.594,478.734 			"/>
			
				<line fill="none" stroke="#000000" stroke-linecap="round" stroke-linejoin="round" x1="282.594" y1="478.734" x2="282.594" y2="469.768"/>
			<polyline fill="none" stroke="#000000" stroke-linecap="round" stroke-linejoin="round" points="282.594,478.734 
				293.486,478.734 325.343,478.734 336.221,478.734 			"/>
			
				<line fill="none" stroke="#000000" stroke-linecap="round" stroke-linejoin="round" x1="336.221" y1="478.734" x2="336.221" y2="469.768"/>
			<polyline fill="none" stroke="#000000" stroke-linecap="round" stroke-linejoin="round" points="336.221,478.734 
				340.663,478.734 362.75,478.734 374.138,478.734 			"/>
			
				<line fill="none" stroke="#000000" stroke-linecap="round" stroke-linejoin="round" x1="374.138" y1="478.734" x2="374.138" y2="469.768"/>
			
				<line fill="none" stroke="#000000" stroke-linecap="round" stroke-linejoin="round" x1="384.864" y1="421.968" x2="385.846" y2="421.968"/>
			
				<line fill="none" stroke="#000000" stroke-linecap="round" stroke-linejoin="round" x1="341.078" y1="421.968" x2="384.85" y2="421.968"/>
			
				<line fill="none" stroke="#000000" stroke-linecap="round" stroke-linejoin="round" x1="385.846" y1="421.968" x2="385.846" y2="416.46"/>
			
				<line fill="none" stroke="#000000" stroke-linecap="round" stroke-linejoin="round" x1="341.078" y1="421.968" x2="341.078" y2="416.46"/>
			
				<line fill="none" stroke="#000000" stroke-linecap="round" stroke-linejoin="round" x1="232.983" y1="421.968" x2="232.983" y2="416.46"/>
			<polyline fill="none" stroke="#000000" stroke-linecap="round" stroke-linejoin="round" points="232.983,421.968 
				233.965,421.968 277.751,421.968 			"/>
			
				<line fill="none" stroke="#000000" stroke-linecap="round" stroke-linejoin="round" x1="277.751" y1="421.968" x2="277.751" y2="416.46"/>
			<polyline fill="none" stroke="#000000" stroke-linecap="round" stroke-linejoin="round" points="277.751,421.968 
				278.167,421.968 325.343,421.968 340.663,421.968 341.078,421.968 			"/>
			
				<line fill="none" stroke="#000000" stroke-linecap="round" stroke-linejoin="round" x1="306.882" y1="423.961" x2="311.933" y2="423.961"/>
			
				<line fill="none" stroke="#000000" stroke-linecap="round" stroke-linejoin="round" x1="340.663" y1="421.968" x2="340.663" y2="463.789"/>
			
				<line fill="none" stroke="#000000" stroke-linecap="round" stroke-linejoin="round" x1="325.343" y1="463.789" x2="311.933" y2="463.789"/>
			
				<line fill="none" stroke="#000000" stroke-linecap="round" stroke-linejoin="round" x1="311.933" y1="423.961" x2="325.343" y2="423.961"/>
			
				<line fill="none" stroke="#000000" stroke-linecap="round" stroke-linejoin="round" x1="325.343" y1="423.961" x2="325.343" y2="463.789"/>
			
				<line fill="none" stroke="#000000" stroke-linecap="round" stroke-linejoin="round" x1="293.486" y1="463.789" x2="306.882" y2="463.789"/>
			
				<line fill="none" stroke="#000000" stroke-linecap="round" stroke-linejoin="round" x1="306.882" y1="423.961" x2="293.486" y2="423.961"/>
			
				<line fill="none" stroke="#000000" stroke-linecap="round" stroke-linejoin="round" x1="293.486" y1="423.961" x2="293.486" y2="463.789"/>
			
				<line fill="none" stroke="#000000" stroke-linecap="round" stroke-linejoin="round" x1="325.343" y1="467.373" x2="293.486" y2="467.373"/>
			
				<line fill="none" stroke="#000000" stroke-linecap="round" stroke-linejoin="round" x1="325.343" y1="470.957" x2="293.486" y2="470.957"/>
			
				<line fill="none" stroke="#000000" stroke-linecap="round" stroke-linejoin="round" x1="325.343" y1="474.542" x2="293.486" y2="474.542"/>
			
				<line fill="none" stroke="#000000" stroke-linecap="round" stroke-linejoin="round" x1="216.57" y1="427.24" x2="233.965" y2="421.968"/>
			
				<line fill="none" stroke="#000000" stroke-linecap="round" stroke-linejoin="round" x1="278.167" y1="421.968" x2="253.312" y2="427.24"/>
			
				<line fill="none" stroke="#000000" stroke-linecap="round" stroke-linejoin="round" x1="278.167" y1="421.981" x2="278.167" y2="463.789"/>
			<polyline fill="none" stroke="#000000" stroke-linecap="round" stroke-linejoin="round" points="216.57,458.53 216.57,427.24 
				253.312,427.24 253.312,458.53 			"/>
			<polyline fill="none" stroke="#000000" stroke-linecap="round" stroke-linejoin="round" points="256.066,478.734 
				250.682,469.768 247.084,463.789 245.506,461.159 			"/>
			
				<line fill="none" stroke="#000000" stroke-linecap="round" stroke-linejoin="round" x1="256.066" y1="469.768" x2="256.066" y2="478.734"/>
			<polyline fill="none" stroke="#000000" stroke-linecap="round" stroke-linejoin="round" points="216.57,458.53 216.583,458.53 
				234.948,458.53 253.312,458.53 265.739,461.159 278.167,463.789 			"/>
			<polyline fill="none" stroke="#000000" stroke-linecap="round" stroke-linejoin="round" points="233.965,463.789 
				225.274,461.159 216.583,458.53 			"/>
			<polyline fill="none" stroke="#000000" stroke-linecap="round" stroke-linejoin="round" points="265.739,461.159 
				267.593,463.789 271.827,469.768 278.167,478.734 			"/>
			<polyline fill="none" stroke="#000000" stroke-linecap="round" stroke-linejoin="round" points="233.965,478.734 225.87,462.363 
				225.274,461.159 			"/>
			
				<line fill="none" stroke="#000000" stroke-linecap="round" stroke-linejoin="round" x1="233.965" y1="421.968" x2="204.101" y2="427.24"/>
			
				<line fill="none" stroke="#000000" stroke-linecap="round" stroke-linejoin="round" x1="219.033" y1="461.159" x2="233.965" y2="478.734"/>
			
				<line fill="none" stroke="#000000" stroke-linecap="round" stroke-linejoin="round" x1="278.167" y1="421.968" x2="278.167" y2="421.981"/>
			
				<line fill="none" stroke="#000000" stroke-linecap="round" stroke-linejoin="round" x1="384.85" y1="478.734" x2="399.795" y2="461.159"/>
			<polyline fill="none" stroke="#000000" stroke-linecap="round" stroke-linejoin="round" points="340.663,478.734 347,469.768 
				351.236,463.789 353.089,461.159 			"/>
			<polyline fill="none" stroke="#000000" stroke-linecap="round" stroke-linejoin="round" points="393.554,461.159 
				392.959,462.363 384.85,478.734 			"/>
			<polyline fill="none" stroke="#000000" stroke-linecap="round" stroke-linejoin="round" points="362.75,478.734 368.145,469.768 
				371.745,463.789 373.322,461.159 			"/>
			<polyline fill="none" stroke="#000000" stroke-linecap="round" stroke-linejoin="round" points="362.762,463.789 
				373.322,461.159 383.881,458.53 			"/>
			<polyline fill="none" stroke="#000000" stroke-linecap="round" stroke-linejoin="round" points="402.259,458.53 402.246,458.53 
				393.554,461.159 384.877,463.789 384.864,463.789 			"/>
			<polyline fill="none" stroke="#000000" stroke-linecap="round" stroke-linejoin="round" points="340.663,463.789 
				353.089,461.159 365.503,458.53 365.517,458.53 383.881,458.53 402.246,458.53 			"/>
			
				<line fill="none" stroke="#000000" stroke-linecap="round" stroke-linejoin="round" x1="362.75" y1="469.768" x2="362.75" y2="478.734"/>
			<polyline fill="none" stroke="#000000" stroke-linecap="round" stroke-linejoin="round" points="365.503,458.53 365.503,427.24 
				402.246,427.24 402.246,458.517 402.246,458.53 			"/>
			<polyline fill="none" stroke="#000000" stroke-linecap="round" stroke-linejoin="round" points="384.85,421.968 384.864,421.968 
				402.246,427.24 			"/>
			
				<line fill="none" stroke="#000000" stroke-linecap="round" stroke-linejoin="round" x1="365.503" y1="427.24" x2="340.663" y2="421.968"/>
			
				<line fill="none" stroke="#000000" stroke-linecap="round" stroke-linejoin="round" x1="233.965" y1="478.734" x2="233.965" y2="469.768"/>
			
				<line fill="none" stroke="#000000" stroke-linecap="round" stroke-linejoin="round" x1="278.167" y1="478.734" x2="278.167" y2="469.768"/>
			
				<line fill="none" stroke="#000000" stroke-linecap="round" stroke-linejoin="round" x1="340.663" y1="478.734" x2="340.663" y2="469.768"/>
			
				<line fill="none" stroke="#000000" stroke-linecap="round" stroke-linejoin="round" x1="384.85" y1="478.734" x2="384.85" y2="469.768"/>
		</g>
	</g>
</g>
</svg>
