<?xml version="1.0" encoding="utf-8"?>
<!-- Generator: Adobe Illustrator 16.0.0, SVG Export Plug-In . SVG Version: 6.00 Build 0)  -->
<!DOCTYPE svg PUBLIC "-//W3C//DTD SVG 1.1//EN" "http://www.w3.org/Graphics/SVG/1.1/DTD/svg11.dtd">
<svg version="1.1" id="Layer_2" xmlns="http://www.w3.org/2000/svg" xmlns:xlink="http://www.w3.org/1999/xlink" x="0px" y="0px"
	 width="89.865px" height="126.239px" viewBox="289.069 663.472 89.865 126.239"
	 enable-background="new 289.069 663.472 89.865 126.239" xml:space="preserve">
<g>
	<g id="XMLID_1_">
		<g>
			<path fill="#FFFFFF" d="M317.024,714.648c-0.02,0.5-0.189,1-0.51,1.44c-0.08,0.11-0.17,0.22-0.27,0.31
				c-0.73,0.74-1.811,0.99-2.771,0.7c-0.28-0.08-0.54-0.21-0.79-0.38c-0.74-0.52-1.141-1.33-1.149-2.17
				c-0.011-0.561,0.159-1.13,0.52-1.62c0.28-0.4,0.659-0.69,1.08-0.88c0.87-0.4,1.909-0.33,2.74,0.25
				c0.33,0.229,0.589,0.52,0.779,0.84C316.924,713.599,317.054,714.129,317.024,714.648z"/>
			<path fill="#FFFFFF" d="M377.304,679.589c0.39,0.26,0.739,0.55,1.22,0.689c0.08,0.021,0.12,0.021,0.141,0l-2.16,2.78l-33.9,43.53
				l-3.479,4.479l-3.3,4.24l-3.98-3.84l3.8-4.88l3.48-4.47l23.33-29.971l7.72-9.91l6.01-3.47
				C376.543,679.049,376.915,679.329,377.304,679.589z"/>
			<polygon fill="#FFFFFF" points="327.334,706.969 335.825,717.869 339.125,722.119 335.644,726.589 331.844,721.719 
				322.524,709.749 			"/>
			<path fill="#FFFFFF" d="M295.474,666.049l31.86,40.92l-4.811,2.78l-25.88-33.24l-4.99-10.76v-0.011
				c0.431-0.329,0.851-0.68,1.25-1.05c0.261-0.229,0.511-0.46,0.71-0.75c0.04-0.06,0.07-0.12,0.07-0.16l0.01-0.01L295.474,666.049z"
				/>
			<path fill="#FFFFFF" d="M317.024,736.019v2.66c0,0.51-0.131,0.97-0.37,1.36c-0.68,1.16-2.21,1.689-3.52,1.1
				c-0.15-0.07-0.3-0.16-0.45-0.26c-0.721-0.5-1.16-1.32-1.16-2.2v-8.85v-6.46l1.95-6.271c0.96,0.29,2.04,0.04,2.771-0.7l0.779,0.75
				V736.019z"/>
			<path fill="#FFFFFF" d="M376.713,774.869c-0.369,0.279-0.75,0.56-1.139,0.819c-0.2,0.13-0.391,0.261-0.591,0.37
				c-0.069,0.04-0.569,0.33-0.649,0.23l-0.941-1.21l-3.219-4.13l-7.75-9.95l-23.3-29.931l3.479-4.479l33.9,43.53v0.01l2.17,2.78
				c0.08,0.1-0.33,0.52-0.38,0.569c-0.16,0.17-0.331,0.33-0.5,0.49C377.444,774.278,377.084,774.579,376.713,774.869z"/>
			<path fill="#FFFFFF" d="M291.794,788.389c-0.59-0.43-1.16-0.88-1.69-1.38c-0.16-0.14-0.31-0.29-0.45-0.44
				c-0.069-0.069-0.14-0.149-0.199-0.239c-0.04-0.04-0.181-0.19-0.12-0.271l2.17-2.79l2.32-2.979l2.819-3.62l25.88-33.24l9.32-11.96
				l3.98,3.84l-8.49,10.9l-31.871,40.93l-1.789,2.3c-0.07,0.09-0.45-0.12-0.51-0.149c-0.16-0.08-0.311-0.181-0.471-0.28
				C292.384,788.818,292.084,788.608,291.794,788.389z"/>
		</g>
		<g>
			<path fill="none" stroke="#000000" stroke-width="0.5" stroke-linecap="round" stroke-linejoin="round" d="M312.684,740.879
				c0.15,0.1,0.3,0.189,0.45,0.26c1.31,0.59,2.84,0.061,3.52-1.1c0.239-0.391,0.37-0.851,0.37-1.36"/>
			<path fill="none" stroke="#000000" stroke-width="0.5" stroke-linecap="round" stroke-linejoin="round" d="M311.524,738.679
				c0,0.88,0.439,1.7,1.16,2.2"/>
			<path fill="none" stroke="#000000" stroke-width="0.5" stroke-linecap="round" stroke-linejoin="round" d="M311.535,714.549
				c0.009,0.84,0.409,1.65,1.149,2.17c0.25,0.17,0.51,0.3,0.79,0.38c0.96,0.29,2.04,0.04,2.771-0.7c0.1-0.09,0.189-0.199,0.27-0.31
				c0.32-0.44,0.49-0.94,0.51-1.44c0.03-0.52-0.1-1.05-0.37-1.51c-0.19-0.32-0.449-0.61-0.779-0.84c-0.831-0.58-1.87-0.65-2.74-0.25
				c-0.421,0.189-0.8,0.479-1.08,0.88C311.694,713.419,311.524,713.988,311.535,714.549z"/>
			<path fill="none" stroke="#000000" stroke-width="0.5" stroke-linecap="round" stroke-linejoin="round" d="M290.104,787.009
				c0.53,0.5,1.101,0.95,1.69,1.38c0.29,0.22,0.59,0.43,0.899,0.62c0.16,0.1,0.311,0.2,0.471,0.28
				c0.06,0.029,0.439,0.239,0.51,0.149"/>
			<path fill="none" stroke="#000000" stroke-width="0.5" stroke-linecap="round" stroke-linejoin="round" d="M289.334,786.059
				c-0.061,0.08,0.08,0.23,0.12,0.271c0.06,0.09,0.13,0.17,0.199,0.239c0.141,0.15,0.29,0.301,0.45,0.44"/>
			<path fill="none" stroke="#000000" stroke-width="0.5" stroke-linecap="round" stroke-linejoin="round" d="M378.674,680.269
				c0.02-0.04-0.01-0.109-0.061-0.189c-0.189-0.301-0.449-0.521-0.699-0.75c-0.69-0.65-1.431-1.221-2.21-1.75
				c-0.38-0.271-0.741-0.561-1.21-0.69c-0.102-0.03-0.15-0.02-0.16,0.01c-0.021,0.04,0.01,0.11,0.059,0.19
				c0.201,0.29,0.451,0.52,0.711,0.75c0.351,0.32,0.709,0.63,1.08,0.93c0.359,0.28,0.73,0.561,1.12,0.82s0.739,0.55,1.22,0.689
				c0.08,0.021,0.12,0.021,0.141,0"/>
			<path fill="none" stroke="#000000" stroke-width="0.5" stroke-linecap="round" stroke-linejoin="round" d="M374.334,776.289
				c0.08,0.1,0.58-0.19,0.649-0.23c0.2-0.109,0.391-0.24,0.591-0.37c0.389-0.26,0.77-0.54,1.139-0.819
				c0.371-0.29,0.73-0.591,1.081-0.9c0.169-0.16,0.34-0.32,0.5-0.49c0.05-0.05,0.46-0.47,0.38-0.569"/>
			<path fill="none" stroke="#000000" stroke-width="0.5" stroke-linecap="round" stroke-linejoin="round" d="M289.354,667.139
				c0.03,0.01,0.07,0.01,0.13-0.01c0.479-0.141,0.829-0.43,1.221-0.69c0.33-0.229,0.64-0.46,0.949-0.7
				c0.431-0.329,0.851-0.68,1.25-1.05c0.261-0.229,0.511-0.46,0.71-0.75c0.04-0.06,0.07-0.12,0.07-0.16c0-0.05-0.05-0.069-0.16-0.04
				c-0.48,0.131-0.83,0.431-1.22,0.69c-0.78,0.53-1.51,1.11-2.2,1.75c-0.26,0.23-0.51,0.46-0.711,0.75
				c-0.049,0.08-0.08,0.15-0.059,0.19"/>
			
				<line fill="none" stroke="#000000" stroke-width="0.5" stroke-linecap="round" stroke-linejoin="round" x1="362.455" y1="692.148" x2="335.825" y2="717.869"/>
			<polyline fill="none" stroke="#000000" stroke-width="0.5" stroke-linecap="round" stroke-linejoin="round" points="
				331.844,721.719 326.794,726.589 317.024,736.019 			"/>
			
				<line fill="none" stroke="#000000" stroke-width="0.5" stroke-linecap="round" stroke-linejoin="round" x1="376.504" y1="683.059" x2="376.504" y2="770.119"/>
			<polyline fill="none" stroke="#000000" stroke-width="0.5" stroke-linecap="round" stroke-linejoin="round" points="
				316.245,716.398 317.024,717.148 326.794,726.589 331.844,731.469 335.825,735.309 362.424,760.999 376.264,774.358 			"/>
			<polyline fill="none" stroke="#000000" stroke-width="0.5" stroke-linecap="round" stroke-linejoin="round" points="
				313.474,717.099 311.524,723.369 310.524,726.599 293.825,780.289 291.614,787.409 			"/>
			<polyline fill="none" stroke="#000000" stroke-width="0.5" stroke-linecap="round" stroke-linejoin="round" points="
				293.825,672.889 310.524,726.599 311.524,729.829 			"/>
			
				<line fill="none" stroke="#000000" stroke-width="0.5" stroke-linecap="round" stroke-linejoin="round" x1="291.504" y1="669.909" x2="291.504" y2="783.269"/>
			<polyline fill="none" stroke="#000000" stroke-width="0.5" stroke-linecap="round" stroke-linejoin="round" points="
				373.393,678.099 295.474,666.049 295.463,666.049 			"/>
			<polyline fill="none" stroke="#000000" stroke-width="0.5" stroke-linecap="round" stroke-linejoin="round" points="
				291.654,665.749 296.644,676.509 313.134,712.049 			"/>
			<polyline fill="none" stroke="#000000" stroke-width="0.5" stroke-linecap="round" stroke-linejoin="round" points="
				316.654,713.139 322.524,709.749 327.334,706.969 370.174,682.238 376.184,678.769 			"/>
			
				<line fill="none" stroke="#000000" stroke-width="0.5" stroke-linecap="round" stroke-linejoin="round" x1="313.134" y1="741.139" x2="296.644" y2="776.669"/>
			
				<line fill="none" stroke="#000000" stroke-width="0.5" stroke-linecap="round" stroke-linejoin="round" x1="295.463" y1="787.139" x2="373.393" y2="775.079"/>
			
				<line fill="none" stroke="#000000" stroke-width="0.5" stroke-linecap="round" stroke-linejoin="round" x1="370.174" y1="770.949" x2="327.334" y2="746.209"/>
			
				<line fill="none" stroke="#000000" stroke-width="0.5" stroke-linecap="round" stroke-linejoin="round" x1="322.524" y1="743.429" x2="316.654" y2="740.039"/>
			<polyline fill="none" stroke="#000000" stroke-width="0.5" stroke-linecap="round" stroke-linejoin="round" points="
				311.524,738.679 311.524,729.829 311.524,723.369 311.524,714.549 			"/>
			<polyline fill="none" stroke="#000000" stroke-width="0.5" stroke-linecap="round" stroke-linejoin="round" points="
				317.024,714.539 317.024,714.648 317.024,717.148 317.024,736.019 317.024,738.679 			"/>
			<polyline fill="none" stroke="#000000" stroke-width="0.5" stroke-linecap="round" stroke-linejoin="round" points="
				289.334,786.059 291.504,783.269 293.825,780.289 296.644,776.669 322.524,743.429 331.844,731.469 335.644,726.589 
				339.125,722.119 362.455,692.148 370.174,682.238 373.393,678.099 374.334,676.898 			"/>
			<polyline fill="none" stroke="#000000" stroke-width="0.5" stroke-linecap="round" stroke-linejoin="round" points="
				378.674,680.269 378.665,680.278 376.504,683.059 342.604,726.589 339.125,731.068 335.825,735.309 327.334,746.209 
				295.463,787.139 293.674,789.438 			"/>
			<polyline fill="none" stroke="#000000" stroke-width="0.5" stroke-linecap="round" stroke-linejoin="round" points="
				374.334,776.289 373.393,775.079 370.174,770.949 362.424,760.999 339.125,731.068 			"/>
			<polyline fill="none" stroke="#000000" stroke-width="0.5" stroke-linecap="round" stroke-linejoin="round" points="
				335.644,726.589 331.844,721.719 322.524,709.749 296.644,676.509 293.825,672.889 291.504,669.909 289.354,667.139 
				289.334,667.119 			"/>
			<polyline fill="none" stroke="#000000" stroke-width="0.5" stroke-linecap="round" stroke-linejoin="round" points="
				293.684,663.749 293.694,663.769 295.474,666.049 327.334,706.969 335.825,717.869 339.125,722.119 			"/>
			<polyline fill="none" stroke="#000000" stroke-width="0.5" stroke-linecap="round" stroke-linejoin="round" points="
				342.604,726.589 376.504,770.119 376.504,770.129 378.674,772.909 			"/>
		</g>
	</g>
</g>
</svg>
